<svg width="44" height="44" viewBox="0 0 44 44" fill="none" xmlns="http://www.w3.org/2000/svg">
<path id="Vector" d="M40.1862 14.2629C38.2316 10.9304 35.7281 7.98697 32.871 5.63875L32.8192 5.59217L32.8168 5.59449C32.2478 5.12857 31.6658 4.68479 31.0708 4.26896C27.0757 1.47696 22.7024 0 18.4258 0C12.9945 0 8.07337 2.86538 4.56838 8.06967C-0.358638 15.3869 -1.41072 25.6441 1.95171 33.5926C4.47413 39.5575 11.0235 43.4269 19.4696 43.9441C20.0846 43.9814 20.7043 44 21.3228 44C25.2331 44 29.1811 43.2557 32.613 41.8556C36.9781 40.0746 40.3193 37.349 42.2739 33.9723C45.1768 28.9579 44.3768 21.4054 40.1862 14.2605V14.2629ZM20.4451 15.3822C22.3667 15.3822 24.28 16.1603 25.6561 17.6862C26.8967 19.0618 27.5211 20.8323 27.415 22.6715C27.3114 24.4746 26.5149 26.1321 25.173 27.3528L25.0116 27.4949C22.6412 29.5228 19.2587 29.6929 16.7222 28.1099C16.1437 27.7069 15.5888 27.2177 15.0657 26.6365C14.9302 26.4862 14.8041 26.3289 14.6863 26.1659C14.2704 25.5648 13.9629 24.9161 13.7615 24.2428C13.7497 24.2009 13.7367 24.1601 13.7261 24.1182C13.725 24.1123 13.7238 24.1077 13.7214 24.1019C13.1041 21.7245 13.8086 18.9558 15.7349 17.197L15.8821 17.063C17.197 15.9367 18.8228 15.3822 20.4451 15.3822ZM18.4258 2.53459C22.1699 2.53459 26.0307 3.84963 29.5911 6.33879C30.1377 6.72085 30.6714 7.12852 31.1945 7.556L32.0522 8.32244C38.6181 14.3584 40.6716 20.2452 40.1579 26.3371C39.8209 30.337 37.2432 33.5309 33.5485 36.0049C30.0305 38.3601 24.6487 39.0345 20.8033 38.6268C17.0273 38.2273 13.1135 36.7224 10.5864 33.3375C8.49633 30.5373 7.87544 27.5299 8.1582 24.3034C8.43978 21.0932 9.74281 18.0915 11.8564 16.0031C13.0416 14.8313 15.0657 13.3602 18.2973 13.0911C16.7846 13.4347 15.3367 14.1476 14.0984 15.239C11.5901 17.4509 10.5463 20.6879 11.0305 23.7501C11.2379 25.149 11.7633 26.4967 12.6175 27.6626C12.8343 27.9701 13.0699 28.2707 13.3291 28.5572C13.9488 29.2444 14.6498 29.8187 15.4038 30.2822C19.0973 32.7493 23.6992 32.5548 28.1926 29.609C30.6408 28.0039 32.2961 25.2212 32.732 21.9726C33.261 18.038 31.9839 14.002 29.227 10.9001C26.2286 7.52688 22.0792 5.53043 17.8414 5.42327C13.9017 5.32077 10.2577 6.85713 7.30169 9.8588C6.39687 10.7778 5.57334 11.7725 4.83818 12.8267C5.36952 11.6549 5.99158 10.532 6.70201 9.47558C9.71571 5.00045 13.8793 2.53575 18.4258 2.53575V2.53459Z" fill="#FD6F00"/>
</svg>