<?xml version="1.0" encoding="UTF-8"?>
<!-- Generator: Adobe Illustrator 24.2.0, SVG Export Plug-In . SVG Version: 6.00 Build 0)  -->
<svg version="1.1" id="Layer_1" xmlns="http://www.w3.org/2000/svg" xmlns:xlink="http://www.w3.org/1999/xlink" x="0px" y="0px" viewBox="0 0 85.1 92.5" style="enable-background:new 0 0 85.1 92.5;" xml:space="preserve">
<style type="text/css">
	.st0{fill:url(#SVGID_1_);}
</style>
<linearGradient id="SVGID_1_" gradientUnits="userSpaceOnUse" x1="42.562" y1="113.2595" x2="42.562" y2="28.7828">
	<stop offset="0" style="stop-color:#FFF200"/>
	<stop offset="1" style="stop-color:#F15A29"/>
</linearGradient>
<path class="st0" d="M85,40.8c-0.1-1.6-0.4-3.3-0.9-5.3c-0.5-2-1.3-4.1-2.4-6.4c-1.1-2.2-2.6-4.6-4.5-6.8c-0.7-0.9-1.5-1.8-2.4-2.6  c1.3-5.2-1.6-9.7-1.6-9.7c-5-0.3-8.1,1.5-9.3,2.4c-0.2-0.1-0.4-0.2-0.6-0.2c-0.8-0.3-1.7-0.7-2.6-0.9c-0.9-0.3-1.8-0.5-2.7-0.8  c-0.9-0.2-1.9-0.4-2.9-0.6c-0.2,0-0.3,0-0.5-0.1C52.4,2.9,46.2,0,46.2,0c-6.9,4.4-8.3,10.6-8.3,10.6s0,0.1-0.1,0.4  c-0.4,0.1-0.8,0.2-1.2,0.3c-0.5,0.2-1.1,0.4-1.6,0.5c-0.5,0.2-1.1,0.4-1.6,0.6c-1,0.5-2.1,1-3.1,1.5c-1,0.6-2,1.2-2.9,1.8  c-0.1-0.1-0.2-0.1-0.2-0.1C17.6,12,9.1,16.5,9.1,16.5c-0.8,10.2,3.8,16.7,4.8,17.9c-0.2,0.6-0.4,1.3-0.6,1.9  c-0.7,2.3-1.2,4.7-1.6,7.2c0,0.4-0.1,0.7-0.1,1.1C2.6,48.8,0,57.8,0,57.8c7.4,8.5,16.1,9.1,16.1,9.1c0,0,0,0,0,0  c1.1,2,2.4,3.8,3.8,5.6c0.6,0.7,1.2,1.4,1.9,2.1c-2.7,7.7,0.4,14.2,0.4,14.2c8.3,0.3,13.7-3.6,14.8-4.5c0.8,0.3,1.7,0.5,2.5,0.7  c2.5,0.7,5.1,1,7.7,1.2c0.6,0,1.3,0,1.9,0l0.3,0l0.2,0l0.4,0l0.4,0l0,0c3.9,5.6,10.7,6.3,10.7,6.3c4.9-5.1,5.1-10.2,5.1-11.3l0,0  c0,0,0,0,0-0.1c0-0.1,0-0.2,0-0.2s0,0,0,0c0-0.1,0-0.2,0-0.2c1-0.7,2-1.5,2.9-2.3c1.9-1.8,3.7-3.8,5.1-5.9c0.1-0.2,0.3-0.4,0.4-0.6  c5.5,0.3,9.4-3.4,9.4-3.4c-0.9-5.7-4.2-8.5-4.9-9.1l0,0c0,0,0,0-0.1-0.1c0,0-0.1,0-0.1,0l0,0c0,0-0.1,0-0.1-0.1c0-0.3,0.1-0.7,0.1-1  c0-0.6,0.1-1.2,0.1-1.9l0-0.5l0-0.2l0-0.1c0-0.2,0-0.1,0-0.2l0-0.4l0-0.5c0-0.2,0-0.3,0-0.5c0-0.2,0-0.3,0-0.5L79,52.9l-0.1-0.5  c-0.1-0.6-0.2-1.3-0.4-1.9c-0.6-2.5-1.5-4.8-2.8-6.9c-1.3-2.1-2.9-4-4.7-5.6c-1.8-1.6-3.8-2.8-5.9-3.8c-2.1-0.9-4.3-1.6-6.5-1.8  c-1.1-0.1-2.2-0.2-3.3-0.2l-0.4,0l-0.1,0c0,0-0.2,0-0.1,0l-0.2,0l-0.4,0c-0.2,0-0.3,0-0.4,0c-0.6,0.1-1.1,0.1-1.7,0.2  c-2.2,0.4-4.2,1.2-6.1,2.3c-1.8,1.1-3.4,2.4-4.7,4c-1.3,1.5-2.3,3.2-3,5c-0.7,1.8-1.1,3.6-1.2,5.4c0,0.4,0,0.9,0,1.3  c0,0.1,0,0.2,0,0.3l0,0.4c0,0.2,0,0.4,0,0.6c0.1,0.9,0.3,1.8,0.5,2.6c0.5,1.7,1.2,3.2,2.2,4.4c0.9,1.3,2.1,2.3,3.3,3.2  c1.2,0.8,2.5,1.4,3.8,1.8c1.3,0.4,2.5,0.5,3.7,0.5c0.1,0,0.3,0,0.4,0c0.1,0,0.2,0,0.2,0c0.1,0,0.2,0,0.2,0c0.1,0,0.3,0,0.4,0  c0,0,0.1,0,0.1,0l0.1,0c0.1,0,0.2,0,0.2,0c0.2,0,0.3,0,0.4-0.1c0.1,0,0.3-0.1,0.4-0.1c0.3-0.1,0.5-0.1,0.8-0.2  c0.5-0.2,1-0.4,1.5-0.6c0.5-0.2,0.9-0.5,1.3-0.8c0.1-0.1,0.2-0.2,0.3-0.2c0.4-0.3,0.5-0.9,0.1-1.3c-0.3-0.4-0.8-0.5-1.2-0.2  c-0.1,0.1-0.2,0.1-0.3,0.2c-0.3,0.2-0.7,0.3-1.1,0.4c-0.4,0.1-0.8,0.2-1.2,0.3c-0.2,0-0.4,0.1-0.6,0.1c-0.1,0-0.2,0-0.3,0  c-0.1,0-0.2,0-0.3,0c-0.1,0-0.2,0-0.3,0c-0.1,0-0.3,0-0.4,0c0,0-0.1,0,0,0l0,0l-0.1,0c-0.1,0-0.1,0-0.2,0c-0.1,0-0.2,0-0.3,0  c-0.9-0.1-1.9-0.4-2.8-0.8c-0.9-0.4-1.8-1-2.6-1.7c-0.8-0.7-1.5-1.6-2-2.5c-0.5-1-0.9-2-1.1-3.2c-0.1-0.6-0.1-1.1-0.1-1.7  c0-0.2,0-0.3,0-0.5c0,0,0,0,0,0l0-0.1l0-0.1c0-0.1,0-0.2,0-0.2c0-0.3,0.1-0.6,0.1-0.9c0.4-2.4,1.7-4.8,3.6-6.6  c0.5-0.5,1-0.9,1.5-1.2c0.5-0.4,1.1-0.7,1.7-1c0.6-0.3,1.2-0.5,1.9-0.7c0.6-0.2,1.3-0.3,2-0.3c0.3,0,0.7,0,1,0c0.1,0,0.2,0,0.2,0  l0.3,0l0.2,0c0.1,0,0,0,0,0l0.1,0l0.3,0c0.7,0.1,1.5,0.2,2.2,0.3c1.4,0.3,2.8,0.8,4.1,1.6c2.6,1.4,4.8,3.7,6.2,6.4  c0.7,1.4,1.2,2.8,1.4,4.3c0.1,0.4,0.1,0.8,0.1,1.1l0,0.3l0,0.3c0,0.1,0,0.2,0,0.3c0,0.1,0,0.2,0,0.3l0,0.2l0,0.3c0,0.2,0,0.5,0,0.7  c0,0.4-0.1,0.8-0.1,1.2c0,0.4-0.1,0.8-0.2,1.2c-0.1,0.4-0.2,0.8-0.3,1.2c-0.2,0.8-0.5,1.6-0.8,2.4c-0.6,1.5-1.4,3-2.4,4.4  c-2,2.7-4.6,4.9-7.7,6.3c-1.5,0.7-3.1,1.2-4.8,1.5c-0.8,0.1-1.7,0.2-2.5,0.3l-0.2,0l-0.1,0l-0.3,0l-0.4,0l-0.2,0c0.1,0,0,0,0,0  l-0.1,0c-0.4,0-0.9,0-1.3-0.1c-1.8-0.1-3.6-0.5-5.3-1c-1.7-0.5-3.4-1.2-4.9-2c-3.1-1.7-6-4-8.2-6.8c-1.1-1.4-2.1-2.9-2.9-4.4  c-0.8-1.6-1.4-3.2-1.9-4.9c-0.5-1.7-0.7-3.4-0.9-5.1l0-0.3l0-0.1l0-0.1l0-0.1l0-0.3l0-0.1l0-0.1l0-0.2l0-0.4l0-0.1c0,0,0,0,0,0  l0-0.2c0-0.2,0-0.4,0-0.6c0-0.9,0.1-1.7,0.2-2.6c0.1-0.9,0.3-1.8,0.4-2.6c0.2-0.9,0.4-1.7,0.6-2.6c0.5-1.7,1.1-3.4,1.8-4.9  c1.4-3.1,3.3-5.9,5.6-8.1c0.6-0.6,1.2-1.1,1.8-1.6c0.6-0.5,1.2-0.9,1.9-1.4c0.6-0.4,1.3-0.8,2-1.2c0.3-0.2,0.7-0.3,1-0.5  c0.2-0.1,0.4-0.2,0.5-0.2c0.2-0.1,0.4-0.2,0.5-0.2c0.7-0.3,1.5-0.6,2.2-0.8c0.2-0.1,0.4-0.1,0.6-0.2c0.2-0.1,0.4-0.1,0.6-0.2  c0.4-0.1,0.8-0.2,1.1-0.3c0.2-0.1,0.4-0.1,0.6-0.1c0.2,0,0.4-0.1,0.6-0.1c0.2,0,0.4-0.1,0.6-0.1l0.3-0.1l0.3,0  c0.2,0,0.4-0.1,0.6-0.1c0.2,0,0.4-0.1,0.7-0.1c0.2,0,0.5-0.1,0.7-0.1c0.1,0,0.3,0,0.4,0l0.3,0l0.1,0l0.2,0c0.2,0,0.4,0,0.7,0l0.3,0  c0,0,0.1,0,0,0l0.1,0l0.1,0c0.2,0,0.4,0,0.6,0c0.8,0,1.5,0,2.2,0c1.5,0.1,2.9,0.2,4.3,0.5c2.8,0.5,5.5,1.4,7.9,2.6  c2.4,1.2,4.6,2.6,6.4,4.2c0.1,0.1,0.2,0.2,0.3,0.3c0.1,0.1,0.2,0.2,0.3,0.3c0.2,0.2,0.4,0.4,0.7,0.6c0.2,0.2,0.4,0.4,0.6,0.6  c0.2,0.2,0.4,0.4,0.6,0.6c0.8,0.8,1.5,1.7,2.2,2.6c1.3,1.7,2.4,3.4,3.2,5.1c0.1,0.1,0.1,0.2,0.2,0.3c0.1,0.1,0.1,0.2,0.1,0.3  c0.1,0.2,0.2,0.4,0.3,0.6c0.1,0.2,0.2,0.4,0.3,0.6c0.1,0.2,0.2,0.4,0.3,0.6c0.3,0.8,0.6,1.5,0.8,2.2c0.4,1.1,0.7,2.1,0.9,3  c0.1,0.3,0.4,0.6,0.8,0.5c0.4,0,0.7-0.3,0.7-0.7C85.1,43.1,85.1,42,85,40.8z"/>
</svg>