<?xml version="1.0" encoding="UTF-8"?>
<svg id="Ebene_1" xmlns="http://www.w3.org/2000/svg" version="1.1" viewBox="0 0 340.2 79.4">
  <!-- Generator: Adobe Illustrator 29.5.1, SVG Export Plug-In . SVG Version: 2.1.0 Build 141)  -->
  <defs>
    <style>
      .st0 {
        fill: #fff;
      }

      .st1 {
        fill: #f7a70a;
      }
    </style>
  </defs>
  <g>
    <path class="st0" d="M35.6,21.9c-3.7,0-6.6,1.6-8.6,4.7-2.1,3.1-3.1,7.4-3.1,12.9,0,11.4,4.2,17,12.6,17s5-.4,7.4-1.1c2.4-.7,4.8-1.6,7.2-2.6v13.5c-4.8,2.2-10.2,3.3-16.2,3.3-8.6,0-15.3-2.6-19.9-7.8s-6.9-12.6-6.9-22.4,1.1-11.5,3.4-16.1c2.2-4.6,5.4-8.2,9.6-10.7s9.1-3.7,14.8-3.7,12.1,1.4,17.8,4.2l-4.7,12.6c-2.1-1-4.2-1.9-6.3-2.6s-4.4-1-6.8-1c0,0-.3-.2-.3-.2Z"/>
    <path class="st0" d="M59,68.8V9.7h15.5v46.2h22.1v12.9h-37.6Z"/>
    <path class="st0" d="M128,21.9c-3.7,0-6.6,1.6-8.6,4.7-2.1,3.1-3.1,7.4-3.1,12.9,0,11.4,4.2,17,12.6,17s5-.4,7.4-1.1c2.4-.7,4.8-1.6,7.2-2.6v13.5c-4.8,2.2-10.2,3.3-16.2,3.3-8.6,0-15.3-2.6-19.9-7.8s-6.9-12.6-6.9-22.4,1.1-11.5,3.4-16.1c2.2-4.6,5.4-8.2,9.6-10.7s9.1-3.7,14.8-3.7,12.1,1.4,17.8,4.2l-4.7,12.6c-2.1-1-4.2-1.9-6.3-2.6s-4.4-1-6.8-1c0,0-.3-.2-.3-.2Z"/>
  </g>
  <g>
    <path class="st0" d="M192.7,68.1h-35.1v-3.5l14.9-16.2c4.2-4.5,7.1-8,8.8-10.4,1.7-2.4,2.9-4.7,3.7-6.9.8-2.2,1.2-4.5,1.2-6.9,0-3.5-1.1-6.3-3.3-8.5-2.2-2.2-5.1-3.3-8.6-3.3s-9.2,1.8-13.4,5.3l-2.1-2.8c4.7-4.1,9.9-6.2,15.6-6.2s8.7,1.4,11.5,4.1,4.2,6.5,4.2,11.2-.9,7.6-2.8,11.2c-1.9,3.6-5.3,8.1-10.3,13.4l-14.4,15.4v.2h30v3.8h.1Z"/>
    <path class="st0" d="M215.6,33c6,0,10.7,1.5,14.1,4.5,3.4,3,5.2,7.2,5.2,12.4s-1.8,10.7-5.4,14c-3.6,3.3-8.5,5-14.8,5s-5.4-.3-7.9-.9-4.6-1.4-6.3-2.5v-4.1c2.8,1.5,5.2,2.5,7.4,3.1,2.1.6,4.4.9,6.9.9,4.9,0,8.8-1.4,11.8-4.1,3-2.7,4.5-6.4,4.5-11s-1.4-7.8-4.3-10.2c-2.9-2.5-6.8-3.7-11.8-3.7s-6.8.5-10.4,1.6l-2.3-1.6,2.2-26.7h27v3.8h-23.4l-1.7,20.6c4-.8,7.1-1.2,9.4-1.2h-.2Z"/>
  </g>
  <path class="st1" d="M293.1,40.5l-25.5,33.3-18.6-10.2,17.9-24.1-17.9-24,18.6-10.3,25.5,33.4s0,1.9,0,1.9ZM331.1,40.5l-25.5,33.3-18.8-10.2,18.1-24.1-18.1-24,18.8-10.3,25.5,33.4s0,1.9,0,1.9Z"/>
</svg>