<?xml version="1.0" encoding="UTF-8"?>
<!DOCTYPE svg PUBLIC "-//W3C//DTD SVG 1.1//EN" "http://www.w3.org/Graphics/SVG/1.1/DTD/svg11.dtd">
<!-- Creator: CorelDRAW 2017 -->
<svg xmlns="http://www.w3.org/2000/svg" xml:space="preserve" width="2841px" height="876px" version="1.1" style="shape-rendering:geometricPrecision; text-rendering:geometricPrecision; image-rendering:optimizeQuality; fill-rule:evenodd; clip-rule:evenodd" viewBox="0 0 2841 876.28" xmlns:xlink="http://www.w3.org/1999/xlink">
 <defs>
  <style type="text/css">
   <![CDATA[
    .str0 {stroke:#FEFEFE;stroke-width:0.9;stroke-miterlimit:22.9256}
    .fil0 {fill:#4FC0A9;fill-rule:nonzero}
    .fil1 {fill:white;fill-rule:nonzero}
   ]]>
  </style>
 </defs>
 <g id="Ebene_x0020_1">
  <metadata id="CorelCorpID_0Corel-Layer"/>
  <path class="fil0" d="M139.8 227.85l-102.47 112.03c-3.18,3.95 -9.54,7.92 -17.49,7.92 -8.73,0 -19.84,-8.73 -19.84,-22.24 0,-9.54 1.59,-14.29 14.28,-32.56l68.32 -86.59c3.98,-6.36 7.16,-14.31 7.16,-19.87 0,-5.56 -3.18,-13.5 -7.16,-19.85l-68.32 -86.6c-12.69,-18.27 -14.28,-23.02 -14.28,-32.57 0,-13.5 11.11,-22.24 19.84,-22.24 7.95,0 14.31,3.98 17.49,7.96l102.47 112c10.33,11.91 11.91,23.03 11.91,41.3 0,18.27 -1.58,29.39 -11.91,41.31l0 0z"/>
  <path class="fil0" d="M305.01 227.85l-102.46 112.03c-3.18,3.95 -9.55,7.92 -17.49,7.92 -8.74,0 -19.85,-8.73 -19.85,-22.24 0,-9.54 1.59,-14.29 14.29,-32.56l68.31 -86.59c3.98,-6.36 7.16,-14.31 7.16,-19.87 0,-5.56 -3.18,-13.5 -7.16,-19.85l-68.31 -86.6c-12.7,-18.27 -14.29,-23.02 -14.29,-32.57 0,-13.5 11.11,-22.24 19.85,-22.24 7.94,0 14.31,3.98 17.49,7.96l102.46 112c10.33,11.91 11.92,23.03 11.92,41.3 0,18.27 -1.59,29.39 -11.92,41.31l0 0z"/>
  <path class="fil1 str0" d="M606.71 315.91c16.41,0 30.47,-2.34 42.64,-5.16 9.38,-2.34 19.22,1.88 19.22,17.35 0,7.97 -2.34,12.64 -7.95,15.47 -13.6,7.02 -32.83,9.84 -60,9.84 -87.18,0 -115.78,-57.66 -115.78,-161.71 0,-102.19 28.6,-166.39 115.78,-166.39 27.17,0 47.8,4.22 59.53,9.83 5.61,2.81 7.96,7.51 7.96,15.01 0,11.71 -7.49,20.16 -16.88,17.8 -14.05,-3.28 -27.64,-5.14 -45.46,-5.14 -62.33,0 -74.06,37.02 -74.06,129.36 0,86.71 11.25,123.74 75,123.74z"/>
  <path class="fil1 str0" d="M824.92 127.95c-49.21,0 -59.05,16.4 -59.05,94.68 0,83.91 15.92,96.08 59.05,96.08 46.88,0 57.66,-12.17 57.66,-96.08 0,-80.15 -14.06,-94.68 -57.66,-94.68zm0.47 -34.68c73.12,0 104.06,41.24 104.06,123.74 0,108.27 -42.19,136.39 -104.53,136.39 -62.8,0 -105.93,-28.12 -105.93,-124.21 0,-97.02 32.35,-135.92 106.4,-135.92l0 0z"/>
  <path class="fil1 str0" d="M1196.51 333.71c0,14.07 -10.78,16.88 -22.03,16.88 -10.8,0 -22.97,-2.81 -22.97,-16.88l0 -154.67c0,-40.78 -15.47,-51.09 -54.84,-51.09 -17.34,0 -30,1.88 -37.5,4.7 -8.91,3.28 -9.84,8.89 -9.84,17.8l0 183.26c0,14.07 -10.79,16.88 -22.04,16.88 -10.77,0 -22.97,-2.81 -22.97,-16.88l0 -203.41c0,-19.23 5.17,-25.31 20.63,-28.59 23.44,-5.16 51.57,-8.44 73.11,-8.44 80.17,0 98.45,23.44 98.45,75.93l0 164.51z"/>
  <path class="fil1 str0" d="M1342.77 284.5c0,25.78 7.03,35.16 27.19,35.16l9.37 0c9.37,0 11.25,6.09 11.25,13.13 0,7.03 -1.88,12.18 -7.5,14.51 -4.7,2.36 -18.75,5.18 -30.47,5.18 -45.46,0 -53.91,-24.38 -53.91,-65.62l0 -141.56c0,-9.37 -0.92,-12.66 -12.17,-12.66l-22.03 0c-10.32,0 -13.13,-7.5 -13.13,-17.81 0,-9.37 2.81,-16.88 13.13,-16.88l21.56 0c11.72,0 12.64,-2.34 12.64,-11.71l0 -44.05c0,-15.02 11.25,-17.35 22.05,-17.35 11.24,0 22.02,2.33 22.02,16.86l0 44.54c0,9.37 0.94,11.71 12.65,11.71l28.6 0c10.31,0 12.66,7.51 12.66,16.88 0,10.31 -2.35,17.81 -12.66,17.81l-28.6 0c-9.84,0 -12.65,1.87 -12.65,12.18l0 139.68 0 0z"/>
  <path class="fil1 str0" d="M1504.59 333.71c0,14.07 -11.24,16.88 -22.51,16.88 -10.78,0 -22.49,-2.81 -22.49,-16.88l0 -221.22c0,-14.53 11.71,-16.88 22.49,-16.88 11.27,0 22.51,2.35 22.51,16.88l0 221.22zm-22.51 -333.26c22.05,0 26.72,6.11 26.72,25.8 0,24.36 -7.03,29.52 -26.72,29.52 -21.09,0 -27.65,-5.16 -27.65,-26.71 0,-22.5 6.56,-28.61 27.65,-28.61z"/>
  <path class="fil1 str0" d="M1781.05 333.71c0,14.07 -10.78,16.88 -22.02,16.88 -10.79,0 -22.97,-2.81 -22.97,-16.88l0 -154.67c0,-40.78 -15.48,-51.09 -54.84,-51.09 -17.35,0 -30,1.88 -37.51,4.7 -8.89,3.28 -9.84,8.89 -9.84,17.8l0 183.26c0,14.07 -10.78,16.88 -22.02,16.88 -10.78,0 -22.97,-2.81 -22.97,-16.88l0 -203.41c0,-19.23 5.16,-25.31 20.63,-28.59 23.42,-5.16 51.55,-8.44 73.11,-8.44 80.17,0 98.44,23.44 98.44,75.93l0 164.51 -0.01 0z"/>
  <path class="fil1 str0" d="M1905.49 264.82c0,40.78 15.94,53.9 54.83,53.9 34.69,0 47.35,-4.23 47.35,-22.5l0 -183.26c0,-14.07 11.25,-16.88 22.03,-16.88 11.24,0 22.97,2.81 22.97,16.88l0 203.42c0,19.22 -5.17,24.84 -20.16,28.59 -23.43,5.62 -47.34,8.44 -68.91,8.44 -84.83,0 -102.64,-26.26 -102.64,-78.75l0 -161.7c0,-14.07 10.78,-16.88 21.56,-16.88 11.25,0 22.97,2.81 22.97,16.88l0 151.85 0 0.01z"/>
  <path class="fil1 str0" d="M2233.48 127.95c-49.2,0 -59.05,16.4 -59.05,94.68 0,83.91 15.93,96.08 59.05,96.08 46.88,0 57.66,-12.17 57.66,-96.08 0,-80.15 -14.06,-94.68 -57.66,-94.68zm0.47 -34.68c73.12,0 104.06,41.24 104.06,123.74 0,108.27 -42.19,136.39 -104.53,136.39 -62.8,0 -105.93,-28.12 -105.93,-124.21 0,-97.02 32.35,-135.92 106.4,-135.92l0 0z"/>
  <path class="fil1" d="M2455.12 264.82c0,40.78 15.95,53.9 54.85,53.9 34.67,0 47.34,-4.23 47.34,-22.5l0 -183.26c0,-14.07 11.24,-16.88 22.02,-16.88 11.25,0 22.97,2.81 22.97,16.88l0 203.42c0,19.22 -5.15,24.84 -20.16,28.59 -23.43,5.62 -47.34,8.44 -68.89,8.44 -84.85,0 -102.65,-26.26 -102.65,-78.75l0 -161.7c0,-14.07 10.77,-16.88 21.55,-16.88 11.26,0 22.97,2.81 22.97,16.88l0 151.85 0 0.01z"/>
  <path class="fil1" d="M2754.63 93.27c27.18,0 44.05,2.81 52.49,7.03 7.03,3.74 8.44,8.91 8.44,14.05 0,10.32 -5.63,17.82 -18.28,15.95 -12.65,-1.42 -25.32,-2.35 -39.84,-2.35 -30.47,0 -39.84,7.97 -39.84,26.72 0,14.53 15.46,29.06 46.87,51.09 39.84,27.19 54.37,48.27 54.37,79.68 0,52.96 -40.31,67.97 -91.87,67.97 -20.63,0 -37.03,-2.82 -46.39,-6.1 -7.52,-2.81 -10.8,-8.44 -10.8,-16.41 0,-8.91 5.63,-17.33 17.34,-15.46 13.13,1.87 24.85,3.27 41.25,3.27 24.37,0 46.87,-4.22 46.87,-30.92 0,-16.88 -9.37,-31.88 -47.8,-59.54 -38.91,-27.66 -53.43,-46.39 -53.43,-72.18 0,-49.68 36.55,-62.8 80.62,-62.8l0 0z"/>
  <path class="fil1 str0" d="M598.62 740.83c0,9.84 1.88,12.2 13.13,12.2l69.83 0c10.78,0 13.6,9.36 13.6,18.74 0,10.78 -2.82,19.69 -13.6,19.69l-86.24 0c-29.06,0 -42.65,-12.19 -42.65,-35.63l0 -267.16c0,-15.02 12.65,-17.81 22.96,-17.81 12.19,0 22.97,2.79 22.97,17.81l0 252.16 0 0z"/>
  <path class="fil1 str0" d="M800.28 776.45c0,14.06 -11.24,16.88 -22.5,16.88 -10.79,0 -22.49,-2.82 -22.49,-16.88l0 -221.22c0,-14.54 11.7,-16.88 22.49,-16.88 11.26,0 22.5,2.34 22.5,16.88l0 221.22zm-22.5 -333.26c22.04,0 26.72,6.1 26.72,25.79 0,24.37 -7.03,29.52 -26.72,29.52 -21.1,0 -27.66,-5.15 -27.66,-26.71 0,-22.5 6.56,-28.6 27.66,-28.6z"/>
  <path class="fil1 str0" d="M951.18 528.97c0,9.38 0.93,11.71 12.66,11.71l32.33 0c10.32,0 12.66,7.51 12.66,16.88 0,10.31 -2.34,17.81 -12.66,17.81l-32.33 0c-9.84,0 -12.66,1.87 -12.66,12.19l0 188.89c0,14.06 -10.78,16.88 -22.03,16.88 -10.79,0 -22.97,-2.82 -22.97,-16.88l0 -188.42c0,-9.38 -0.94,-12.66 -12.19,-12.66l-20.14 0c-10.32,0 -13.13,-7.5 -13.13,-17.81 0,-9.36 2.81,-16.88 13.13,-16.88l19.68 0c11.71,0 12.65,-2.33 12.65,-11.7l0 -16.41c0,-41.72 12.18,-65.63 58.13,-65.63 22.49,0 35.14,2.35 39.83,4.7 6.1,2.8 7.97,7.97 7.97,14.99 0,6.56 -1.87,13.13 -11.25,13.13l-23.42 0c-20.63,0 -26.26,9.37 -26.26,34.68l0 14.53z"/>
  <path class="fil1 str0" d="M1096.21 631.62c0,14.99 7.03,17.82 28.6,17.82l50.16 0c22.02,0 29.52,-2.36 29.52,-22.51 0,-39.84 -12.19,-56.25 -50.15,-56.25 -41.72,0 -58.13,20.63 -58.13,54.85l0 6.09 0 0zm17.35 48.74c-14.53,0.47 -17.35,5.64 -17.35,17.81 0,43.6 22.5,63.29 80.15,63.29 20.16,0 35.63,-2.35 47.35,-5.16 8.9,-2.34 17.81,1.88 17.81,13.59 0,7.03 -2.34,13.13 -7.97,15.94 -13.12,6.57 -33.28,10.32 -61.41,10.32 -83.43,0 -119.99,-30.47 -119.99,-114.37l0 -35.17c0,-85.77 46.41,-110.61 102.66,-110.61 73.59,0 94.2,39.85 94.2,95.15 0,40.32 -7.96,45 -54.84,46.4l-80.61 2.81 0 0z"/>
  <path class="fil1 str0" d="M1424.34 761.46c14.53,0 22.03,-0.94 33.76,-2.82 9.37,-1.4 15.46,4.22 15.46,15.47 0,7.5 -2.34,11.25 -7.97,14.53 -11.24,5.15 -29.54,7.51 -46.4,7.51 -63.74,0 -104.99,-24.85 -104.99,-129.37 0,-115.31 52.49,-130.77 104.99,-130.77 16.86,0 35.16,1.4 46.4,7.96 5.63,3.28 7.97,8.44 7.97,15 0,8.91 -4.69,15.47 -15.93,13.6 -11.26,-1.41 -21.58,-2.82 -34.69,-2.82 -46.88,0 -61.86,16.87 -61.86,97.03 0,67.02 13.59,94.68 63.27,94.68l-0.01 0z"/>
  <path class="fil1 str0" d="M1650.07 802.71c-13.6,39.36 -36.09,73.12 -87.19,73.12 -26.25,0 -33.75,-6.1 -33.75,-21.57 0,-7.03 1.87,-13.59 11.25,-13.59l18.27 0c31.42,0 48.77,-23.91 48.77,-46.88 0,-15.93 -17.35,-13.12 -24.86,-31.87 -18.74,-46.86 -60.46,-180.45 -60.46,-205.3 0,-9.37 7.03,-17.81 22.49,-17.81 11.26,0 19.23,2.34 22.97,17.81 15,59.07 32.34,128.44 45.94,174.36 3.28,10.79 7.03,11.74 10.78,11.74 3.27,0 7.5,-0.95 10.78,-11.74 13.11,-45.92 30.94,-115.29 45.01,-174.36 3.75,-15.47 11.23,-17.81 22.01,-17.81 15.47,0 22.5,8.44 22.5,17.81 0,24.85 -56.25,193.13 -74.52,246.09l0.01 0z"/>
  <path class="fil1 str0" d="M1886.45 761.46c14.53,0 22.03,-0.94 33.75,-2.82 9.38,-1.4 15.47,4.22 15.47,15.47 0,7.5 -2.34,11.25 -7.96,14.53 -11.26,5.15 -29.54,7.51 -46.41,7.51 -63.75,0 -105,-24.85 -105,-129.37 0,-115.31 52.5,-130.77 105,-130.77 16.87,0 35.15,1.4 46.41,7.96 5.62,3.28 7.96,8.44 7.96,15 0,8.91 -4.68,15.47 -15.93,13.6 -11.26,-1.41 -21.57,-2.82 -34.68,-2.82 -46.88,0 -61.88,16.87 -61.88,97.03 0,67.02 13.59,94.68 63.27,94.68l0 0z"/>
  <path class="fil1 str0" d="M1994.57 463.81c0,-14.51 11.25,-16.87 22.03,-16.87 11.25,0 22.97,2.36 22.97,16.87l0 263.42c0,25.8 6.09,35.17 26.25,35.17l9.37 0c9.37,0 11.26,6.08 11.26,13.12 0,7.04 -1.89,12.18 -7.51,14.53 -4.69,2.34 -18.75,5.15 -30.46,5.15 -45.47,0 -53.91,-24.37 -53.91,-65.61l0 -265.78z"/>
  <path class="fil1 str0" d="M2174.42 631.62c0,14.99 7.04,17.82 28.6,17.82l50.16 0c22.02,0 29.52,-2.36 29.52,-22.51 0,-39.84 -12.19,-56.25 -50.15,-56.25 -41.72,0 -58.12,20.63 -58.12,54.85l0 6.09 -0.01 0zm17.35 48.74c-14.53,0.47 -17.34,5.64 -17.34,17.81 0,43.6 22.5,63.29 80.14,63.29 20.16,0 35.63,-2.35 47.35,-5.16 8.91,-2.34 17.81,1.88 17.81,13.59 0,7.03 -2.34,13.13 -7.96,15.94 -13.13,6.57 -33.29,10.32 -61.41,10.32 -83.44,0 -120,-30.47 -120,-114.37l0 -35.17c0,-85.77 46.41,-110.61 102.66,-110.61 73.59,0 94.2,39.85 94.2,95.15 0,40.32 -7.95,45 -54.83,46.4l-80.62 2.81 0 0z"/>
  <path class="fil0" d="M2663.87 670.59l-102.47 112.02c-3.17,3.96 -9.54,7.93 -17.48,7.93 -8.74,0 -19.85,-8.74 -19.85,-22.24 0,-9.55 1.59,-14.3 14.28,-32.57l68.32 -86.58c3.98,-6.37 7.16,-14.31 7.16,-19.87 0,-5.56 -3.18,-13.5 -7.16,-19.86l-68.32 -86.59c-12.69,-18.27 -14.28,-23.02 -14.28,-32.57 0,-13.5 11.11,-22.24 19.85,-22.24 7.94,0 14.31,3.97 17.48,7.96l102.47 111.99c10.33,11.92 11.92,23.04 11.92,41.31 0,18.27 -1.59,29.39 -11.92,41.31l0 0z"/>
  <path class="fil0" d="M2829.08 670.59l-102.47 112.02c-3.17,3.96 -9.54,7.93 -17.48,7.93 -8.74,0 -19.85,-8.74 -19.85,-22.24 0,-9.55 1.59,-14.3 14.29,-32.57l68.31 -86.58c3.98,-6.37 7.16,-14.31 7.16,-19.87 0,-5.56 -3.18,-13.5 -7.16,-19.86l-68.31 -86.59c-12.7,-18.27 -14.29,-23.02 -14.29,-32.57 0,-13.5 11.11,-22.24 19.85,-22.24 7.94,0 14.31,3.97 17.48,7.96l102.47 111.99c10.33,11.92 11.92,23.04 11.92,41.31 0,18.27 -1.59,29.39 -11.92,41.31l0 0z"/>
 </g>
</svg>