<svg xmlns="http://www.w3.org/2000/svg" width="192" height="27" viewBox="0 0 192 27" fill="none" class="flex-1 hidden fill-white dark:block"><title>heise Academy Logo Dark</title><g clip-path="url(#clip05)"><path d="M26.5886 1.48483H29.7562V6.5135L29.6177 9.12682C30.7461 8.05773 32.0924 7.08764 33.9336 7.08764C36.8241 7.08764 38.0912 9.04763 38.0912 12.4529V20.9264H34.9235V12.8488C34.9235 10.6315 34.29 9.79995 32.8249 9.79995C31.637 9.79995 30.8649 10.3741 29.7364 11.4828V20.9264H26.5688V1.48483H26.5886Z" fill="white"></path><path d="M40.4273 14.1555C40.4273 9.76035 43.4762 7.06784 46.6438 7.06784C50.2867 7.06784 52.2269 9.70096 52.2269 13.4824C52.2269 14.0961 52.1675 14.69 52.0883 15.0266H43.5158C43.7732 17.4221 45.3174 18.7882 47.4952 18.7882C48.6434 18.7882 49.6333 18.4318 50.6232 17.8181L51.6923 19.7781C50.4054 20.6492 48.782 21.2431 47.0596 21.2431C43.3574 21.2233 40.4273 18.61 40.4273 14.1555ZM49.4947 12.8686C49.4947 10.7898 48.5642 9.52278 46.723 9.52278C45.159 9.52278 43.7732 10.6909 43.496 12.8686H49.4947Z" fill="white"></path><path d="M54.2858 3.24686C54.2858 2.17777 55.1173 1.44525 56.2458 1.44525C57.3743 1.44525 58.2058 2.17777 58.2058 3.24686C58.2058 4.29615 57.3743 5.04847 56.2458 5.04847C55.1173 5.02867 54.2858 4.27635 54.2858 3.24686ZM54.6422 7.40442H57.8099V20.9066H54.6422V7.40442Z" fill="white"></path><path d="M59.9084 19.3426L61.3735 17.3232C62.5811 18.2537 63.7294 18.8278 65.0955 18.8278C66.5605 18.8278 67.2535 18.1349 67.2535 17.2044C67.2535 16.0759 65.7884 15.5612 64.3432 15.0068C62.5811 14.3337 60.542 13.324 60.542 11.067C60.542 8.73088 62.4426 7.02826 65.4518 7.02826C67.3326 7.02826 68.8373 7.80038 69.946 8.65169L68.5007 10.5919C67.5504 9.89895 66.6001 9.4238 65.5508 9.4238C64.1848 9.4238 63.5512 10.0771 63.5512 10.9284C63.5512 11.9975 64.9173 12.3935 66.3823 12.9478C68.2037 13.621 70.2627 14.5119 70.2627 17.0262C70.2627 19.3426 68.4215 21.2234 65.0163 21.2234C63.1751 21.2234 61.2349 20.4314 59.9084 19.3426Z" fill="white"></path><path d="M71.609 14.1555C71.609 9.76035 74.6579 7.06784 77.8255 7.06784C81.4683 7.06784 83.4085 9.70096 83.4085 13.4824C83.4085 14.0961 83.3491 14.69 83.27 15.0266H74.6975C74.9548 17.4221 76.4991 18.7882 78.6768 18.7882C79.8251 18.7882 80.815 18.4318 81.8049 17.8181L82.874 19.7781C81.5871 20.6492 79.9637 21.2431 78.2413 21.2431C74.5193 21.2233 71.609 18.61 71.609 14.1555ZM80.6566 12.8686C80.6566 10.7898 79.7261 9.52278 77.8849 9.52278C76.3209 9.52278 74.935 10.6909 74.6579 12.8686H80.6566Z" fill="white"></path><path d="M89.8825 17.2638C89.8825 14.3733 92.278 12.8686 97.8214 12.2747C97.7818 10.8294 97.1879 9.62177 95.3665 9.62177C94.0202 9.62177 92.7531 10.2355 91.5653 10.9482L90.3972 8.82985C91.882 7.89935 93.8024 7.06784 95.9406 7.06784C99.3261 7.06784 100.969 9.14662 100.969 12.9082V20.9066H98.3758L98.1382 19.4019H98.059C96.8513 20.4314 95.4655 21.2233 93.8618 21.2233C91.5059 21.2233 89.8825 19.6197 89.8825 17.2638ZM97.8214 17.2836V14.2545C94.1588 14.7098 92.9313 15.6799 92.9313 17.046C92.9313 18.2339 93.743 18.7684 94.8715 18.7684C95.9802 18.7486 96.8315 18.2141 97.8214 17.2836Z" fill="white"></path><path d="M103.088 14.1555C103.088 9.66136 106.275 7.06784 109.859 7.06784C111.581 7.06784 112.828 7.72117 113.798 8.59228L112.254 10.6513C111.541 10.0177 110.848 9.66136 110.017 9.66136C107.839 9.66136 106.334 11.463 106.334 14.1753C106.334 16.8876 107.819 18.6694 109.918 18.6694C110.967 18.6694 111.937 18.1547 112.709 17.5013L113.996 19.5999C112.729 20.7284 111.126 21.2629 109.581 21.2629C105.899 21.2233 103.088 18.6298 103.088 14.1555Z" fill="white"></path><path d="M115.402 17.2638C115.402 14.3733 117.797 12.8686 123.341 12.2747C123.301 10.8294 122.707 9.62177 120.886 9.62177C119.54 9.62177 118.273 10.2355 117.085 10.9482L115.917 8.82985C117.402 7.89935 119.322 7.06784 121.46 7.06784C124.846 7.06784 126.489 9.14662 126.489 12.9082V20.9066H123.915L123.677 19.4019H123.598C122.391 20.4314 121.005 21.2233 119.401 21.2233C117.025 21.2233 115.402 19.6197 115.402 17.2638ZM123.341 17.2836V14.2545C119.678 14.7098 118.451 15.6799 118.451 17.046C118.451 18.2339 119.263 18.7684 120.391 18.7684C121.5 18.7486 122.331 18.2141 123.341 17.2836Z" fill="white"></path><path d="M128.924 14.1555C128.924 9.76035 131.676 7.06784 134.645 7.06784C136.17 7.06784 137.14 7.64198 138.189 8.55268L138.071 6.37491V1.48483H141.238V20.9066H138.645L138.407 19.4415H138.328C137.318 20.4512 135.932 21.2431 134.487 21.2431C131.102 21.2233 128.924 18.61 128.924 14.1555ZM138.071 17.0856V10.8096C137.14 9.97813 136.229 9.68116 135.319 9.68116C133.596 9.68116 132.191 11.3046 132.191 14.1159C132.191 17.046 133.319 18.61 135.259 18.61C136.309 18.61 137.18 18.1547 138.071 17.0856Z" fill="white"></path><path d="M143.812 14.1555C143.812 9.76035 146.861 7.06784 150.028 7.06784C153.671 7.06784 155.611 9.70096 155.611 13.4824C155.611 14.0961 155.552 14.69 155.473 15.0266H146.9C147.158 17.4221 148.702 18.7882 150.88 18.7882C152.028 18.7882 153.018 18.4318 154.008 17.8181L155.077 19.7781C153.79 20.6492 152.167 21.2431 150.444 21.2431C146.742 21.2233 143.812 18.61 143.812 14.1555ZM152.879 12.8686C152.879 10.7898 151.949 9.52278 150.108 9.52278C148.544 9.52278 147.158 10.6909 146.881 12.8686H152.879Z" fill="white"></path><path d="M158.106 7.4044H160.7L160.937 9.24561H161.016C162.165 8.05774 163.471 7.06784 165.154 7.06784C167.134 7.06784 168.262 7.97854 168.876 9.48318C170.163 8.11713 171.509 7.06784 173.212 7.06784C176.063 7.06784 177.369 9.02783 177.369 12.4331V20.9066H174.202V12.8488C174.202 10.6315 173.548 9.79995 172.123 9.79995C171.272 9.79995 170.341 10.3543 169.292 11.4828V20.9264H166.124V12.8488C166.124 10.6315 165.471 9.79995 164.045 9.79995C163.214 9.79995 162.264 10.3543 161.214 11.4828V20.9264H158.047V7.4044H158.106Z" fill="white"></path><path d="M179.864 26.1728L180.438 23.7179C180.695 23.7971 181.091 23.8961 181.408 23.8961C182.834 23.8961 183.645 22.926 184.101 21.5797L184.358 20.7284L179.052 7.38461H182.259L184.596 13.9971C185.011 15.2048 185.388 16.5312 185.783 17.8181H185.902C186.239 16.5708 186.575 15.2246 186.932 13.9971L188.951 7.38461H192L187.11 21.5005C185.981 24.5494 184.576 26.4302 181.626 26.4302C180.874 26.45 180.359 26.3312 179.864 26.1728Z" fill="white"></path><path d="M11.7995 0.296974C10.2157 -0.435548 8.33491 0.237581 7.60239 1.82141L0.296967 17.4815C-0.435556 19.0654 0.237573 20.9462 1.8214 21.6787C3.40524 22.4112 5.28604 21.7381 6.01856 20.1543L13.324 4.49413C14.0763 2.9103 13.3834 1.0295 11.7995 0.296974Z" fill="white"></path><path d="M16.848 10.2949C15.2642 9.56238 13.3834 10.2355 12.6509 11.8193L10.0177 17.4815C9.28521 19.0654 9.95834 20.9462 11.5422 21.6787C13.126 22.4112 15.0068 21.7381 15.7393 20.1543L18.3922 14.4921C19.1248 12.9082 18.4318 11.0274 16.848 10.2949Z" fill="white"></path></g><defs><clipPath id="clip0_762_487"><rect width="192" height="26.4302" fill="white"></rect></clipPath></defs></svg>