<?xml version="1.0" encoding="UTF-8"?>
<!DOCTYPE svg PUBLIC "-//W3C//DTD SVG 1.1//EN" "http://www.w3.org/Graphics/SVG/1.1/DTD/svg11.dtd">
<!-- Creator: CorelDRAW X6 -->
<svg xmlns="http://www.w3.org/2000/svg" xml:space="preserve" width="300px" height="138px" version="1.1" style="shape-rendering:geometricPrecision; text-rendering:geometricPrecision; image-rendering:optimizeQuality; fill-rule:evenodd; clip-rule:evenodd" viewBox="0 0 3000 1382" xmlns:xlink="http://www.w3.org/1999/xlink">
 <defs>
  <style type="text/css">
   <![CDATA[
    .fil0 {fill:white;fill-rule:nonzero}
   ]]>
  </style>
 </defs>
 <g id="Ebene_x0020_1">
  <metadata id="CorelCorpID_0Corel-Layer"/>
  <path class="fil0" d="M0 560l57 26 270 -559 -57 -27 -270 560zm385 0l57 26 270 -559 -57 -27 -270 560zm868 -339l0 -183 -73 8 0 472 73 0 0 -240c19,-27 45,-50 76,-50 34,0 49,16 49,58l0 232 73 0 0 -244c0,-65 -31,-103 -96,-103 -38,0 -76,19 -102,50l0 0zm369 152l224 0c4,-8 4,-19 4,-30 0,-107 -57,-172 -148,-172 -95,0 -153,76 -153,179 0,107 58,179 164,179 46,0 92,-19 122,-45l-30 -42c-27,22 -58,30 -88,30 -49,0 -88,-30 -95,-99l0 0zm80 -148c49,0 76,38 76,99l-156 0c7,-65 38,-99 80,-99zm380 -210c-26,0 -45,19 -45,46 0,27 19,46 45,46 27,0 46,-19 46,-46 0,-27 -19,-46 -46,-46zm50 453l0 -285 -171 0 0 49 99 0 0 236 -99 0 0 50 262 0 0 -50 -91 0 0 0zm324 4c-42,0 -77,-15 -103,-34l-38 42c30,26 76,49 141,49 76,0 148,-34 148,-106 0,-65 -46,-88 -110,-107 -69,-15 -84,-27 -84,-53 0,-23 15,-35 61,-35 42,0 72,12 99,31l30 -46c-30,-23 -72,-42 -129,-42 -84,0 -137,42 -137,99 0,57 45,84 114,99 68,19 80,31 80,57 0,31 -31,46 -72,46l0 0zm319 -99l221 0c4,-8 4,-19 4,-30 0,-107 -57,-172 -148,-172 -92,0 -153,76 -153,179 0,107 57,179 164,179 46,0 91,-19 122,-45l-31 -42c-26,22 -57,30 -87,30 -50,0 -88,-30 -92,-99zm80 -148c46,0 73,38 76,99l-156 0c4,-65 35,-99 80,-99z"/>
  <path class="fil0" d="M301 815l-73 -12 0 172c-22,-23 -49,-35 -87,-35 -84,0 -133,76 -133,179 0,103 41,175 129,175 38,0 72,-19 95,-49l4 42 65 0 0 -472zm-141 179c30,0 49,15 68,38l0 160c-19,26 -41,49 -72,49 -46,0 -72,-38 -72,-122 0,-87 30,-125 76,-125l0 0zm312 148l225 0c0,-11 0,-23 0,-34 0,-103 -54,-168 -145,-168 -95,0 -152,76 -152,179 0,103 57,175 160,175 49,0 91,-15 125,-41l-34 -46c-27,23 -57,30 -88,30 -45,0 -87,-26 -91,-95l0 0zm80 -148c50,0 76,34 76,99l-156 0c4,-69 38,-99 80,-99zm423 293l118 -339 -73 0 -87 278 -84 -278 -80 0 122 339 84 0zm498 -126c0,-84 -57,-114 -129,-137 -80,-23 -103,-38 -103,-72 0,-38 34,-57 80,-57 34,0 72,11 103,38l38 -42c-34,-34 -84,-53 -145,-53 -87,0 -152,45 -152,118 0,68 49,102 141,133 72,19 91,38 91,76 0,49 -42,72 -91,72 -50,0 -92,-19 -122,-45l-42 45c38,35 92,57 164,57 106,0 167,-53 167,-133l0 0zm149 -19l224 0c4,-11 4,-23 4,-34 0,-103 -57,-168 -148,-168 -95,0 -153,76 -153,179 0,103 58,175 164,175 46,0 92,-15 122,-41l-30 -46c-27,23 -58,30 -88,30 -49,0 -88,-26 -95,-95l0 0zm80 -148c49,0 76,34 76,99l-156 0c7,-69 38,-99 80,-99zm407 243c-49,0 -87,-34 -87,-118 0,-83 34,-122 87,-122 31,0 57,12 84,31l34 -50c-34,-22 -72,-38 -118,-38 -103,0 -164,76 -164,179 0,107 58,175 164,175 42,0 88,-15 118,-41l-34 -46c-23,15 -50,30 -84,30l0 0zm312 -175c0,-122 42,-194 134,-278l-42 -38c-103,84 -164,172 -164,316 0,145 61,232 164,320l42 -38c-96,-91 -134,-160 -134,-282l0 0zm472 0c0,122 -38,191 -129,282l38 38c103,-88 168,-175 168,-320 0,-144 -65,-232 -168,-316l-38 38c88,84 129,156 129,278l0 0z"/>
 </g>
</svg>