<svg id="Layer_1" data-name="Layer 1" xmlns="http://www.w3.org/2000/svg" viewBox="0 0 76 76"><path d="M54.56,28.07H36.8a5.64,5.64,0,0,0-10.88,0H21.44a1.5,1.5,0,0,0,0,3h4.48a5.64,5.64,0,0,0,10.88,0H54.56a1.5,1.5,0,0,0,0-3Zm-23.2,4.15A2.65,2.65,0,1,1,34,29.57,2.65,2.65,0,0,1,31.36,32.22Z" fill="#ac7fff"/><path d="M54.56,44.93H50.08a5.64,5.64,0,0,0-10.88,0H21.44a1.5,1.5,0,0,0,0,3H39.2a5.64,5.64,0,0,0,10.88,0h4.48a1.5,1.5,0,0,0,0-3Zm-9.92,4.14a2.65,2.65,0,1,1,2.65-2.64A2.65,2.65,0,0,1,44.64,49.07Z" fill="#ac7fff"/><path d="M1.5,39.5A1.5,1.5,0,0,0,3,38a34.65,34.65,0,0,1,.3-4.55l7.44-2.71a1.51,1.51,0,0,0,.92-1,28.64,28.64,0,0,1,1.91-4.57,1.48,1.48,0,0,0,0-1.33l-3.35-7.19a35.43,35.43,0,0,1,6.44-6.45l7.19,3.36a1.48,1.48,0,0,0,1.33,0,28.64,28.64,0,0,1,4.57-1.91,1.51,1.51,0,0,0,1-.92L33.45,3.3a34.65,34.65,0,0,1,9.1,0l2.71,7.44a1.51,1.51,0,0,0,1,.92,28.64,28.64,0,0,1,4.57,1.91,1.48,1.48,0,0,0,1.33,0l7.19-3.36a35.43,35.43,0,0,1,6.44,6.45L62.4,23.88a1.48,1.48,0,0,0,0,1.33,28.64,28.64,0,0,1,1.91,4.57,1.51,1.51,0,0,0,.92,1l8.29,3a1.5,1.5,0,1,0,1-2.82L67,28.17a29.72,29.72,0,0,0-1.55-3.68l3.43-7.35a1.51,1.51,0,0,0-.14-1.52,38.71,38.71,0,0,0-8.33-8.33,1.49,1.49,0,0,0-1.52-.14l-7.35,3.43A29.72,29.72,0,0,0,47.83,9l-2.77-7.6a1.46,1.46,0,0,0-1.18-1,38,38,0,0,0-11.76,0,1.46,1.46,0,0,0-1.18,1L28.17,9a29.72,29.72,0,0,0-3.68,1.55L17.14,7.15a1.49,1.49,0,0,0-1.52.14,38.71,38.71,0,0,0-8.33,8.33,1.51,1.51,0,0,0-.14,1.52l3.43,7.35A29.72,29.72,0,0,0,9,28.17l-7.6,2.77a1.46,1.46,0,0,0-1,1.17A37.61,37.61,0,0,0,0,38,1.5,1.5,0,0,0,1.5,39.5Z" fill="#ac7fff"/><path d="M74.5,36.5A1.5,1.5,0,0,0,73,38a34.65,34.65,0,0,1-.3,4.55l-7.44,2.71a1.51,1.51,0,0,0-.92,1,28.64,28.64,0,0,1-1.91,4.57,1.48,1.48,0,0,0,0,1.33l3.35,7.19a34.75,34.75,0,0,1-6.44,6.44L52.12,62.4a1.48,1.48,0,0,0-1.33,0,28.64,28.64,0,0,1-4.57,1.91,1.51,1.51,0,0,0-1,.92L42.55,72.7a34.65,34.65,0,0,1-9.1,0l-2.71-7.44a1.51,1.51,0,0,0-1-.92,28.64,28.64,0,0,1-4.57-1.91,1.48,1.48,0,0,0-1.33,0l-7.19,3.35a35.06,35.06,0,0,1-6.44-6.44l3.35-7.19a1.48,1.48,0,0,0,0-1.33,28.64,28.64,0,0,1-1.91-4.57,1.49,1.49,0,0,0-.92-1l-8.29-3a1.5,1.5,0,1,0-1,2.82L9,47.83a29.72,29.72,0,0,0,1.55,3.68L7.15,58.86a1.51,1.51,0,0,0,.14,1.52,38.71,38.71,0,0,0,8.33,8.33,1.51,1.51,0,0,0,1.52.14l7.35-3.43A29.72,29.72,0,0,0,28.17,67l2.77,7.6a1.46,1.46,0,0,0,1.18,1,37.81,37.81,0,0,0,11.76,0,1.46,1.46,0,0,0,1.18-1L47.83,67a29.72,29.72,0,0,0,3.68-1.55l7.35,3.43a1.51,1.51,0,0,0,1.52-.14,38.48,38.48,0,0,0,8.33-8.33,1.51,1.51,0,0,0,.14-1.52l-3.43-7.35A29.72,29.72,0,0,0,67,47.83l7.6-2.77a1.46,1.46,0,0,0,1-1.17A37.61,37.61,0,0,0,76,38,1.5,1.5,0,0,0,74.5,36.5Z" fill="#ac7fff"/></svg>