<svg id="Layer_1" data-name="Layer 1" xmlns="http://www.w3.org/2000/svg" viewBox="0 0 76 76"><path d="M74,8.91,67.09,2a6.89,6.89,0,0,0-9.73,0L51,8.37,24.78,34.59a1.51,1.51,0,0,0,0,2.12,1.48,1.48,0,0,0,1.06.44,1.45,1.45,0,0,0,1.06-.44L52.07,11.55,65.51,25a1.45,1.45,0,0,0,1.06.44,1.36,1.36,0,0,0,.56-.11,1.45,1.45,0,0,0,.5-.33L74,18.63A6.88,6.88,0,0,0,74,8.91Zm-2.12,7.6-5.3,5.3L54.19,9.43l5.3-5.3a4,4,0,0,1,5.48,0L71.86,11A3.87,3.87,0,0,1,71.87,16.51Z" fill="#ac7fff"/><path d="M21.71,39.76a1.38,1.38,0,0,0-.47-.31h0a.81.81,0,0,0-.22-.07,1.1,1.1,0,0,0-.31,0h0a1.51,1.51,0,0,0-.56.11h0a1.63,1.63,0,0,0-.49.33h0v0a1.54,1.54,0,0,0-.31.47s0,0,0,0a.81.81,0,0,0-.07.22L15.48,57.87a1.5,1.5,0,0,0,.37,1.34,1.53,1.53,0,0,0,1.09.47,1,1,0,0,0,.24,0L35.4,56.81a1.17,1.17,0,0,0,.32-.09h0a1.49,1.49,0,0,0,.46-.31h0L61,31.6a1.51,1.51,0,0,0,0-2.12,1.49,1.49,0,0,0-2.12,0L35.17,53.21,21.75,39.79h0l0,0Zm-.16,4.08L32,54.31l-13.15,2Z" fill="#ac7fff"/><path d="M66.3,35.47A1.5,1.5,0,0,0,64.8,37V68.68H11.42a5.66,5.66,0,0,0-4.1-4.1V11.2H39.69a1.5,1.5,0,0,0,0-3H5.82a1.5,1.5,0,0,0-1.5,1.5V64.58A5.81,5.81,0,0,0,1.7,66.07,5.82,5.82,0,0,0,9.94,74.3h0a5.79,5.79,0,0,0,1.48-2.62H66.3a1.5,1.5,0,0,0,1.5-1.5V37A1.5,1.5,0,0,0,66.3,35.47ZM7.82,72.18a2.83,2.83,0,1,1,0-4,2.82,2.82,0,0,1,0,4Z" fill="#ac7fff"/></svg>