<svg id="Layer_1" data-name="Layer 1" xmlns="http://www.w3.org/2000/svg" viewBox="0 0 76 76"><path d="M34.61,45.35a1.51,1.51,0,0,0,1.06-.44l11.7-11.7a1.5,1.5,0,1,0-2.13-2.12L34.61,41.73l-3.85-3.86a1.51,1.51,0,0,0-2.12,0,1.49,1.49,0,0,0,0,2.12l4.91,4.92A1.51,1.51,0,0,0,34.61,45.35Z" fill="#ac7fff"/><path d="M66,49.06a1.51,1.51,0,0,0-2,.82C59.68,60.56,50,69.14,38,72.93c-14.35-4.54-25.29-16-27.92-29.37a2.81,2.81,0,0,0-.1-.31,5.65,5.65,0,1,0-2.85.34,1.69,1.69,0,0,0,0,.55C10,58.69,22,71.17,37.56,75.93A1.35,1.35,0,0,0,38,76a1.31,1.31,0,0,0,.44-.07c13-4,23.63-13.28,28.37-24.91A1.51,1.51,0,0,0,66,49.06ZM5.26,38a2.65,2.65,0,1,1,2.65,2.65A2.65,2.65,0,0,1,5.26,38Z" fill="#ac7fff"/><path d="M69.59,32.56V10.81a1.5,1.5,0,0,0-2-1.4A24.27,24.27,0,0,1,39.22.63a1.55,1.55,0,0,0-2.44,0A24.27,24.27,0,0,1,8.43,9.41a1.5,1.5,0,0,0-2,1.4V25.14a1.5,1.5,0,0,0,3,0V12.88A27.15,27.15,0,0,0,38,4a27.15,27.15,0,0,0,28.59,8.92V32.56a5.65,5.65,0,1,0,3,0Zm-1.5,8.09A2.65,2.65,0,1,1,70.74,38,2.65,2.65,0,0,1,68.09,40.65Z" fill="#ac7fff"/></svg>