<?xml version="1.0" encoding="utf-8"?>
<!-- Generator: Adobe Illustrator 24.2.1, SVG Export Plug-In . SVG Version: 6.00 Build 0)  -->
<svg version="1.1" xmlns="http://www.w3.org/2000/svg" xmlns:xlink="http://www.w3.org/1999/xlink" x="0px" y="0px"
	 viewBox="0 0 1266 559" style="enable-background:new 0 0 1266 559;" xml:space="preserve">
<style type="text/css">
	.st0{fill:#FAFAFA;}
	.st1{fill:#F0F0F0;}
	.st2{fill:#FFFFFF;}
	.st3{fill:#E24329;}
	.st4{fill:#FCA326;}
	.st5{fill:#FC6D26;}
	.st6{fill:#8C929D;}
	.st7{fill:#2E2E2E;}
	.st8{fill:none;stroke:#FCA326;stroke-width:16;stroke-linecap:round;stroke-linejoin:round;stroke-miterlimit:10;}
	.st9{fill:none;stroke:#FC6D26;stroke-width:16;stroke-linecap:round;stroke-linejoin:round;stroke-miterlimit:10;}
	.st10{fill:none;stroke:#E24329;stroke-width:16;stroke-linecap:round;stroke-linejoin:round;stroke-miterlimit:10;}
	.st11{fill:none;stroke:#F0F0F0;stroke-miterlimit:10;}
	.st12{fill:#231F20;}
	.st13{fill:none;stroke:#231F20;stroke-width:16;stroke-linecap:round;stroke-linejoin:round;stroke-miterlimit:10;}
	.st14{display:none;}
	.st15{display:inline;opacity:0.1;fill:#E828E3;}
	.st16{display:inline;}
	.st17{font-family:'SourceSansPro-Semibold';}
	.st18{font-size:24px;}
	.st19{opacity:0.1;fill:#E828E3;}
	.st20{display:inline;fill:#DB3B21;}
	.st21{display:inline;fill:#FC6D26;}
	.st22{display:inline;fill:#2E2E2E;}
	.st23{display:inline;fill:#6E49CB;}
	.st24{display:inline;fill:#380D75;}
	.st25{display:inline;fill:#FCA121;}
	.st26{opacity:0.6;fill:none;stroke:#231F20;stroke-width:2;stroke-miterlimit:10;stroke-dasharray:12,6;}
	.st27{fill:none;stroke:#444444;stroke-width:1.5339;stroke-miterlimit:10;}
</style>
<g id="logo_art">
	<g>
		<path class="st12" d="M461.505,297.617l-18.047-55.583c0.008,0.025,0.011,0.051,0.019,0.076c-0.009-0.029-0.014-0.058-0.022-0.087
			c-0.001-0.002-0.001-0.003-0.001-0.005c0-0.001,0-0.002,0-0.002l-35.828-110.302c-1.959-5.811-7.353-9.711-13.535-9.662
			c-6.2,0.032-11.445,3.856-13.363,9.747L346.72,236.497H239.415l-34.071-104.704c-1.916-5.885-7.161-9.709-13.361-9.741
			c-0.025,0-0.049,0-0.075,0c-6.105,0-11.508,3.876-13.489,9.752l-35.729,110.203l-0.005,0.014c0,0.001,0,0.002,0,0.003
			c-0.009,0.028-0.013,0.056-0.022,0.084c0.008-0.025,0.011-0.051,0.019-0.076l-18.114,55.587
			c-2.725,8.391,0.232,17.511,7.36,22.695l156.404,113.639c0.023,0.017,0.049,0.027,0.072,0.044c0.067,0.048,0.132,0.097,0.2,0.142
			c-0.064-0.043-0.124-0.09-0.187-0.134c0,0,0-0.001-0.001-0.001c0.01,0.008,0.022,0.013,0.033,0.02
			c0.009,0.006,0.018,0.01,0.027,0.016c0.001,0.001,0.002,0.002,0.004,0.003c0.242,0.168,0.493,0.322,0.753,0.463
			c0.036,0.02,0.068,0.045,0.104,0.064c0.001,0,0.001,0.001,0.002,0.001c0.022,0.011,0.042,0.025,0.064,0.036
			c0.017,0.008,0.035,0.013,0.051,0.021c0.012,0.006,0.025,0.01,0.037,0.015c0.029,0.014,0.061,0.023,0.09,0.038
			c0.136,0.065,0.279,0.118,0.419,0.175c0.131,0.054,0.258,0.117,0.392,0.164c0.006,0.002,0.011,0.005,0.017,0.007
			c0.022,0.008,0.042,0.019,0.065,0.027c0.028,0.01,0.055,0.021,0.083,0.03c0.011,0.003,0.022,0.005,0.033,0.008
			c0.035,0.011,0.073,0.016,0.108,0.026c0.013,0.004,0.028,0.006,0.042,0.01c0.188,0.057,0.383,0.098,0.577,0.141
			c0.076,0.017,0.149,0.041,0.226,0.055c0.011,0.002,0.021,0.006,0.033,0.008c0.025,0.005,0.048,0.014,0.074,0.018
			c0.041,0.007,0.081,0.02,0.123,0.026c0.033,0.005,0.067,0.003,0.1,0.008c0.006,0.001,0.011,0,0.017,0.001c0.002,0,0.003,0,0.005,0
			c0.369,0.053,0.743,0.09,1.124,0.09c0.002,0,0.004,0,0.007,0l0,0c0.001,0,0.002,0,0.002,0c0,0,0.001,0,0.001,0
			c0.001,0,0.002,0,0.003,0c0.382,0,0.756-0.037,1.126-0.09c0.001,0,0.003,0,0.004,0c0.006-0.001,0.012,0,0.018-0.001
			c0.033-0.005,0.068-0.003,0.101-0.008c0.042-0.007,0.082-0.019,0.124-0.026c0.025-0.004,0.048-0.013,0.073-0.018
			c0.011-0.002,0.021-0.006,0.032-0.008c0.078-0.015,0.153-0.039,0.231-0.056c0.191-0.042,0.383-0.083,0.57-0.139
			c0.013-0.004,0.026-0.005,0.039-0.009c0.037-0.011,0.075-0.016,0.112-0.027c0.011-0.004,0.023-0.005,0.034-0.008
			c0.029-0.009,0.057-0.021,0.085-0.031c0.022-0.008,0.042-0.019,0.064-0.027c0.006-0.002,0.011-0.005,0.017-0.007
			c0.142-0.05,0.276-0.116,0.415-0.173c0.129-0.054,0.261-0.102,0.387-0.162c0.031-0.015,0.064-0.024,0.094-0.039
			c0.012-0.006,0.026-0.01,0.038-0.016c0.017-0.008,0.035-0.013,0.052-0.022c0.023-0.012,0.045-0.026,0.067-0.037
			c0,0,0.001,0,0.001-0.001c0.037-0.019,0.07-0.046,0.107-0.066c0.258-0.14,0.508-0.293,0.749-0.46
			c0.019-0.013,0.041-0.023,0.061-0.037c0.005-0.004,0.011-0.006,0.016-0.01c0.023-0.017,0.05-0.028,0.073-0.045L454.148,320.31
			C461.273,315.128,464.229,306.009,461.505,297.617z M394.189,142.048l30.678,94.449h-61.355L394.189,142.048z M419.495,252.468
			l-12.518,16.039l-92.328,118.299l43.674-134.339H419.495z M285.432,429.96C285.432,429.959,285.432,429.959,285.432,429.96
			c0.008,0.024,0.021,0.046,0.029,0.071C285.453,430.006,285.44,429.984,285.432,429.96z M271.425,386.814L166.637,252.468l0,0
			h61.176L271.425,386.814z M191.886,142.047l30.734,94.45h-61.356L191.886,142.047z M141.318,307.394
			c-1.516-1.103-2.144-3.05-1.563-4.837l13.465-41.322l98.663,126.493L141.318,307.394z M288.057,433.742
			c-0.031-0.025-0.061-0.052-0.091-0.078c-0.006-0.005-0.012-0.012-0.019-0.017c-0.06-0.05-0.119-0.101-0.177-0.153
			c-0.114-0.099-0.226-0.2-0.333-0.306c0.009,0.008,0.019,0.015,0.028,0.023c0.012,0.011,0.025,0.02,0.037,0.031
			c0.229,0.219,0.47,0.425,0.722,0.615c0.003,0.002,0.005,0.005,0.008,0.007c0.012,0.009,0.022,0.02,0.034,0.03
			C288.196,433.844,288.124,433.795,288.057,433.742z M293.031,401.646l-25.663-79.053l-22.765-70.125h96.926L293.031,401.646z
			 M298.283,433.493c-0.06,0.052-0.118,0.104-0.179,0.154c-0.007,0.006-0.014,0.013-0.021,0.019c-0.031,0.025-0.06,0.052-0.09,0.077
			c-0.066,0.053-0.138,0.101-0.207,0.152c0.012-0.009,0.022-0.021,0.035-0.029c0.002-0.002,0.004-0.004,0.006-0.006
			c0.252-0.19,0.492-0.394,0.719-0.613c0.009-0.009,0.02-0.016,0.029-0.024c0.012-0.011,0.025-0.02,0.036-0.031
			C298.505,433.296,298.395,433.395,298.283,433.493z M444.758,307.392l-110.549,80.311l98.695-126.458l13.411,41.304
			C446.897,304.344,446.271,306.292,444.758,307.392z"/>
		<g>
			<path id="path14_9_" class="st12" d="M839.7,198.192h-21.8l0.1,162.5h88.3v-20.1h-66.5L839.7,198.192L839.7,198.192z"/>
			<g id="g24_9_" transform="translate(977.327440, 143.284396)">
				<path id="path26_9_" class="st12" d="M13,188.892c-5.5,5.7-14.6,11.4-27,11.4c-16.6,0-23.3-8.2-23.3-18.9
					c0-16.1,11.2-23.8,35-23.8c4.5,0,11.7,0.5,15.4,1.2v30.1H13z M-9.6,90.392c-17.6,0-33.8,6.2-46.4,16.7l7.7,13.4
					c8.9-5.2,19.8-10.4,35.5-10.4c17.9,0,25.8,9.2,25.8,24.6v7.9c-3.5-0.7-10.7-1.2-15.1-1.2c-38.2,0-57.6,13.4-57.6,41.4
					c0,25.1,15.4,37.7,38.7,37.7c15.7,0,30.8-7.2,36-18.9l4,15.9h15.4v-83.2C34.3,107.992,22.9,90.392-9.6,90.392L-9.6,90.392z"/>
			</g>
			<g id="g28_9_" transform="translate(1099.766904, 143.128930)">
				<path id="path30_9_" class="st12" d="M-17.7,201.192c-8.2,0-15.4-1-20.8-3.5v-67.3v-7.8c7.4-6.2,16.6-10.7,28.3-10.7
					c21.1,0,29.2,14.9,29.2,39C19,185.092,5.9,201.192-17.7,201.192 M-8.5,90.592c-19.5,0-30,13.3-30,13.3v-21l-0.1-27.8h-9.8h-11.5
					l0.1,158.5c10.7,4.5,25.3,6.9,41.2,6.9c40.7,0,60.3-26,60.3-70.9C41.6,114.092,23.5,90.592-8.5,90.592"/>
			</g>
			<g id="g32_9_" transform="translate(584.042117, 143.630796)">
				<path id="path34_9_" class="st12" d="M18.3,72.192c19.3,0,31.8,6.4,39.9,12.9l9.4-16.3c-12.7-11.2-29.9-17.2-48.3-17.2
					c-46.4,0-78.9,28.3-78.9,85.4c0,59.8,35.1,83.1,75.2,83.1c20.1,0,37.2-4.7,48.4-9.4l-0.5-63.9v-7.5v-12.6H4v20.1h38l0.5,48.5
					c-5,2.5-13.6,4.5-25.3,4.5c-32.2,0-53.8-20.3-53.8-63C-36.7,93.292-14.4,72.192,18.3,72.192"/>
			</g>
			<g id="g36_9_" transform="translate(793.569045, 142.577463)">
				<path id="path38_9_" class="st12" d="M-37.7,55.592H-59l0.1,27.3v11.2v6.5v11.4v65v0.2c0,26.3,11.4,43.9,43.9,43.9
					c4.5,0,8.9-0.4,13.1-1.2v-19.1c-3.1,0.5-6.4,0.7-9.9,0.7c-17.9,0-25.8-9.2-25.8-24.6v-65h35.7v-17.8h-35.7L-37.7,55.592
					L-37.7,55.592z"/>
			</g>
			<path id="path40_28_" class="st12" d="M680.4,360.692h21.3v-124h-21.3V360.692L680.4,360.692z"/>
			<path id="path42_9_" class="st12" d="M680.4,219.592h21.3v-21.3h-21.3V219.592L680.4,219.592z"/>
		</g>
	</g>
</g>
<g id="spacing_guides" xmlns:sketch="http://www.bohemiancoding.com/sketch/ns" class="st14">
	<path id="path40_111_" sketch:type="MSShapeGroup" class="st15" d="M-1,0v124h1268V0H-1L-1,0z"/>
	<path id="path40_110_" sketch:type="MSShapeGroup" class="st15" d="M-1,435v124h1268V435H-1L-1,435z"/>
	<path id="path40_104_" sketch:type="MSShapeGroup" class="st15" d="M261.69,434.551h62v-310h-62V434.551L261.69,434.551z"/>
	<path id="path40_103_" sketch:type="MSShapeGroup" class="st15" d="M462.2,560h62V-1h-62V560L462.2,560z"/>
	<text transform="matrix(1 0 0 1 256.2529 195)" class="st16 st17 st18">H: 2.5 x</text>
	<text transform="matrix(1 0 0 1 468.4727 282.832)" class="st16 st17 st18">1/2 x</text>
	<text transform="matrix(1 0 0 1 621.2881 500.4978)" class="st16 st17 st18">1x</text>
	<text transform="matrix(1 0 0 1 621.2881 65.4988)" class="st16 st17 st18">1x</text>
	<path id="path40_102_" sketch:type="MSShapeGroup" class="st15" d="M0,560h124V-1H0V560L0,560z"/>
	<text transform="matrix(1 0 0 1 51.2881 282.832)" class="st16 st17 st18">1x</text>
	<path id="path40_101_" sketch:type="MSShapeGroup" class="st15" d="M1142,560h124V-1h-124V560L1142,560z"/>
	<text transform="matrix(1 0 0 1 1191.2881 282.832)" class="st16 st17 st18">1x</text>
</g>
</svg>
