<svg id="Layer_1" data-name="Layer 1" xmlns="http://www.w3.org/2000/svg" viewBox="0 0 76 76"><path d="M74.5,73H56.1V27.9H68V66.2a1.5,1.5,0,0,0,3,0V26.4a1.5,1.5,0,0,0-1.5-1.5H54.6a1.5,1.5,0,0,0-1.5,1.5V73H32V41.18H44v25a1.5,1.5,0,0,0,3,0V39.68a1.5,1.5,0,0,0-1.5-1.5H30.54a1.5,1.5,0,0,0-1.5,1.5V73H8V34.54H19.9V66.19a1.5,1.5,0,0,0,3,0V33a1.5,1.5,0,0,0-1.5-1.5H6.48A1.5,1.5,0,0,0,5,33V73H1.5a1.5,1.5,0,0,0,0,3h73a1.5,1.5,0,0,0,0-3Z" fill="#ac7fff"/><path d="M1.5,17.08h7a5.64,5.64,0,0,0,10.29,1.38l13.56,3.75h0a5.65,5.65,0,0,0,11.3,0,5.58,5.58,0,0,0-.16-1.3l14.57-8a5.65,5.65,0,0,0,9.44-2.48h7a1.5,1.5,0,0,0,0-3h-7a5.64,5.64,0,0,0-10.91,2.87l-14.54,8a5.63,5.63,0,0,0-8.89,1L19.59,15.57A5.65,5.65,0,0,0,8.5,14.08h-7a1.5,1.5,0,1,0,0,3ZM62.06,6.31A2.65,2.65,0,1,1,59.41,9,2.65,2.65,0,0,1,62.06,6.31ZM38,19.57a2.64,2.64,0,0,1,2.28,1.33l0,.05a.05.05,0,0,0,0,0,2.56,2.56,0,0,1,.32,1.23A2.65,2.65,0,1,1,38,19.57ZM13.94,12.93a2.65,2.65,0,1,1-2.65,2.65A2.65,2.65,0,0,1,13.94,12.93Z" fill="#ac7fff"/></svg>