<svg id="Layer_1" data-name="Layer 1" xmlns="http://www.w3.org/2000/svg" viewBox="0 0 76 76"><path d="M69.11,55.17a1.5,1.5,0,0,0-1.5,1.5V69.52A3.48,3.48,0,0,1,64.13,73H11.87a3.48,3.48,0,0,1-3.48-3.48V56.67a1.5,1.5,0,0,0-3,0V69.52A6.48,6.48,0,0,0,11.87,76H64.13a6.48,6.48,0,0,0,6.48-6.48V56.67A1.5,1.5,0,0,0,69.11,55.17Z" fill="#ac7fff"/><path d="M6.89,26.76H69.11a1.5,1.5,0,0,0,1.5-1.5v-8a6.48,6.48,0,0,0-6.48-6.48H11.87a6.48,6.48,0,0,0-6.48,6.48v8A1.5,1.5,0,0,0,6.89,26.76Zm1.5-9.5a3.48,3.48,0,0,1,3.48-3.48H64.13a3.48,3.48,0,0,1,3.48,3.48v6.5H8.39Z" fill="#ac7fff"/><path d="M74.5,46.87H70.61V33.56a1.5,1.5,0,0,0-3,0V46.87H60.44A5.66,5.66,0,0,0,55,42.72a5.54,5.54,0,0,0-2.24.47l-7.93-9.84a1.5,1.5,0,0,0-2.55.38L31.9,59.51l-6.32-7.85a5.58,5.58,0,0,0,1.07-3.29,5.65,5.65,0,0,0-11.09-1.5H8.39V33.56a1.5,1.5,0,0,0-3,0V46.87H1.5a1.5,1.5,0,0,0,0,3H15.56A5.66,5.66,0,0,0,21,54a5.54,5.54,0,0,0,2.24-.47l7.93,9.84a1.46,1.46,0,0,0,1.16.56l.22,0A1.52,1.52,0,0,0,33.73,63L44.1,37.23l6.32,7.85a5.58,5.58,0,0,0-1.07,3.29,5.65,5.65,0,0,0,11.09,1.5H74.5a1.5,1.5,0,0,0,0-3Zm-56.15,1.5A2.65,2.65,0,1,1,21,51,2.65,2.65,0,0,1,18.35,48.37ZM55,51a2.65,2.65,0,1,1,2.65-2.65A2.65,2.65,0,0,1,55,51Z" fill="#ac7fff"/></svg>