<svg id="Layer_1" data-name="Layer 1" xmlns="http://www.w3.org/2000/svg" viewBox="0 0 76 76"><path d="M76,42.47a5.65,5.65,0,1,0-7.15,5.44V73H7.15V52.64a1.5,1.5,0,0,0-3,0V74.5A1.5,1.5,0,0,0,5.65,76h64.7a1.5,1.5,0,0,0,1.5-1.5V47.91A5.65,5.65,0,0,0,76,42.47Zm-5.65,2.65A2.65,2.65,0,1,1,73,42.47,2.65,2.65,0,0,1,70.35,45.12Z" fill="#ac7fff"/><path d="M11.3,40.19a5.65,5.65,0,0,0-4.15-5.44V9.64h61.7V30a1.5,1.5,0,0,0,3,0V8.14a1.5,1.5,0,0,0-1.5-1.5H5.65a1.5,1.5,0,0,0-1.5,1.5V34.75a5.65,5.65,0,1,0,7.15,5.44Zm-8.3,0a2.65,2.65,0,1,1,2.65,2.65A2.65,2.65,0,0,1,3,40.19Z" fill="#ac7fff"/><path d="M47.19,49.2a1.47,1.47,0,0,0,1.06.44,1.45,1.45,0,0,0,1.06-.44l6.81-6.81a1.5,1.5,0,0,0,0-2.12l-6.81-6.81a1.49,1.49,0,0,0-2.12,0,1.51,1.51,0,0,0,0,2.12l5.75,5.75-5.75,5.75A1.51,1.51,0,0,0,47.19,49.2Z" fill="#ac7fff"/><path d="M28.81,33.46a1.5,1.5,0,0,0-2.13,0l-6.81,6.81a1.5,1.5,0,0,0,0,2.12l6.81,6.81a1.51,1.51,0,0,0,2.13,0,1.51,1.51,0,0,0,0-2.12l-5.76-5.75,5.76-5.75A1.51,1.51,0,0,0,28.81,33.46Z" fill="#ac7fff"/><path d="M40.43,29.71,32.73,52a1.5,1.5,0,0,0,.93,1.9,1.41,1.41,0,0,0,.49.09,1.51,1.51,0,0,0,1.42-1l7.7-22.27a1.5,1.5,0,1,0-2.84-1Z" fill="#ac7fff"/></svg>