<svg id="Layer_1" data-name="Layer 1" xmlns="http://www.w3.org/2000/svg" viewBox="0 0 76 76"><path d="M74.5,58.39H56.61a5.64,5.64,0,0,0-10.88,0H27.22a4.92,4.92,0,1,1,0-9.84H48.08a7.92,7.92,0,0,0,0-15.84l-18.52-.08a5.64,5.64,0,0,0-10.88,0H8.34V19.89a3.48,3.48,0,0,1,3.48-3.48h5.6v4.31a1.5,1.5,0,0,0,1.5,1.5h6.34a1.5,1.5,0,0,0,1.5-1.5V16.41H51.45v4.31a1.5,1.5,0,0,0,1.5,1.5h6.34a1.5,1.5,0,0,0,1.5-1.5V16.41h4.29a3.48,3.48,0,0,1,3.47,3.48V51.58a1.5,1.5,0,0,0,3,0V19.89a6.48,6.48,0,0,0-6.47-6.48H60.79V9.1a1.5,1.5,0,0,0-1.5-1.5H53a1.5,1.5,0,0,0-1.5,1.5v4.31H26.76V9.1a1.5,1.5,0,0,0-1.5-1.5H18.92a1.5,1.5,0,0,0-1.5,1.5v4.31h-5.6a6.49,6.49,0,0,0-6.48,6.48V32.62H1.5a1.5,1.5,0,0,0,0,3H18.68a5.64,5.64,0,0,0,10.88,0l18.52.08a4.92,4.92,0,0,1,0,9.84H27.22a7.92,7.92,0,1,0,0,15.84H45.73a5.64,5.64,0,0,0,10.88,0H68.55v8.13A3.48,3.48,0,0,1,65.08,73H11.82a3.48,3.48,0,0,1-3.48-3.48v-27a1.5,1.5,0,0,0-3,0v27A6.49,6.49,0,0,0,11.82,76H65.08a6.48,6.48,0,0,0,6.47-6.48V61.39h3a1.5,1.5,0,0,0,0-3Zm-20-47.79h3.34v8.62H54.45Zm-30.69,0v8.62H20.42v-4.3h0V10.6Zm.36,26.17a2.65,2.65,0,1,1,2.65-2.65A2.65,2.65,0,0,1,24.12,36.77ZM51.17,62.53a2.65,2.65,0,1,1,2.65-2.64A2.64,2.64,0,0,1,51.17,62.53Z" fill="#ac7fff"/></svg>