<svg width="461" height="315" viewBox="0 0 461 315" fill="none" xmlns="http://www.w3.org/2000/svg">
<path d="M108.617 103.038V63.9969L114.073 63.8174C155.452 62.4687 185.631 49.392 203.662 38.6587C215.339 31.7101 223.836 24.6589 228.913 19.9718L232.738 16.4334L236.564 19.9718C241.641 24.664 250.138 31.7101 261.815 38.6587C279.851 49.392 310.03 62.4687 351.404 63.8174L356.86 63.9969V103.038H367.327V53.3458L362.004 53.4329C360.763 53.4535 359.532 53.4637 358.301 53.4637C324.773 53.4637 294.42 45.6382 268.082 30.2024C248.348 18.6385 237.933 6.59244 236.908 5.37707L232.749 0.689941L228.395 5.56168C226.641 7.60268 216.298 19.1154 197.38 30.2024C171.042 45.6382 140.678 53.4637 107.135 53.4637C105.914 53.4637 104.689 53.4535 103.458 53.4329L98.1348 53.3458V103.038H108.601H108.617Z" fill="url(#paint0_linear_1300_4640)"/>
<path d="M340.337 223.446C331.63 239.831 319.614 254.677 304.584 267.333C289.035 280.425 268.123 291.117 234.646 303.081L232.749 303.758L230.851 303.081C197.38 291.117 176.462 280.425 160.914 267.333C145.878 254.672 133.868 239.826 125.16 223.446H113.391C122.863 242.944 136.596 260.538 154.175 275.338C171.221 289.692 194.206 301.327 231.015 314.24L232.749 314.845L234.482 314.24C271.297 301.327 294.276 289.692 311.327 275.338C328.907 260.538 342.64 242.938 352.112 223.446H340.342H340.337Z" fill="url(#paint1_linear_1300_4640)"/>
<path d="M367.742 91.1966C357.906 87.0684 347.107 84.7864 335.773 84.7864C330.061 84.7864 324.481 85.3659 319.097 86.4735C306.984 88.9556 295.84 94.0837 286.292 101.227C286.138 101.34 257.297 123.16 232.749 141.74C208.195 123.16 179.36 101.34 179.206 101.227C169.662 94.0786 158.514 88.9504 146.401 86.4735C141.011 85.371 135.437 84.7864 129.724 84.7864C118.391 84.7864 107.591 87.0684 97.7555 91.1966C67.9609 103.709 47.033 133.186 47.033 167.555C47.033 201.924 67.9763 231.416 97.7914 243.923C107.617 248.041 118.407 250.318 129.729 250.318C148.17 250.318 165.206 244.277 178.96 234.067L232.754 193.354L286.553 234.067C300.307 244.282 317.343 250.318 335.784 250.318C347.101 250.318 357.896 248.041 367.722 243.923C397.537 231.416 418.48 201.934 418.48 167.555C418.48 133.176 397.552 103.709 367.758 91.1966H367.742ZM152.873 201.883C146.273 206.334 138.329 208.934 129.776 208.934C106.94 208.934 88.4222 190.406 88.4222 167.555C88.4222 144.704 106.935 126.171 129.776 126.171C139.858 126.171 149.093 129.781 156.268 135.781L161.206 139.478L198.58 167.585L152.873 201.883ZM335.722 208.934C327.168 208.934 319.22 206.334 312.625 201.883L266.918 167.585L309.23 135.781C316.404 129.781 325.645 126.171 335.722 126.171C358.558 126.171 377.075 144.699 377.075 167.555C377.075 190.411 358.563 208.934 335.722 208.934Z" fill="url(#paint2_linear_1300_4640)"/>
<g opacity="0.7">
<path d="M336.804 292.328L336.722 281.112C337.101 281.112 337.481 281.102 337.86 281.097L338.071 292.307C337.65 292.317 337.23 292.323 336.809 292.323L336.804 292.328ZM346.014 291.912L345.101 280.738C345.481 280.707 345.86 280.676 346.24 280.641L347.265 291.805C346.85 291.846 346.43 291.882 346.009 291.912H346.014ZM355.163 290.825L353.44 279.743C353.814 279.687 354.188 279.625 354.563 279.564L356.414 290.62C355.999 290.692 355.583 290.758 355.163 290.82V290.825ZM364.219 289.061L361.67 278.143C362.04 278.056 362.409 277.969 362.778 277.877L365.445 288.769C365.034 288.866 364.629 288.969 364.219 289.061ZM373.122 286.63L369.757 275.933C370.122 275.82 370.486 275.702 370.85 275.584L374.316 286.246C373.916 286.374 373.522 286.502 373.122 286.63ZM381.814 283.543L377.665 273.128C378.019 272.984 378.373 272.846 378.727 272.697L382.978 283.071C382.588 283.23 382.203 283.389 381.814 283.543ZM390.239 279.825L385.332 269.743C385.675 269.579 386.014 269.41 386.352 269.241L391.362 279.271C390.988 279.456 390.614 279.641 390.234 279.825H390.239ZM398.362 275.492L392.726 265.8C393.055 265.61 393.383 265.415 393.711 265.22L399.449 274.856C399.09 275.071 398.726 275.282 398.367 275.492H398.362ZM406.147 270.569L399.808 261.318C400.121 261.102 400.439 260.882 400.752 260.666L407.172 269.856C406.829 270.097 406.485 270.333 406.142 270.569H406.147ZM413.547 265.087L406.552 256.323C406.849 256.087 407.147 255.846 407.439 255.605L414.526 264.292C414.203 264.559 413.875 264.82 413.547 265.082V265.087ZM420.531 259.072L412.911 250.846C413.188 250.59 413.47 250.328 413.747 250.067L421.449 258.215C421.147 258.502 420.839 258.79 420.531 259.077V259.072ZM427.054 252.559L418.849 244.918C419.111 244.641 419.367 244.359 419.624 244.077L427.911 251.631C427.629 251.943 427.341 252.251 427.054 252.559ZM433.085 245.59L424.347 238.564C424.582 238.267 424.818 237.969 425.054 237.672L433.87 244.6C433.608 244.933 433.346 245.262 433.085 245.59ZM438.593 238.185L429.357 231.831C429.572 231.518 429.788 231.2 430.003 230.882L439.305 237.144C439.069 237.492 438.834 237.841 438.598 238.185H438.593ZM443.536 230.395L433.854 224.734C434.049 224.405 434.239 224.072 434.423 223.744L444.162 229.298C443.952 229.662 443.741 230.026 443.531 230.39L443.536 230.395ZM447.895 222.252L437.818 217.334C437.987 216.99 438.152 216.646 438.316 216.298L448.439 221.113C448.259 221.493 448.075 221.872 447.89 222.246L447.895 222.252ZM451.639 213.811L441.223 209.652C441.367 209.298 441.505 208.939 441.644 208.585L452.1 212.636C451.946 213.026 451.792 213.421 451.639 213.811ZM454.741 205.108L444.049 201.739C444.162 201.375 444.28 201.006 444.387 200.642L455.115 203.908C454.992 204.313 454.869 204.713 454.741 205.113V205.108ZM457.187 196.211L446.275 193.642C446.362 193.272 446.449 192.898 446.531 192.529L457.474 194.98C457.382 195.39 457.29 195.801 457.192 196.211H457.187ZM458.962 187.16L447.885 185.411C447.946 185.031 448.003 184.657 448.059 184.278L459.151 185.919C459.09 186.334 459.028 186.749 458.962 187.16ZM460.064 178.011L448.89 177.078C448.921 176.698 448.951 176.319 448.977 175.934L460.162 176.755C460.131 177.175 460.1 177.59 460.064 178.011ZM460.49 168.806L449.28 168.693C449.28 168.314 449.285 167.929 449.285 167.55H460.5C460.5 167.97 460.5 168.391 460.495 168.806H460.49Z" fill="url(#paint3_linear_1300_4640)"/>
</g>
<g opacity="0.7">
<path d="M36.2432 255.026C35.9509 254.728 35.6637 254.431 35.3714 254.133L43.438 246.344C43.7047 246.621 43.9713 246.897 44.2431 247.169L36.2432 255.026ZM30.033 248.231C29.7612 247.913 29.4946 247.59 29.2228 247.267L37.8432 240.092C38.0893 240.385 38.3355 240.677 38.5816 240.969L30.033 248.226V248.231ZM24.3254 240.985C24.0792 240.646 23.8382 240.308 23.5921 239.969L32.715 233.451C32.9355 233.759 33.1612 234.072 33.3868 234.38L24.3254 240.985ZM19.1767 233.344C18.9562 232.99 18.7357 232.631 18.5203 232.277L28.1048 226.457C28.3048 226.78 28.4997 227.108 28.7048 227.431L19.1767 233.349V233.344ZM14.6075 225.339C14.4127 224.969 14.2229 224.595 14.0332 224.226L24.0228 219.134C24.1972 219.472 24.3715 219.811 24.5459 220.149L14.6075 225.344V225.339ZM10.6435 217.016C10.4794 216.631 10.3153 216.247 10.1512 215.862L20.4946 211.529C20.6434 211.877 20.7921 212.231 20.9408 212.58L10.6435 217.021V217.016ZM7.31018 208.421C7.17172 208.026 7.03839 207.631 6.90506 207.231L17.5357 203.672C17.6588 204.036 17.7819 204.395 17.9049 204.754L7.30505 208.416L7.31018 208.421ZM4.62303 199.606C4.51534 199.201 4.40765 198.795 4.30509 198.385L15.1716 195.626C15.2639 195.995 15.3614 196.365 15.4588 196.729L4.62303 199.606ZM2.59228 190.616C2.51536 190.201 2.43844 189.79 2.36665 189.375L13.4075 187.426C13.4742 187.801 13.5409 188.175 13.6127 188.549L2.59228 190.621V190.616ZM1.2282 181.493C1.18204 181.078 1.13589 180.662 1.09487 180.247L12.2486 179.108C12.2896 179.488 12.3255 179.867 12.3717 180.252L1.2282 181.493ZM0.541025 172.298C0.525641 171.883 0.510256 171.462 0.5 171.047L11.7101 170.729C11.7204 171.114 11.7358 171.493 11.746 171.878L0.541025 172.298ZM11.7358 163.478L0.530769 163.078C0.546153 162.657 0.561538 162.242 0.58205 161.821L11.7819 162.334C11.7665 162.714 11.7512 163.098 11.7358 163.478ZM12.3409 155.109L1.19743 153.883C1.24358 153.468 1.28973 153.052 1.34102 152.637L12.4742 153.97C12.4281 154.35 12.387 154.729 12.3409 155.114V155.109ZM13.5614 146.796L2.53587 144.765C2.6128 144.35 2.68972 143.94 2.77177 143.524L13.7768 145.678C13.705 146.052 13.6332 146.427 13.5614 146.801V146.796ZM15.3921 138.606L4.54611 135.765C4.6538 135.36 4.76149 134.95 4.87431 134.545L15.6896 137.504C15.587 137.873 15.4896 138.237 15.3921 138.606ZM17.8229 130.571L7.21787 126.935C7.35633 126.535 7.49479 126.14 7.63325 125.74L18.2024 129.489C18.0742 129.847 17.9511 130.206 17.828 130.565L17.8229 130.571ZM20.8434 122.74L10.5358 118.319C10.6999 117.935 10.8691 117.545 11.0383 117.16L21.2946 121.689C21.1408 122.037 20.987 122.386 20.8382 122.74H20.8434ZM24.4382 115.15L14.4896 109.981C14.6845 109.607 14.8793 109.232 15.0793 108.863L24.9715 114.14C24.792 114.478 24.6126 114.812 24.4382 115.15ZM28.5869 107.853L19.0536 101.95C19.2742 101.591 19.4998 101.238 19.7203 100.884L29.1971 106.878C28.992 107.202 28.7869 107.525 28.5869 107.853ZM33.2689 100.879L24.1972 94.2889C24.4433 93.9504 24.6946 93.612 24.9459 93.2735L33.9509 99.9555C33.7201 100.263 33.4945 100.571 33.2689 100.884V100.879ZM38.4586 94.2684L29.8997 87.0223C30.1715 86.7044 30.4433 86.3813 30.7202 86.0633L39.2073 93.3915C38.956 93.6838 38.7047 93.9709 38.4586 94.2684ZM44.12 88.0531L36.115 80.2019C36.4073 79.9044 36.7047 79.607 36.997 79.3096L44.9251 87.2377C44.6534 87.5095 44.3867 87.7813 44.12 88.0531Z" fill="url(#paint4_linear_1300_4640)"/>
</g>
<g opacity="0.15">
<path d="M335.773 272.882C313.004 272.882 291.333 265.723 273.092 252.18L273.035 252.138L232.744 221.652L192.37 252.205C174.149 265.733 152.488 272.882 129.719 272.882C115.632 272.882 101.95 270.138 89.058 264.733C49.8174 248.272 24.4639 210.129 24.4639 167.555C24.4639 124.981 49.802 86.8583 89.017 70.3918C101.94 64.9713 115.632 62.2227 129.724 62.2227C136.847 62.2227 143.98 62.9457 150.929 64.3662C166.088 67.4739 180.078 73.7405 192.508 83.0019L192.744 83.1814C193.482 83.7404 197.236 86.5762 232.749 113.448C267.733 86.9762 271.994 83.7557 272.764 83.1763C285.261 73.8174 299.322 67.4944 314.568 64.3714C321.517 62.9457 328.65 62.2278 335.773 62.2278C349.86 62.2278 363.558 64.9765 376.47 70.3969C415.69 86.8685 441.028 125.007 441.028 167.56C441.028 210.113 415.675 248.272 376.434 264.733C363.537 270.143 349.855 272.887 335.768 272.887L335.773 272.882ZM282.292 239.851C297.851 251.395 316.343 257.497 335.773 257.497C347.804 257.497 359.486 255.159 370.486 250.544C403.993 236.487 425.644 203.913 425.644 167.555C425.644 131.196 404.003 98.6376 370.516 84.5763C359.496 79.9507 347.804 77.6071 335.773 77.6071C329.686 77.6071 323.589 78.2225 317.655 79.4379C304.645 82.1045 292.651 87.4993 281.999 95.4736C281.24 96.0428 276.83 99.3812 239.867 127.35L232.749 132.735L225.631 127.35C188.118 98.9607 184.236 96.0325 183.483 95.4633L183.308 95.33C172.703 87.4326 160.77 82.084 147.842 79.4379C141.909 78.2225 135.811 77.6071 129.724 77.6071C117.688 77.6071 105.996 79.9507 94.9708 84.5763C61.484 98.6376 39.8483 131.207 39.8483 167.55C39.8483 203.893 61.4994 236.482 95.0118 250.538C106.012 255.154 117.694 257.492 129.724 257.492C149.155 257.492 167.637 251.395 183.18 239.862L232.749 202.349L282.292 239.841V239.851Z" fill="url(#paint5_linear_1300_4640)"/>
</g>
<path opacity="0.35" d="M335.773 253.908C317.127 253.908 299.379 248.051 284.44 236.975L232.749 197.857L181.021 237.005C166.119 248.056 148.37 253.913 129.724 253.913C118.17 253.913 106.96 251.667 96.4015 247.236C64.2275 233.739 43.4431 202.462 43.4431 167.555C43.4431 132.647 64.2172 101.386 96.3656 87.889C106.945 83.448 118.17 81.1968 129.724 81.1968C135.57 81.1968 141.427 81.7865 147.124 82.9557C159.529 85.4993 170.98 90.6274 181.16 98.2068L181.324 98.3299C182.072 98.894 185.944 101.817 223.467 130.212L232.749 137.237L242.031 130.212C279.994 101.484 283.44 98.8786 284.169 98.3299C294.379 90.6839 305.886 85.5096 318.373 82.9506C324.071 81.7814 329.922 81.1917 335.773 81.1917C347.327 81.1917 358.552 83.4429 369.132 87.8788C401.28 101.381 422.059 132.653 422.059 167.545C422.059 202.436 401.27 233.728 369.101 247.226C358.542 251.656 347.327 253.903 335.778 253.903L335.773 253.908Z" stroke="url(#paint6_linear_1300_4640)" stroke-width="14" stroke-miterlimit="10"/>
<path d="M335.773 257.497C316.353 257.497 297.861 251.4 282.302 239.856L232.749 202.354L183.185 239.862C167.621 251.405 149.145 257.492 129.724 257.492C117.694 257.492 106.012 255.154 95.0119 250.538C61.5046 236.482 39.8484 203.908 39.8484 167.55C39.8484 131.191 61.484 98.6375 94.9709 84.571C105.996 79.9454 117.683 77.6018 129.719 77.6018C135.806 77.6018 141.904 78.2172 147.837 79.4326C160.76 82.0787 172.688 87.4273 183.298 95.3196L183.488 95.4631C184.237 96.0272 188.119 98.9606 225.631 127.345L232.749 132.729L239.867 127.345C277.815 98.6323 281.271 96.017 282.015 95.458C292.661 87.4889 304.651 82.0992 317.661 79.4326C323.594 78.2172 329.691 77.6018 335.778 77.6018C347.814 77.6018 359.501 79.9454 370.527 84.571C404.014 98.6323 425.654 131.206 425.654 167.55C425.654 203.893 404.003 236.482 370.496 250.538C359.496 255.154 347.814 257.492 335.784 257.492L335.773 257.497ZM232.749 193.354L286.61 234.113C300.897 244.708 317.907 250.318 335.778 250.318C346.85 250.318 357.599 248.164 367.717 243.923C398.552 230.99 418.475 201.011 418.475 167.555C418.475 134.099 398.562 104.135 367.747 91.1965C357.609 86.9453 346.855 84.7863 335.778 84.7863C330.173 84.7863 324.563 85.3556 319.102 86.4735C307.138 88.9248 296.112 93.8837 286.328 101.212C285.62 101.745 282.066 104.432 244.205 133.083L232.754 141.745L221.303 133.083C183.796 104.704 179.919 101.771 179.165 101.207L178.99 101.078C169.257 93.8375 158.283 88.9196 146.401 86.4838C140.94 85.3658 135.329 84.7966 129.724 84.7966C118.648 84.7966 107.894 86.9555 97.7554 91.2068C66.9404 104.145 47.0329 134.119 47.0329 167.565C47.0329 201.011 66.9558 231 97.7913 243.933C107.909 248.179 118.653 250.328 129.724 250.328C147.591 250.328 164.591 244.728 178.883 234.128L232.749 193.365V193.354Z" fill="url(#paint7_linear_1300_4640)"/>
<g style="mix-blend-mode:multiply" opacity="0.6">
<path d="M144.56 128.899C143.811 128.617 143.042 128.335 142.278 128.099L135.606 98.6067L163.985 92.1863C165.016 92.6427 165.98 93.1299 166.96 93.617L138.057 100.155L144.56 128.899Z" fill="#5829C8" fill-opacity="0.5"/>
<path d="M53.3865 199.452C53.0326 198.616 52.6942 197.775 52.3711 196.934L80.1759 206.472L89.8322 178.324C89.9399 178.693 90.4732 180.57 90.8681 181.621L81.4477 209.077L53.3813 199.447L53.3865 199.452Z" fill="#5829C8" fill-opacity="0.5"/>
<path d="M199.288 189.144H169.847L172.58 187.093H201.339V217.123L199.288 218.672V189.144Z" fill="#5829C8" fill-opacity="0.5"/>
<path d="M196.846 166.273L231.015 140.432L232.743 141.745L198.554 167.555L196.846 166.273Z" fill="#5829C8" fill-opacity="0.5"/>
<path d="M232.743 193.38L266.912 167.585L268.589 168.842L234.446 194.667L232.743 193.38Z" fill="#5829C8" fill-opacity="0.5"/>
<path d="M265.589 218.211L262.502 189.021L291.404 185.96L293.814 187.77L264.753 190.842L267.83 219.908L265.589 218.211Z" fill="#5829C8" fill-opacity="0.5"/>
<path d="M374.911 180.78C375.291 179.703 375.598 178.503 375.896 177.375L385.429 204.683L413.906 194.744C413.608 195.596 413.3 196.426 412.983 197.237L384.162 207.298L374.906 180.78H374.911Z" fill="#5829C8" fill-opacity="0.5"/>
<path d="M315.061 105.678L284.738 102.402C285.43 101.878 286.702 100.914 287.143 100.596L317.317 103.858L314.255 132.17C313.517 132.611 312.773 133.114 312.035 133.622L315.055 105.673L315.061 105.678Z" fill="#5829C8" fill-opacity="0.5"/>
</g>
<path d="M248.195 68.8019L248.148 68.689L243.805 57.361C243.718 57.1405 243.564 56.9507 243.359 56.8225C243.159 56.6943 242.918 56.6328 242.677 56.643C242.436 56.6533 242.205 56.7456 242.02 56.8943C241.836 57.043 241.697 57.2481 241.636 57.4789L238.702 66.4532H226.841L223.908 57.4789C223.846 57.2481 223.708 57.043 223.523 56.8943C223.333 56.7456 223.108 56.6584 222.867 56.643C222.626 56.6328 222.39 56.6892 222.185 56.8225C221.98 56.9507 221.826 57.1405 221.739 57.361L217.395 68.689L217.349 68.8019C216.062 72.1557 217.159 75.9505 220.026 78.1197C220.031 78.1197 220.036 78.1248 220.041 78.13L220.077 78.1607L226.692 83.1094L229.964 85.5863L231.954 87.0888C232.436 87.4529 233.097 87.4529 233.574 87.0888L235.564 85.5863L238.836 83.1094L245.487 78.13C245.487 78.13 245.497 78.1197 245.502 78.1146C248.364 75.9454 249.461 72.1557 248.174 68.8019H248.195Z" fill="#FC6D26"/>
<defs>
<linearGradient id="paint0_linear_1300_4640" x1="164.898" y1="-2.66387" x2="300.589" y2="159.047" gradientUnits="userSpaceOnUse">
<stop stop-color="#F9A026" stop-opacity="0.1"/>
<stop offset="0.5" stop-color="#F9A026" stop-opacity="0.5"/>
<stop offset="0.77" stop-color="#7759BF" stop-opacity="0.5"/>
<stop offset="1" stop-color="#7759BF" stop-opacity="0.1"/>
</linearGradient>
<linearGradient id="paint1_linear_1300_4640" x1="181.667" y1="166.15" x2="288.999" y2="294.066" gradientUnits="userSpaceOnUse">
<stop stop-color="#F9A026" stop-opacity="0.1"/>
<stop offset="0.5" stop-color="#F9A026" stop-opacity="0.5"/>
<stop offset="0.77" stop-color="#7759BF" stop-opacity="0.5"/>
<stop offset="1" stop-color="#7759BF" stop-opacity="0.1"/>
</linearGradient>
<linearGradient id="paint2_linear_1300_4640" x1="232.744" y1="84.7864" x2="232.744" y2="250.318" gradientUnits="userSpaceOnUse">
<stop stop-color="#A686F2"/>
<stop offset="0.88" stop-color="#5829C8"/>
</linearGradient>
<linearGradient id="paint3_linear_1300_4640" x1="398.608" y1="292.328" x2="398.608" y2="167.555" gradientUnits="userSpaceOnUse">
<stop stop-color="#DD4329" stop-opacity="0.61"/>
<stop offset="0.74" stop-color="#FFC581"/>
</linearGradient>
<linearGradient id="paint4_linear_1300_4640" x1="-7.45916" y1="211.328" x2="80.7723" y2="123.096" gradientUnits="userSpaceOnUse">
<stop stop-color="#DD4329" stop-opacity="0.61"/>
<stop offset="0.74" stop-color="#FFC581"/>
</linearGradient>
<linearGradient id="paint5_linear_1300_4640" x1="24.4587" y1="167.555" x2="441.028" y2="167.555" gradientUnits="userSpaceOnUse">
<stop offset="0.33" stop-color="#10ACAC" stop-opacity="0.61"/>
<stop offset="0.91" stop-color="#6FD5C4"/>
</linearGradient>
<linearGradient id="paint6_linear_1300_4640" x1="39.8432" y1="167.555" x2="425.644" y2="167.555" gradientUnits="userSpaceOnUse">
<stop offset="0.33" stop-color="#10ACAC" stop-opacity="0.61"/>
<stop offset="0.91" stop-color="#6FD5C4"/>
</linearGradient>
<linearGradient id="paint7_linear_1300_4640" x1="232.744" y1="257.497" x2="232.744" y2="77.6069" gradientUnits="userSpaceOnUse">
<stop stop-color="#10AEAE" stop-opacity="0"/>
<stop offset="0.48" stop-color="#21B5B2" stop-opacity="0.8"/>
<stop offset="1" stop-color="#6FD7C6" stop-opacity="0"/>
</linearGradient>
</defs>
</svg>
