<svg id="Layer_1" data-name="Layer 1" xmlns="http://www.w3.org/2000/svg" viewBox="0 0 76 76"><path d="M71.55,43.52a5.65,5.65,0,0,0,0-11A33.89,33.89,0,0,0,43.7,4.61a5.65,5.65,0,0,0-11.1,0A33.89,33.89,0,0,0,4.76,32.43a5.64,5.64,0,0,0,0,11.14A33.69,33.69,0,0,0,17,64.46a1.49,1.49,0,0,0,2.1-.23,1.5,1.5,0,0,0-.23-2.11A30.7,30.7,0,0,1,7.75,43.24a5.64,5.64,0,0,0,0-10.47A30.84,30.84,0,0,1,32.87,7.63a5.63,5.63,0,0,0,10.56,0,30.85,30.85,0,0,1,25.09,25,5.63,5.63,0,0,0,0,10.67A31,31,0,0,1,38.15,68.85H11.09a5.65,5.65,0,1,0,0,3H38.15A34,34,0,0,0,71.55,43.52ZM5.65,40.65A2.65,2.65,0,1,1,8.3,38,2.65,2.65,0,0,1,5.65,40.65ZM38.15,8.3A2.65,2.65,0,1,1,40.8,5.65,2.65,2.65,0,0,1,38.15,8.3ZM67.7,38a2.65,2.65,0,1,1,2.65,2.65A2.65,2.65,0,0,1,67.7,38Zm-62,35A2.65,2.65,0,1,1,8.3,70.35,2.65,2.65,0,0,1,5.65,73Z" fill="#ac7fff"/><path d="M75.88,70.93s0-.07,0-.1a1.21,1.21,0,0,0,0-.18,1.53,1.53,0,0,0,0-.3,1.36,1.36,0,0,0,0-.29,1.21,1.21,0,0,0,0-.18.76.76,0,0,0,0-.11,1.4,1.4,0,0,0-.09-.17.59.59,0,0,1,0-.08,2.11,2.11,0,0,0-.19-.23h0l-4.15-4.15a1.5,1.5,0,1,0-2.12,2.13l1.59,1.58H59.16a1.5,1.5,0,0,0,0,3H70.88l-1.59,1.59A1.5,1.5,0,0,0,70.35,76a1.49,1.49,0,0,0,1.06-.44l4.15-4.15a2,2,0,0,0,.19-.22l0-.07A.69.69,0,0,0,75.88,70.93Z" fill="#ac7fff"/><path d="M35.25,46.15a1.49,1.49,0,0,0,1.07-.44l10-10a1.5,1.5,0,0,0-2.12-2.12l-8.93,8.92L32.12,39.4A1.5,1.5,0,0,0,30,41.52l4.19,4.19A1.48,1.48,0,0,0,35.25,46.15Z" fill="#ac7fff"/></svg>