<svg id="Layer_1" data-name="Layer 1" xmlns="http://www.w3.org/2000/svg" viewBox="0 0 76 76"><path d="M74.5,52.43H43.44a5.64,5.64,0,0,0-10.88,0H10.34V34.85H65.66V45.62a1.5,1.5,0,1,0,3,0V33.35a1.5,1.5,0,0,0-1.5-1.5h-6.1V23.06a23.06,23.06,0,0,0-46.12,0v8.79H8.84a1.5,1.5,0,0,0-1.5,1.5V52.43H1.5a1.5,1.5,0,0,0,0,3H32.56a5.64,5.64,0,0,0,10.88,0H65.66V73H10.34V62.23a1.5,1.5,0,0,0-3,0V74.5A1.5,1.5,0,0,0,8.84,76H67.16a1.5,1.5,0,0,0,1.5-1.5V55.43H74.5a1.5,1.5,0,0,0,0-3ZM17.94,23.06a20.06,20.06,0,0,1,40.12,0v8.79H17.94ZM38,56.57a2.65,2.65,0,1,1,2.65-2.64A2.65,2.65,0,0,1,38,56.57Z" fill="#ac7fff"/></svg>