<svg id="Layer_1" data-name="Layer 1" xmlns="http://www.w3.org/2000/svg" viewBox="0 0 76 76"><path d="M17.8,28.56a5.94,5.94,0,0,0-4-5.59,24.64,24.64,0,0,1,46.6-5.6,1.5,1.5,0,1,0,2.72-1.25A27.71,27.71,0,0,0,38,0a28.08,28.08,0,0,0-5.11.47A27.74,27.74,0,0,0,10.81,22.68s0,0,0,.05a5.93,5.93,0,0,0-4.66,4.33H1.5a1.5,1.5,0,0,0,0,3H6.14a5.93,5.93,0,0,0,11.66-1.5Zm-5.93,2.93a2.93,2.93,0,1,1,2.93-2.93A2.93,2.93,0,0,1,11.87,31.49Z" fill="#ac7fff"/><path d="M74.5,27.06H69.86A5.93,5.93,0,1,0,61.78,34a24.48,24.48,0,0,1-8.94,13.3,1.85,1.85,0,0,0-.48.35A24.64,24.64,0,0,1,16.69,40a1.5,1.5,0,0,0-2.6,1.51A27.67,27.67,0,0,0,52,51.49V72L38.73,64.64a1.51,1.51,0,0,0-1.46,0L24,72V57a1.5,1.5,0,0,0-3,0V74.5a1.49,1.49,0,0,0,.74,1.29,1.48,1.48,0,0,0,1.48,0L38,67.67l14.74,8.14a1.41,1.41,0,0,0,.72.19,1.45,1.45,0,0,0,.76-.21A1.49,1.49,0,0,0,55,74.5v-25a27.46,27.46,0,0,0,9.8-15,5.93,5.93,0,0,0,5.1-4.4H74.5a1.5,1.5,0,0,0,0-3ZM64.13,31.49a2.93,2.93,0,1,1,2.93-2.93A2.93,2.93,0,0,1,64.13,31.49Z" fill="#ac7fff"/><path d="M44,22.51,35.1,31.44,32,28.3a1.5,1.5,0,1,0-2.12,2.12L34,34.62a1.51,1.51,0,0,0,2.13,0l10-10A1.5,1.5,0,1,0,44,22.51Z" fill="#ac7fff"/></svg>