<svg width="191" height="72" viewBox="0 0 191 72" fill="none" xmlns="http://www.w3.org/2000/svg">
<g clip-path="url(#clip0_5157_14238)">
<path d="M27.0051 45.7856L21.5437 36.125L27.0051 26.4644H37.8778L43.3391 36.125L37.8778 45.7856H27.0051Z" stroke="white" stroke-width="2.7625"/>
<path d="M27.0051 69.1606L21.5437 59.5L27.0051 49.8394H37.8778L43.3391 59.5L37.8778 69.1606H27.0051Z" stroke="white" stroke-width="2.7625"/>
<path d="M27.0051 22.4106L21.5437 12.75L27.0051 3.08943H37.8778L43.3391 12.75L37.8778 22.4106H27.0051Z" stroke="white" stroke-width="2.7625"/>
<path d="M47.1965 57.4732L41.7351 47.8127L47.1965 38.1521H58.0692L63.5305 47.8127L58.0692 57.4732H47.1965Z" stroke="white" stroke-width="2.7625"/>
<path d="M47.1965 34.0981L41.7351 24.4375L47.1965 14.7769H58.0692L63.5305 24.4375L58.0692 34.0981H47.1965Z" stroke="white" stroke-width="2.7625"/>
<path d="M6.81756 57.4721L1.35622 47.8115L6.81755 38.1509H17.6903L23.1516 47.8115L17.6903 57.4721H6.81756Z" stroke="white" stroke-width="2.7625"/>
<path d="M6.81756 34.0981L1.35622 24.4375L6.81755 14.7769H17.6903L23.1516 24.4375L17.6903 34.0981H6.81756Z" stroke="white" stroke-width="2.7625"/>
<path d="M91.3274 24.6974C92.334 24.7044 93.337 24.8201 94.3197 25.0425C95.2512 25.2443 96.0386 25.6083 96.8037 25.993V28.9691C95.9525 28.6542 95.0857 28.3848 94.207 28.1619C93.3328 27.9601 92.5436 27.8168 91.6675 27.8168C90.7914 27.8168 89.9486 27.9601 89.0707 28.2204C88.1928 28.4806 87.4628 28.9691 86.729 29.6593C86.0526 30.3496 85.5147 31.2153 85.0656 32.3091C84.6701 33.403 84.4742 34.7571 84.4742 36.3979C84.4742 37.5295 84.6147 38.6611 84.9547 39.6795C85.2588 40.6271 85.7374 41.5066 86.3649 42.2709C86.9859 43.0196 87.7751 43.5665 88.6235 43.9682C89.555 44.3718 90.627 44.5717 91.8394 44.5717C92.7136 44.5717 93.5582 44.5152 94.5193 44.3134C95.3999 44.0973 96.267 43.8277 97.1161 43.5062V46.5011C96.8629 46.6444 96.5247 46.8462 96.1291 46.9914C95.7336 47.1367 95.2549 47.2498 94.7189 47.395C94.2384 47.5384 93.732 47.5968 93.111 47.6534L91.4476 47.7968C90.0356 47.8161 88.6312 47.5825 87.2983 47.1065C86.05 46.6371 84.8935 45.9448 83.8828 45.0621C82.8898 44.0603 82.1196 42.8524 81.6242 41.5202C81.0697 40.0812 80.75 38.465 80.75 36.4809C80.75 35.0419 80.8905 33.7463 81.2305 32.5958C81.4838 31.4642 81.907 30.4081 82.4448 29.5405C82.9827 28.673 83.5538 27.8997 84.2506 27.2774C84.9184 26.685 85.6575 26.1818 86.4499 25.7799C87.2391 25.3763 88.0579 25.0896 88.849 24.8878L91.333 24.6578L91.3274 24.6974ZM102.531 20.205V16.1728H106.043V20.205H102.531ZM102.587 47.246V25.3028H106.099V47.263L102.587 47.246ZM113.34 47.2649V13.8115H116.852V47.263L113.34 47.2649ZM124.017 20.205V16.1728H127.529V20.205H124.017ZM124.073 47.246V25.3028H127.584V47.263L124.073 47.246ZM143.198 47.8118C142.191 47.8133 141.187 47.6975 140.206 47.4667C139.388 47.2295 138.602 46.8913 137.864 46.4596C137.188 45.9692 136.594 45.5091 136.145 44.8188C135.655 44.2134 135.279 43.5201 135.036 42.7744C134.839 42.2086 134.698 41.6428 134.556 40.9318L134.415 38.7441V25.3254H137.927V38.7441C137.927 39.9832 138.067 41.0072 138.407 41.7994C138.746 42.7499 139.339 43.4402 140.126 43.9871C140.914 44.534 141.989 44.7943 143.202 44.7943C144.529 44.7943 145.601 44.5359 146.418 43.9022C147.209 43.2987 147.828 42.5481 148.137 41.5127C148.39 40.764 148.532 39.8153 148.532 38.7215V25.2933H152.044V38.7705C152.044 39.4545 151.997 40.1376 151.903 40.8149C151.848 41.4154 151.715 42.0059 151.508 42.5707C151.255 43.3195 150.831 44.0097 150.399 44.6736C149.918 45.2771 149.327 45.8052 148.68 46.3144C148.003 46.8047 147.212 47.1216 146.281 47.4082C145.278 47.6801 144.244 47.8158 143.205 47.8118H143.198ZM176.161 47.246H172.65V33.1182C172.652 32.2899 172.539 31.4655 172.311 30.6702C172.114 29.98 171.831 29.4311 171.437 29.0294C171.039 28.6131 170.558 28.2889 170.027 28.0789C169.473 27.8771 168.918 27.8205 168.221 27.8205C166.952 27.8205 165.822 28.1657 164.806 28.8276C163.819 29.5179 162.858 30.4684 162.07 31.6792V47.2875H158.572V25.3028H161.307L161.983 28.358H162.039L163.309 26.919C163.789 26.5154 164.296 26.1118 164.833 25.7874C165.41 25.4345 166.039 25.1815 166.696 25.0387C167.373 24.8369 168.107 24.7803 168.914 24.7803C170.522 24.7803 171.849 25.1839 172.921 25.9119C173.993 26.7191 174.784 27.7545 175.405 29.1086H175.461C176.392 27.7545 177.522 26.6607 178.732 25.9119C179.943 25.1632 181.412 24.7803 182.994 24.7803C183.728 24.7803 184.519 24.9237 185.393 25.1255C186.267 25.3273 187.001 25.729 187.735 26.2571C188.469 26.7851 189.005 27.6112 189.454 28.6466C189.934 29.6537 190.187 30.9512 190.187 32.592V47.3083H186.802V33.1691C186.804 32.3408 186.69 31.5164 186.463 30.7212C186.266 30.0309 185.983 29.4821 185.589 29.0804C185.191 28.664 184.71 28.3398 184.179 28.1298C183.624 27.928 183.07 27.8714 182.373 27.8714C181.103 27.8714 179.974 28.2166 178.958 28.8786C177.971 29.5688 177.01 30.5194 176.163 31.7301L176.161 47.246Z" fill="white"/>
</g>
<defs>
<clipPath id="clip0_5157_14238">
<rect width="191" height="72" fill="white"/>
</clipPath>
</defs>
</svg>
