<?xml version="1.0" encoding="UTF-8"?>
<!DOCTYPE svg PUBLIC "-//W3C//DTD SVG 1.1//EN" "http://www.w3.org/Graphics/SVG/1.1/DTD/svg11.dtd">
<!-- Creator: CorelDRAW X6 -->
<svg xmlns="http://www.w3.org/2000/svg" xml:space="preserve" width="1147px" height="410px" version="1.1" style="shape-rendering:geometricPrecision; text-rendering:geometricPrecision; image-rendering:optimizeQuality; fill-rule:evenodd; clip-rule:evenodd" viewBox="0 0 11348 4054" xmlns:xlink="http://www.w3.org/1999/xlink">
 <defs>
  <style type="text/css">
   <![CDATA[
    .fil0 {fill:white;fill-rule:nonzero}
   ]]>
  </style>
 </defs>
 <g id="Ebene_x0020_1">
  <metadata id="CorelCorpID_0Corel-Layer"/>
  <path class="fil0" d="M1650 1450c74,0 137,-10 192,-22 42,-12 87,8 87,77 0,36 -11,57 -36,70 -61,32 -148,45 -271,45 -395,0 -525,-261 -525,-732 0,-462 130,-753 525,-753 123,0 216,20 269,45 26,12 35,34 35,67 0,54 -33,92 -75,82 -64,-16 -126,-24 -206,-24 -282,0 -335,167 -335,586 0,392 50,559 340,559l0 0z"/>
  <path class="fil0" d="M2636 600c-222,0 -267,74 -267,429 0,379 73,434 267,434 212,0 261,-55 261,-434 0,-363 -63,-429 -261,-429zm3 -157c330,0 471,186 471,560 0,489 -192,617 -474,617 -284,0 -479,-128 -479,-562 0,-440 146,-615 482,-615l0 0z"/>
  <path class="fil0" d="M4318 1530c0,65 -49,77 -100,77 -49,0 -104,-12 -104,-77l0 -700c0,-184 -70,-230 -247,-230 -79,0 -136,8 -170,21 -41,16 -45,41 -45,80l0 829c0,65 -49,77 -100,77 -49,0 -104,-12 -104,-77l0 -920c0,-87 24,-114 94,-129 106,-23 234,-38 331,-38 362,0 445,106 445,344l0 743 0 0z"/>
  <path class="fil0" d="M4980 1308c0,117 32,159 123,159l43 0c42,0 50,28 50,59 0,32 -8,56 -34,66 -21,11 -85,24 -137,24 -207,0 -245,-111 -245,-297l0 -640c0,-42 -4,-58 -55,-58l-99 0c-47,0 -59,-34 -59,-80 0,-44 12,-77 59,-77l97 0c53,0 57,-10 57,-52l0 -200c0,-69 51,-79 100,-79 51,0 100,10 100,76l0 203c0,42 4,52 57,52l130 0c46,0 57,33 57,77 0,46 -11,80 -57,80l-130 0c-45,0 -57,8 -57,55l0 632z"/>
  <path class="fil0" d="M6084 1189c0,-69 -34,-101 -138,-101l-112 0c-133,0 -178,42 -178,200 0,162 31,187 182,187 194,0 246,-9 246,-154l0 -132 0 0zm195 295c0,115 -150,132 -415,132 -318,0 -418,-82 -418,-301 0,-227 63,-310 375,-344l179 -20c67,-5 84,-26 84,-139 0,-121 -18,-204 -237,-204 -76,0 -169,10 -235,26 -34,8 -79,-5 -79,-75 0,-25 10,-46 34,-62 58,-35 180,-54 295,-54 322,0 417,94 417,373l0 668z"/>
  <path class="fil0" d="M6863 1530c0,65 -51,77 -102,77 -49,0 -102,-12 -102,-77l0 -1000c0,-66 53,-76 102,-76 51,0 102,10 102,76l0 1000zm-102 -1508c100,0 121,29 121,117 0,111 -32,134 -121,134 -95,0 -125,-23 -125,-121 0,-101 30,-130 125,-130z"/>
  <path class="fil0" d="M8113 1530c0,65 -48,77 -100,77 -47,0 -104,-12 -104,-77l0 -700c0,-184 -68,-230 -247,-230 -79,0 -136,8 -170,21 -41,16 -45,41 -45,80l0 829c0,65 -48,77 -100,77 -47,0 -104,-12 -104,-77l0 -920c0,-87 24,-114 95,-129 105,-23 233,-38 330,-38 364,0 445,106 445,344l0 743 0 0z"/>
  <path class="fil0" d="M8647 875c0,68 32,80 129,80l228 0c100,0 133,-9 133,-101 0,-180 -54,-254 -226,-254 -189,0 -264,93 -264,247l0 28 0 0zm79 221c-66,3 -79,25 -79,80 0,198 103,287 363,287 91,0 161,-10 215,-23 40,-11 80,9 80,61 0,32 -10,60 -35,73 -61,29 -152,46 -279,46 -378,0 -543,-138 -543,-517l0 -160c0,-388 210,-500 465,-500 333,0 425,179 425,431 0,181 -35,202 -247,209l-365 13 0 0z"/>
  <path class="fil0" d="M10201 608c-41,0 -88,-7 -149,-7 -171,0 -187,20 -187,103l0 826c0,65 -47,77 -98,77 -49,0 -104,-12 -104,-77l0 -920c0,-86 25,-113 93,-127 105,-24 270,-40 357,-40 116,0 151,12 151,83 0,46 -16,82 -63,82l0 0z"/>
  <path class="fil0" d="M6580 3454c75,0 139,-11 194,-24 42,-10 87,8 87,79 0,36 -11,57 -36,70 -62,32 -149,45 -272,45 -394,0 -524,-262 -524,-732 0,-463 130,-753 524,-753 123,0 217,19 269,45 27,12 36,33 36,67 0,53 -33,91 -75,80 -64,-14 -126,-22 -207,-22 -281,0 -334,167 -334,584 0,394 50,561 338,561l0 0z"/>
  <path class="fil0" d="M7568 2604c-222,0 -267,73 -267,427 0,381 72,435 267,435 212,0 261,-54 261,-435 0,-363 -64,-427 -261,-427zm3 -158c330,0 471,187 471,560 0,490 -192,618 -474,618 -284,0 -479,-128 -479,-562 0,-440 146,-616 482,-616l0 0z"/>
  <path class="fil0" d="M9250 3534c0,63 -49,77 -100,77 -49,0 -104,-14 -104,-77l0 -700c0,-184 -70,-230 -249,-230 -78,0 -134,8 -170,21 -39,14 -43,39 -43,80l0 829c0,63 -49,77 -100,77 -49,0 -104,-14 -104,-77l0 -920c0,-88 23,-114 93,-130 107,-24 233,-38 331,-38 363,0 446,106 446,343l0 745 0 0z"/>
  <path class="fil0" d="M9909 2414c0,42 4,53 58,53l146 0c46,0 57,34 57,76 0,48 -11,82 -57,82l-146 0c-45,0 -58,8 -58,55l0 854c0,63 -49,77 -100,77 -48,0 -104,-14 -104,-77l0 -853c0,-42 -4,-56 -55,-56l-91 0c-46,0 -59,-34 -59,-82 0,-42 13,-76 59,-76l90 0c52,0 56,-11 56,-53l0 -74c0,-189 56,-297 263,-297 103,0 160,11 181,21 27,13 35,37 35,68 0,30 -8,60 -50,60l-106 0c-94,0 -119,42 -119,156l0 66 0 0z"/>
  <path class="fil0" d="M422 230c-128,0 -141,51 -141,204l0 1241c0,102 13,128 141,128l320 0c90,0 102,39 102,115 0,90 -12,128 -102,128l-422 0c-243,0 -320,-103 -320,-306l0 -1446c0,-179 77,-294 320,-294l422 0c90,0 102,38 102,115 0,90 -12,115 -102,115l-320 0z"/>
  <path class="fil0" d="M10919 3815c94,0 142,-48 142,-190l0 -3191c0,-143 -48,-191 -142,-191l-334 0c-94,0 -94,-48 -94,-142 0,-48 0,-95 94,-95l428 0c239,0 335,95 335,285l0 3476c0,191 -96,287 -335,287l-428 0c-94,0 -94,-48 -94,-144 0,-47 0,-95 94,-95l334 0 0 0z"/>
 </g>
</svg>