<?xml version="1.0" encoding="UTF-8"?>
<!DOCTYPE svg PUBLIC "-//W3C//DTD SVG 1.1//EN" "http://www.w3.org/Graphics/SVG/1.1/DTD/svg11.dtd">
<!-- Creator: CorelDRAW X6 -->
<svg xmlns="http://www.w3.org/2000/svg" xml:space="preserve" width="2506px" height="897px" version="1.1" style="shape-rendering:geometricPrecision; text-rendering:geometricPrecision; image-rendering:optimizeQuality; fill-rule:evenodd; clip-rule:evenodd" viewBox="0 0 250600 89700" xmlns:xlink="http://www.w3.org/1999/xlink">
 <defs>
  <style type="text/css">
   <![CDATA[
    .fil1 {fill:black;fill-rule:nonzero}
    .fil0 {fill:#FBAB46;fill-rule:nonzero}
   ]]>
  </style>
 </defs>
 <g id="Ebene_x0020_1">
  <metadata id="CorelCorpID_0Corel-Layer"/>
  <path class="fil0" d="M241226 84452c2625,0 3093,-750 3093,-3751l0 -71703c0,-2998 -468,-3748 -3093,-3748l-7217 0c-1781,0 -2249,-843 -2249,-2624 0,-1687 468,-2626 2249,-2626l9467 0c5435,0 7124,2345 7124,6656l0 76390c0,4217 -1689,6654 -7124,6654l-9467 0c-1781,0 -2249,-936 -2249,-2624 0,-1781 468,-2624 2249,-2624l7217 0 0 0z"/>
  <path class="fil0" d="M9374 5254c-2720,0 -3093,938 -3093,4499l0 27438c0,2344 373,2907 3093,2907l7217 0c1781,0 2249,935 2249,2530 0,1875 -468,2718 -2249,2718l-9468 0c-5530,0 -7123,-2249 -7123,-6654l0 -32032c0,-4124 1593,-6654 7123,-6654l9468 0c1781,0 2249,936 2249,2530 0,1875 -468,2718 -2249,2718l-7217 0 0 0z"/>
  <path class="fil1" d="M36403 32089c1641,0 3046,-234 4263,-515 939,-235 1923,187 1923,1733 0,797 -236,1266 -796,1546 -1360,704 -3282,984 -5999,984 -8715,0 -11574,-5763 -11574,-16165 0,-10215 2859,-16634 11574,-16634 2717,0 4779,422 5952,983 561,281 795,751 795,1499 0,1172 -748,2017 -1686,1781 -1406,-328 -2765,-514 -4545,-514 -6232,0 -7405,3701 -7405,12932 0,8668 1125,12370 7498,12370l0 0z"/>
  <path class="fil1" d="M58218 13299c-4920,0 -5904,1641 -5904,9465 0,8387 1594,9605 5904,9605 4686,0 5764,-1218 5764,-9605 0,-8013 -1406,-9465 -5764,-9465zm46 -3467c7311,0 10403,4124 10403,12370 0,10824 -4218,13634 -10449,13634 -6279,0 -10590,-2811 -10590,-12416 0,-9700 3235,-13588 10636,-13588l0 0z"/>
  <path class="fil1" d="M95364 33869c0,1405 -1077,1688 -2202,1688 -1079,0 -2296,-282 -2296,-1688l0 -15462c0,-4077 -1547,-5108 -5482,-5108 -1734,0 -2999,187 -3749,469 -890,328 -984,890 -984,1780l0 18321c0,1406 -1078,1688 -2203,1688 -1076,0 -2296,-282 -2296,-1688l0 -20335c0,-1922 517,-2531 2062,-2859 2343,-515 5155,-843 7309,-843 8015,0 9842,2342 9842,7591l0 16446 -1 0z"/>
  <path class="fil1" d="M109988 28949c0,2578 701,3514 2717,3514l937 0c937,0 1125,610 1125,1313 0,703 -188,1219 -749,1453 -471,234 -1876,515 -3046,515 -4546,0 -5391,-2436 -5391,-6560l0 -14151c0,-937 -92,-1265 -1217,-1265l-2203 0c-1031,0 -1312,-750 -1312,-1781 0,-937 281,-1687 1312,-1687l2158 0c1170,0 1262,-234 1262,-1171l0 -4404c0,-1501 1125,-1734 2204,-1734 1125,0 2203,233 2203,1686l0 4452c0,937 92,1171 1264,1171l2859 0c1031,0 1265,750 1265,1687 0,1031 -234,1781 -1265,1781l-2859 0c-984,0 -1264,188 -1264,1217l0 13964 0 0z"/>
  <path class="fil1" d="M134396 26325c0,-1545 -749,-2249 -3046,-2249l-2483 0c-2952,0 -3936,937 -3936,4450 0,3563 656,4124 4030,4124 4265,0 5435,-233 5435,-3419l0 -2906 0 0zm4313 6514c0,2529 -3329,2904 -9186,2904 -7029,0 -9230,-1781 -9230,-6653 0,-5014 1405,-6840 8293,-7590l3937 -422c1499,-141 1873,-611 1873,-3093 0,-2671 -421,-4499 -5248,-4499 -1685,0 -3747,234 -5200,563 -751,187 -1734,-93 -1734,-1640 0,-563 234,-1031 750,-1359 1264,-796 3982,-1218 6513,-1218 7121,0 9232,2062 9232,8247l0 14760z"/>
  <path class="fil1" d="M151586 33869c0,1405 -1124,1688 -2249,1688 -1078,0 -2249,-282 -2249,-1688l0 -22116c0,-1453 1171,-1687 2249,-1687 1125,0 2249,234 2249,1687l0 22116zm-2249 -33315c2203,0 2670,608 2670,2578 0,2437 -701,2951 -2670,2951 -2110,0 -2766,-514 -2766,-2670 0,-2251 656,-2859 2766,-2859z"/>
  <path class="fil1" d="M179225 33869c0,1405 -1078,1688 -2202,1688 -1079,0 -2297,-282 -2297,-1688l0 -15462c0,-4077 -1547,-5108 -5483,-5108 -1734,0 -2998,187 -3747,469 -891,328 -984,890 -984,1780l0 18321c0,1406 -1078,1688 -2203,1688 -1077,0 -2296,-282 -2296,-1688l0 -20335c0,-1922 515,-2531 2062,-2859 2343,-515 5155,-843 7309,-843 8013,0 9841,2342 9841,7591l0 16446 0 0z"/>
  <path class="fil1" d="M191022 19390c0,1499 702,1781 2858,1781l5014 0c2201,0 2951,-234 2951,-2249 0,-3982 -1217,-5624 -5013,-5624 -4169,0 -5810,2062 -5810,5483l0 609 0 0zm1733 4873c-1453,47 -1733,563 -1733,1781 0,4358 2248,6327 8011,6327 2017,0 3563,-236 4734,-516 891,-234 1780,187 1780,1358 0,704 -233,1312 -796,1594 -1312,656 -3328,1030 -6139,1030 -8339,0 -11996,-3046 -11996,-11432l0 -3516c0,-8575 4641,-11057 10263,-11057 7356,0 9418,3982 9418,9512 0,4030 -797,4497 -5483,4638l-8059 281 0 0z"/>
  <path class="fil1" d="M225341 13486c-890,0 -1968,-140 -3280,-140 -3795,0 -4123,422 -4123,2250l0 18273c0,1406 -1077,1688 -2202,1688 -1077,0 -2296,-282 -2296,-1688l0 -20335c0,-1922 563,-2484 2062,-2812 2343,-517 5951,-890 7871,-890 2578,0 3374,281 3374,1827 0,1031 -375,1827 -1406,1827l0 0z"/>
  <path class="fil1" d="M145357 76349c1640,0 3046,-234 4263,-516 938,-234 1923,188 1923,1734 0,797 -236,1266 -797,1545 -1359,705 -3282,984 -5999,984 -8715,0 -11573,-5762 -11573,-16165 0,-10214 2858,-16634 11573,-16634 2717,0 4779,422 5952,983 561,282 796,751 796,1500 0,1171 -749,2016 -1686,1781 -1406,-328 -2765,-515 -4546,-515 -6231,0 -7405,3701 -7405,12932 0,8669 1125,12371 7499,12371l0 0z"/>
  <path class="fil1" d="M167171 57559c-4919,0 -5903,1641 -5903,9464 0,8388 1592,9606 5903,9606 4687,0 5764,-1218 5764,-9606 0,-8012 -1405,-9464 -5764,-9464zm46 -3467c7310,0 10403,4124 10403,12369 0,10824 -4217,13635 -10449,13635 -6279,0 -10590,-2811 -10590,-12416 0,-9700 3234,-13588 10636,-13588z"/>
  <path class="fil1" d="M204319 78129c0,1405 -1078,1688 -2203,1688 -1079,0 -2296,-283 -2296,-1688l0 -15463c0,-4077 -1546,-5108 -5482,-5108 -1734,0 -2999,188 -3749,470 -890,328 -984,889 -984,1780l0 18321c0,1405 -1078,1688 -2202,1688 -1077,0 -2297,-283 -2297,-1688l0 -20335c0,-1923 517,-2531 2062,-2859 2343,-515 5155,-843 7310,-843 8015,0 9841,2341 9841,7590l0 16446 0 1z"/>
  <path class="fil1" d="M218892 53389c0,937 94,1170 1267,1170l3232 0c1031,0 1266,751 1266,1687 0,1031 -235,1781 -1266,1781l-3232 0c-984,0 -1267,189 -1267,1218l0 18884c0,1406 -1078,1688 -2201,1688 -1079,0 -2296,-282 -2296,-1688l0 -18837c0,-937 -94,-1265 -1219,-1265l-2015 0c-1030,0 -1312,-750 -1312,-1781 0,-936 282,-1687 1312,-1687l1967 0c1173,0 1267,-233 1267,-1170l0 -1642c0,-4169 1217,-6559 5810,-6559 2249,0 3514,234 3983,470 608,280 797,796 797,1498 0,656 -189,1312 -1125,1312l-2343 0c-2062,0 -2625,938 -2625,3468l0 1453z"/>
 </g>
</svg>