<?xml version="1.0" encoding="UTF-8"?>
<!DOCTYPE svg PUBLIC "-//W3C//DTD SVG 1.1//EN" "http://www.w3.org/Graphics/SVG/1.1/DTD/svg11.dtd">
<!-- Creator: CorelDRAW 2017 -->
<svg xmlns="http://www.w3.org/2000/svg" xml:space="preserve" width="3584px" height="1280px" version="1.1" style="shape-rendering:geometricPrecision; text-rendering:geometricPrecision; image-rendering:optimizeQuality; fill-rule:evenodd; clip-rule:evenodd" viewBox="0 0 3584 1280.36" xmlns:xlink="http://www.w3.org/1999/xlink">
 <defs>
  <style type="text/css">
   <![CDATA[
    .fil1 {fill:#FBAB46;fill-rule:nonzero}
    .fil0 {fill:white;fill-rule:nonzero}
   ]]>
  </style>
 </defs>
 <g id="Ebene_x0020_1">
  <metadata id="CorelCorpID_0Corel-Layer"/>
  <path class="fil0" d="M521.11 457.95c23.38,0 43.27,-3.16 60.64,-6.95 13.27,-3.79 27.48,2.53 27.48,24.32 0,11.37 -3.48,18 -11.37,22.11 -19.27,10.1 -46.74,14.21 -85.59,14.21 -124.75,0 -165.81,-82.43 -165.81,-231.18 0,-145.92 41.06,-237.82 165.81,-237.82 38.85,0 68.22,6.32 84.96,14.21 8.21,3.79 11.05,10.74 11.05,21.16 0,17.06 -10.42,29.06 -23.69,25.9 -20.21,-5.06 -39.79,-7.58 -65.06,-7.58 -89.06,0 -105.8,52.74 -105.8,185.07 0,123.81 15.79,176.55 107.38,176.55l0 0 0 0z"/>
  <path class="fil0" d="M832.52 189.5c-70.11,0 -84.33,23.37 -84.33,135.49 0,119.7 23.06,137.07 84.33,137.07 66.95,0 82.43,-17.37 82.43,-137.07 0,-114.65 -19.9,-135.49 -82.43,-135.49zm0.95 -49.59c104.22,0 148.75,58.75 148.75,176.87 0,154.43 -60.64,194.86 -149.7,194.86 -89.69,0 -151.28,-40.43 -151.28,-177.49 0,-138.97 46.11,-194.24 152.23,-194.24l0 0 0 0z"/>
  <path class="fil0" d="M1363.74 483.22c0,20.52 -15.48,24.31 -31.58,24.31 -15.48,0 -32.85,-3.79 -32.85,-24.31l0 -221.08c0,-58.12 -22.11,-72.64 -78.01,-72.64 -24.95,0 -42.95,2.52 -53.69,6.63 -12.95,5.05 -14.21,12.95 -14.21,25.27l0 261.82c0,20.53 -15.48,24.31 -31.58,24.31 -15.48,0 -32.85,-3.78 -32.85,-24.31l0 -290.56c0,-27.48 7.58,-36.01 29.69,-40.75 33.48,-7.26 73.9,-12 104.54,-12 114.33,0 140.54,33.48 140.54,108.65l0 234.66 0 0 0 0z"/>
  <path class="fil0" d="M1572.82 413.1c0,36.95 10.1,50.22 38.84,50.22l13.58 0c13.27,0 15.79,8.84 15.79,18.63 0,10.11 -2.52,17.69 -10.73,20.85 -6.64,3.47 -26.85,7.58 -43.27,7.58 -65.38,0 -77.38,-35.06 -77.38,-93.81l0 -202.12c0,-13.27 -1.26,-18.32 -17.37,-18.32l-31.27 0c-14.84,0 -18.63,-10.74 -18.63,-25.27 0,-13.89 3.79,-24.32 18.63,-24.32l30.64 0c16.74,0 18,-3.16 18,-16.42l0 -63.17c0,-21.79 16.11,-24.95 31.58,-24.95 16.11,0 31.58,3.16 31.58,24.01l0 64.11c0,13.26 1.27,16.42 18.01,16.42l41.05 0c14.53,0 18.01,10.43 18.01,24.32 0,14.53 -3.48,25.27 -18.01,25.27l-41.05 0c-14.22,0 -18.01,2.52 -18.01,17.37l0 199.6 0.01 0z"/>
  <path class="fil0" d="M1921.49 375.52c0,-21.79 -10.74,-31.9 -43.59,-31.9l-35.37 0c-42,0 -56.22,13.26 -56.22,63.17 0,51.16 9.8,59.06 57.49,59.06 61.27,0 77.69,-2.85 77.69,-48.64l0 -41.69 0 0 0 0zm61.59 93.17c0,36.32 -47.38,41.69 -131.07,41.69 -100.44,0 -132.02,-25.9 -132.02,-95.07 0,-71.69 19.9,-97.9 118.44,-108.64l56.53 -6.32c21.16,-1.58 26.53,-8.21 26.53,-43.9 0,-38.21 -5.69,-64.43 -74.85,-64.43 -24.01,0 -53.38,3.16 -74.22,8.21 -10.74,2.53 -24.95,-1.57 -24.95,-23.68 0,-7.9 3.16,-14.53 10.74,-19.58 18.31,-11.06 56.85,-17.06 93.16,-17.06 101.7,0 131.7,29.69 131.7,117.81l0 210.97 0.01 0z"/>
  <path class="fil0" d="M2167.52 483.22c0,20.52 -16.11,24.31 -32.22,24.31 -15.47,0 -32.21,-3.79 -32.21,-24.31l0 -315.83c0,-20.85 16.74,-24.01 32.21,-24.01 16.11,0 32.22,3.16 32.22,24.01l0 315.83zm-32.22 -476.27c31.59,0 38.22,9.16 38.22,36.95 0,35.06 -10.11,42.32 -38.22,42.32 -30,0 -39.47,-7.26 -39.47,-38.21 0,-31.9 9.47,-41.06 39.47,-41.06l0 0z"/>
  <path class="fil0" d="M2562.3 483.22c0,20.52 -15.16,24.31 -31.58,24.31 -14.85,0 -32.85,-3.79 -32.85,-24.31l0 -221.08c0,-58.12 -21.47,-72.64 -78.01,-72.64 -24.95,0 -42.95,2.52 -53.69,6.63 -12.95,5.05 -14.21,12.95 -14.21,25.27l0 261.82c0,20.53 -15.16,24.31 -31.58,24.31 -14.85,0 -32.85,-3.78 -32.85,-24.31l0 -290.56c0,-27.48 7.58,-36.01 30.01,-40.75 33.16,-7.26 73.58,-12 104.22,-12 114.96,0 140.54,33.48 140.54,108.65l0 234.66 0 0 0 0z"/>
  <path class="fil0" d="M2730.95 276.35c0,21.48 10.11,25.26 40.74,25.26l72.01 0c31.59,0 42.01,-2.84 42.01,-31.89 0,-56.85 -17.06,-80.22 -71.38,-80.22 -59.69,0 -83.38,29.37 -83.38,78.01l0 8.84 0 0zm24.95 69.8c-20.84,0.94 -24.95,7.89 -24.95,25.26 0,62.54 32.53,90.65 114.65,90.65 28.74,0 50.85,-3.16 67.9,-7.27 12.63,-3.47 25.27,2.84 25.27,19.27 0,10.1 -3.16,18.95 -11.06,23.05 -19.26,9.16 -48,14.53 -88.11,14.53 -119.39,0 -171.5,-43.58 -171.5,-163.28l0 -50.53c0,-122.54 66.33,-157.92 146.86,-157.92 105.17,0 134.23,56.54 134.23,136.12 0,57.17 -11.06,63.8 -78.01,66.01l-115.28 4.11 0 0z"/>
  <path class="fil0" d="M3221.75 192.02c-12.95,0 -27.8,-2.21 -47.06,-2.21 -54.01,0 -59.06,6.32 -59.06,32.53l0 260.88c0,20.52 -14.85,24.31 -30.95,24.31 -15.48,0 -32.85,-3.79 -32.85,-24.31l0 -290.57c0,-27.16 7.9,-35.68 29.37,-40.11 33.17,-7.57 85.28,-12.63 112.75,-12.63 36.64,0 47.7,3.79 47.7,26.22 0,14.52 -5.06,25.89 -19.9,25.89l0 0 0 0z"/>
  <path class="fil0" d="M2078.14 1090.86c23.69,0 43.9,-3.47 61.27,-7.57 13.26,-3.16 27.48,2.52 27.48,24.95 0,11.37 -3.48,18 -11.37,22.1 -19.58,10.11 -47.06,14.22 -85.91,14.22 -124.43,0 -165.49,-82.75 -165.49,-231.19 0,-146.23 41.06,-237.82 165.49,-237.82 38.85,0 68.54,6 84.96,14.22 8.53,3.79 11.37,10.42 11.37,21.16 0,16.74 -10.42,28.74 -23.69,25.26 -20.21,-4.42 -39.79,-6.95 -65.37,-6.95 -88.75,0 -105.49,52.75 -105.49,184.45 0,124.43 15.79,177.18 106.75,177.18l0 0 0 -0.01z"/>
  <path class="fil0" d="M2390.17 822.41c-70.11,0 -84.32,23.06 -84.32,134.86 0,120.33 22.74,137.39 84.32,137.39 66.96,0 82.44,-17.06 82.44,-137.39 0,-114.64 -20.22,-134.86 -82.44,-134.86zm0.95 -49.9c104.23,0 148.76,59.06 148.76,176.87 0,154.75 -60.64,195.18 -149.7,195.18 -89.7,0 -151.28,-40.43 -151.28,-177.5 0,-138.96 46.11,-194.55 152.22,-194.55l0 0z"/>
  <path class="fil0" d="M2921.4 1116.13c0,19.9 -15.48,24.32 -31.59,24.32 -15.47,0 -32.84,-4.42 -32.84,-24.32l0 -221.08c0,-58.11 -22.11,-72.64 -78.64,-72.64 -24.64,0 -42.32,2.53 -53.69,6.64 -12.32,4.42 -13.58,12.31 -13.58,25.26l0 261.82c0,19.9 -15.48,24.32 -31.59,24.32 -15.47,0 -32.84,-4.42 -32.84,-24.32l0 -290.56c0,-27.79 7.26,-36 29.37,-41.06 33.79,-7.58 73.59,-12 104.54,-12 114.64,0 140.86,33.48 140.86,108.33l0 235.29 0 0 0 0z"/>
  <path class="fil0" d="M3129.53 762.41c0,13.26 1.26,16.74 18.31,16.74l46.11 0c14.53,0 18.01,10.73 18.01,24 0,15.16 -3.48,25.9 -18.01,25.9l-46.11 0c-14.21,0 -18.31,2.52 -18.31,17.37l0 269.71c0,19.9 -15.48,24.32 -31.59,24.32 -15.16,0 -32.84,-4.42 -32.84,-24.32l0 -269.4c0,-13.26 -1.27,-17.68 -17.37,-17.68l-28.74 0c-14.53,0 -18.64,-10.74 -18.64,-25.9 0,-13.27 4.11,-24 18.64,-24l28.42 0c16.42,0 17.69,-3.48 17.69,-16.74l0 -23.38c0,-59.69 17.68,-93.8 83.06,-93.8 32.53,0 50.53,3.48 57.16,6.64 8.53,4.1 11.06,11.68 11.06,21.47 0,9.48 -2.53,18.95 -15.79,18.95l-33.48 0c-29.69,0 -37.58,13.27 -37.58,49.27l0 20.85 0 0 0 0z"/>
  <path class="fil1" d="M133.28 72.64c-40.43,0 -44.53,16.11 -44.53,64.43l0 391.94c0,32.21 4.1,40.43 44.53,40.43l101.06 0c28.43,0 32.22,12.31 32.22,36.32 0,28.42 -3.79,40.42 -32.22,40.42l-133.28 0c-76.74,0 -101.06,-32.53 -101.06,-96.64l0 -456.69c0,-56.53 24.32,-92.85 101.06,-92.85l133.28 0c28.43,0 32.22,12 32.22,36.32 0,28.42 -3.79,36.32 -32.22,36.32l-101.06 0 0 0z"/>
  <path class="fil1" d="M3448.51 1204.88c29.69,0 44.85,-15.16 44.85,-60.01l0 -1007.8c0,-45.16 -15.16,-60.32 -44.85,-60.32l-105.49 0c-29.68,0 -29.68,-15.16 -29.68,-44.85 0,-15.16 0,-30 29.68,-30l135.18 0c75.48,0 105.8,30 105.8,90.01l0 1097.81c0,60.32 -30.32,90.64 -105.8,90.64l-135.18 0c-29.68,0 -29.68,-15.16 -29.68,-45.48 0,-14.84 0,-30 29.68,-30l105.49 0 0 0 0 0z"/>
 </g>
</svg>