<!DOCTYPE svg PUBLIC "-//W3C//DTD SVG 1.1//EN" "http://www.w3.org/Graphics/SVG/1.1/DTD/svg11.dtd">
<svg data-name="Layer 1" xmlns="http://www.w3.org/2000/svg" viewBox="0 0 220 220">
    <title>moby-tail</title>
    <g id="Moby Project">
        <g id="moby">
            <path d="M110,220A110,110,0,1,1,220,110,110,110,0,0,1,110,220ZM14.13,152h0a104.84,104.84,0,0,0,73,60.14,333.24,333.24,0,0,0,19.15-38.94c19.72.54,62.44,0,83.8-41.39.55-1.09,1.64-3.27,5.48-11.44l2.19-4.36-12-7.08c-13.14-8.71-43.82-12-67.37-7.62C115.63,79,103,59.91,80.58,42.49L68,33.77,59.22,46.84c-11,16.34-16.43,39.76-14.79,61.54.55,7.62,3.29,21.79,11.5,33.77C48.12,146.3,33.88,151.92,14.13,152Z" style="fill:#fff"></path>
        </g>
    </g>
</svg>