<?xml version="1.0" encoding="utf-8"?>
<svg version="1.1" baseProfile="full"  width="360" height="360" viewBox="0 0 360 360"
		 xmlns="http://www.w3.org/2000/svg" xmlns:xlink="http://www.w3.org/1999/xlink" xmlns:ev="http://www.w3.org/2001/xml-events">
<desc></desc>
<rect width="360" height="360" fill="#ffffff" cx="0" cy="0" />
<defs>
<rect id="p" width="8" height="8" />
</defs>
<g fill="#000000">
<use x="32" y="32" xlink:href="#p" />
<use x="32" y="40" xlink:href="#p" />
<use x="32" y="48" xlink:href="#p" />
<use x="32" y="56" xlink:href="#p" />
<use x="32" y="64" xlink:href="#p" />
<use x="32" y="72" xlink:href="#p" />
<use x="32" y="80" xlink:href="#p" />
<use x="32" y="96" xlink:href="#p" />
<use x="32" y="112" xlink:href="#p" />
<use x="32" y="120" xlink:href="#p" />
<use x="32" y="136" xlink:href="#p" />
<use x="32" y="160" xlink:href="#p" />
<use x="32" y="176" xlink:href="#p" />
<use x="32" y="184" xlink:href="#p" />
<use x="32" y="216" xlink:href="#p" />
<use x="32" y="232" xlink:href="#p" />
<use x="32" y="240" xlink:href="#p" />
<use x="32" y="256" xlink:href="#p" />
<use x="32" y="272" xlink:href="#p" />
<use x="32" y="280" xlink:href="#p" />
<use x="32" y="288" xlink:href="#p" />
<use x="32" y="296" xlink:href="#p" />
<use x="32" y="304" xlink:href="#p" />
<use x="32" y="312" xlink:href="#p" />
<use x="32" y="320" xlink:href="#p" />
<use x="40" y="32" xlink:href="#p" />
<use x="40" y="80" xlink:href="#p" />
<use x="40" y="96" xlink:href="#p" />
<use x="40" y="128" xlink:href="#p" />
<use x="40" y="136" xlink:href="#p" />
<use x="40" y="152" xlink:href="#p" />
<use x="40" y="176" xlink:href="#p" />
<use x="40" y="192" xlink:href="#p" />
<use x="40" y="216" xlink:href="#p" />
<use x="40" y="224" xlink:href="#p" />
<use x="40" y="248" xlink:href="#p" />
<use x="40" y="256" xlink:href="#p" />
<use x="40" y="272" xlink:href="#p" />
<use x="40" y="320" xlink:href="#p" />
<use x="48" y="32" xlink:href="#p" />
<use x="48" y="48" xlink:href="#p" />
<use x="48" y="56" xlink:href="#p" />
<use x="48" y="64" xlink:href="#p" />
<use x="48" y="80" xlink:href="#p" />
<use x="48" y="96" xlink:href="#p" />
<use x="48" y="120" xlink:href="#p" />
<use x="48" y="128" xlink:href="#p" />
<use x="48" y="136" xlink:href="#p" />
<use x="48" y="152" xlink:href="#p" />
<use x="48" y="176" xlink:href="#p" />
<use x="48" y="184" xlink:href="#p" />
<use x="48" y="200" xlink:href="#p" />
<use x="48" y="216" xlink:href="#p" />
<use x="48" y="224" xlink:href="#p" />
<use x="48" y="232" xlink:href="#p" />
<use x="48" y="248" xlink:href="#p" />
<use x="48" y="272" xlink:href="#p" />
<use x="48" y="288" xlink:href="#p" />
<use x="48" y="296" xlink:href="#p" />
<use x="48" y="304" xlink:href="#p" />
<use x="48" y="320" xlink:href="#p" />
<use x="56" y="32" xlink:href="#p" />
<use x="56" y="48" xlink:href="#p" />
<use x="56" y="56" xlink:href="#p" />
<use x="56" y="64" xlink:href="#p" />
<use x="56" y="80" xlink:href="#p" />
<use x="56" y="96" xlink:href="#p" />
<use x="56" y="136" xlink:href="#p" />
<use x="56" y="192" xlink:href="#p" />
<use x="56" y="208" xlink:href="#p" />
<use x="56" y="216" xlink:href="#p" />
<use x="56" y="232" xlink:href="#p" />
<use x="56" y="248" xlink:href="#p" />
<use x="56" y="272" xlink:href="#p" />
<use x="56" y="288" xlink:href="#p" />
<use x="56" y="296" xlink:href="#p" />
<use x="56" y="304" xlink:href="#p" />
<use x="56" y="320" xlink:href="#p" />
<use x="64" y="32" xlink:href="#p" />
<use x="64" y="48" xlink:href="#p" />
<use x="64" y="56" xlink:href="#p" />
<use x="64" y="64" xlink:href="#p" />
<use x="64" y="80" xlink:href="#p" />
<use x="64" y="104" xlink:href="#p" />
<use x="64" y="112" xlink:href="#p" />
<use x="64" y="128" xlink:href="#p" />
<use x="64" y="144" xlink:href="#p" />
<use x="64" y="152" xlink:href="#p" />
<use x="64" y="160" xlink:href="#p" />
<use x="64" y="176" xlink:href="#p" />
<use x="64" y="184" xlink:href="#p" />
<use x="64" y="192" xlink:href="#p" />
<use x="64" y="200" xlink:href="#p" />
<use x="64" y="208" xlink:href="#p" />
<use x="64" y="216" xlink:href="#p" />
<use x="64" y="224" xlink:href="#p" />
<use x="64" y="232" xlink:href="#p" />
<use x="64" y="256" xlink:href="#p" />
<use x="64" y="272" xlink:href="#p" />
<use x="64" y="288" xlink:href="#p" />
<use x="64" y="296" xlink:href="#p" />
<use x="64" y="304" xlink:href="#p" />
<use x="64" y="320" xlink:href="#p" />
<use x="72" y="32" xlink:href="#p" />
<use x="72" y="80" xlink:href="#p" />
<use x="72" y="112" xlink:href="#p" />
<use x="72" y="128" xlink:href="#p" />
<use x="72" y="136" xlink:href="#p" />
<use x="72" y="152" xlink:href="#p" />
<use x="72" y="168" xlink:href="#p" />
<use x="72" y="176" xlink:href="#p" />
<use x="72" y="184" xlink:href="#p" />
<use x="72" y="208" xlink:href="#p" />
<use x="72" y="216" xlink:href="#p" />
<use x="72" y="232" xlink:href="#p" />
<use x="72" y="272" xlink:href="#p" />
<use x="72" y="320" xlink:href="#p" />
<use x="80" y="32" xlink:href="#p" />
<use x="80" y="40" xlink:href="#p" />
<use x="80" y="48" xlink:href="#p" />
<use x="80" y="56" xlink:href="#p" />
<use x="80" y="64" xlink:href="#p" />
<use x="80" y="72" xlink:href="#p" />
<use x="80" y="80" xlink:href="#p" />
<use x="80" y="96" xlink:href="#p" />
<use x="80" y="112" xlink:href="#p" />
<use x="80" y="128" xlink:href="#p" />
<use x="80" y="144" xlink:href="#p" />
<use x="80" y="160" xlink:href="#p" />
<use x="80" y="176" xlink:href="#p" />
<use x="80" y="192" xlink:href="#p" />
<use x="80" y="208" xlink:href="#p" />
<use x="80" y="224" xlink:href="#p" />
<use x="80" y="240" xlink:href="#p" />
<use x="80" y="256" xlink:href="#p" />
<use x="80" y="272" xlink:href="#p" />
<use x="80" y="280" xlink:href="#p" />
<use x="80" y="288" xlink:href="#p" />
<use x="80" y="296" xlink:href="#p" />
<use x="80" y="304" xlink:href="#p" />
<use x="80" y="312" xlink:href="#p" />
<use x="80" y="320" xlink:href="#p" />
<use x="88" y="104" xlink:href="#p" />
<use x="88" y="112" xlink:href="#p" />
<use x="88" y="128" xlink:href="#p" />
<use x="88" y="144" xlink:href="#p" />
<use x="88" y="152" xlink:href="#p" />
<use x="88" y="160" xlink:href="#p" />
<use x="88" y="192" xlink:href="#p" />
<use x="88" y="232" xlink:href="#p" />
<use x="96" y="32" xlink:href="#p" />
<use x="96" y="48" xlink:href="#p" />
<use x="96" y="56" xlink:href="#p" />
<use x="96" y="64" xlink:href="#p" />
<use x="96" y="80" xlink:href="#p" />
<use x="96" y="96" xlink:href="#p" />
<use x="96" y="104" xlink:href="#p" />
<use x="96" y="120" xlink:href="#p" />
<use x="96" y="136" xlink:href="#p" />
<use x="96" y="144" xlink:href="#p" />
<use x="96" y="152" xlink:href="#p" />
<use x="96" y="168" xlink:href="#p" />
<use x="96" y="176" xlink:href="#p" />
<use x="96" y="200" xlink:href="#p" />
<use x="96" y="208" xlink:href="#p" />
<use x="96" y="216" xlink:href="#p" />
<use x="96" y="224" xlink:href="#p" />
<use x="96" y="232" xlink:href="#p" />
<use x="96" y="256" xlink:href="#p" />
<use x="96" y="264" xlink:href="#p" />
<use x="96" y="296" xlink:href="#p" />
<use x="96" y="304" xlink:href="#p" />
<use x="96" y="312" xlink:href="#p" />
<use x="96" y="320" xlink:href="#p" />
<use x="104" y="40" xlink:href="#p" />
<use x="104" y="48" xlink:href="#p" />
<use x="104" y="56" xlink:href="#p" />
<use x="104" y="104" xlink:href="#p" />
<use x="104" y="112" xlink:href="#p" />
<use x="104" y="144" xlink:href="#p" />
<use x="104" y="152" xlink:href="#p" />
<use x="104" y="160" xlink:href="#p" />
<use x="104" y="168" xlink:href="#p" />
<use x="104" y="224" xlink:href="#p" />
<use x="104" y="240" xlink:href="#p" />
<use x="104" y="248" xlink:href="#p" />
<use x="104" y="288" xlink:href="#p" />
<use x="104" y="304" xlink:href="#p" />
<use x="104" y="320" xlink:href="#p" />
<use x="112" y="32" xlink:href="#p" />
<use x="112" y="40" xlink:href="#p" />
<use x="112" y="48" xlink:href="#p" />
<use x="112" y="56" xlink:href="#p" />
<use x="112" y="72" xlink:href="#p" />
<use x="112" y="80" xlink:href="#p" />
<use x="112" y="88" xlink:href="#p" />
<use x="112" y="96" xlink:href="#p" />
<use x="112" y="104" xlink:href="#p" />
<use x="112" y="120" xlink:href="#p" />
<use x="112" y="136" xlink:href="#p" />
<use x="112" y="184" xlink:href="#p" />
<use x="112" y="200" xlink:href="#p" />
<use x="112" y="224" xlink:href="#p" />
<use x="112" y="240" xlink:href="#p" />
<use x="112" y="256" xlink:href="#p" />
<use x="112" y="264" xlink:href="#p" />
<use x="112" y="280" xlink:href="#p" />
<use x="112" y="288" xlink:href="#p" />
<use x="112" y="296" xlink:href="#p" />
<use x="112" y="304" xlink:href="#p" />
<use x="112" y="320" xlink:href="#p" />
<use x="120" y="40" xlink:href="#p" />
<use x="120" y="64" xlink:href="#p" />
<use x="120" y="72" xlink:href="#p" />
<use x="120" y="96" xlink:href="#p" />
<use x="120" y="112" xlink:href="#p" />
<use x="120" y="136" xlink:href="#p" />
<use x="120" y="144" xlink:href="#p" />
<use x="120" y="152" xlink:href="#p" />
<use x="120" y="184" xlink:href="#p" />
<use x="120" y="216" xlink:href="#p" />
<use x="120" y="224" xlink:href="#p" />
<use x="120" y="232" xlink:href="#p" />
<use x="120" y="256" xlink:href="#p" />
<use x="120" y="272" xlink:href="#p" />
<use x="120" y="288" xlink:href="#p" />
<use x="120" y="304" xlink:href="#p" />
<use x="128" y="32" xlink:href="#p" />
<use x="128" y="40" xlink:href="#p" />
<use x="128" y="56" xlink:href="#p" />
<use x="128" y="64" xlink:href="#p" />
<use x="128" y="80" xlink:href="#p" />
<use x="128" y="88" xlink:href="#p" />
<use x="128" y="96" xlink:href="#p" />
<use x="128" y="104" xlink:href="#p" />
<use x="128" y="112" xlink:href="#p" />
<use x="128" y="128" xlink:href="#p" />
<use x="128" y="136" xlink:href="#p" />
<use x="128" y="160" xlink:href="#p" />
<use x="128" y="216" xlink:href="#p" />
<use x="128" y="240" xlink:href="#p" />
<use x="128" y="248" xlink:href="#p" />
<use x="128" y="264" xlink:href="#p" />
<use x="128" y="272" xlink:href="#p" />
<use x="128" y="280" xlink:href="#p" />
<use x="128" y="288" xlink:href="#p" />
<use x="128" y="296" xlink:href="#p" />
<use x="128" y="304" xlink:href="#p" />
<use x="128" y="320" xlink:href="#p" />
<use x="136" y="32" xlink:href="#p" />
<use x="136" y="48" xlink:href="#p" />
<use x="136" y="56" xlink:href="#p" />
<use x="136" y="72" xlink:href="#p" />
<use x="136" y="104" xlink:href="#p" />
<use x="136" y="120" xlink:href="#p" />
<use x="136" y="128" xlink:href="#p" />
<use x="136" y="136" xlink:href="#p" />
<use x="136" y="144" xlink:href="#p" />
<use x="136" y="176" xlink:href="#p" />
<use x="136" y="184" xlink:href="#p" />
<use x="136" y="192" xlink:href="#p" />
<use x="136" y="216" xlink:href="#p" />
<use x="136" y="232" xlink:href="#p" />
<use x="136" y="248" xlink:href="#p" />
<use x="136" y="264" xlink:href="#p" />
<use x="136" y="288" xlink:href="#p" />
<use x="136" y="296" xlink:href="#p" />
<use x="136" y="304" xlink:href="#p" />
<use x="144" y="40" xlink:href="#p" />
<use x="144" y="56" xlink:href="#p" />
<use x="144" y="72" xlink:href="#p" />
<use x="144" y="80" xlink:href="#p" />
<use x="144" y="88" xlink:href="#p" />
<use x="144" y="96" xlink:href="#p" />
<use x="144" y="120" xlink:href="#p" />
<use x="144" y="128" xlink:href="#p" />
<use x="144" y="136" xlink:href="#p" />
<use x="144" y="144" xlink:href="#p" />
<use x="144" y="160" xlink:href="#p" />
<use x="144" y="176" xlink:href="#p" />
<use x="144" y="184" xlink:href="#p" />
<use x="144" y="192" xlink:href="#p" />
<use x="144" y="208" xlink:href="#p" />
<use x="144" y="216" xlink:href="#p" />
<use x="144" y="240" xlink:href="#p" />
<use x="144" y="296" xlink:href="#p" />
<use x="144" y="320" xlink:href="#p" />
<use x="152" y="48" xlink:href="#p" />
<use x="152" y="64" xlink:href="#p" />
<use x="152" y="96" xlink:href="#p" />
<use x="152" y="128" xlink:href="#p" />
<use x="152" y="136" xlink:href="#p" />
<use x="152" y="168" xlink:href="#p" />
<use x="152" y="176" xlink:href="#p" />
<use x="152" y="184" xlink:href="#p" />
<use x="152" y="224" xlink:href="#p" />
<use x="152" y="232" xlink:href="#p" />
<use x="152" y="264" xlink:href="#p" />
<use x="152" y="272" xlink:href="#p" />
<use x="152" y="288" xlink:href="#p" />
<use x="152" y="312" xlink:href="#p" />
<use x="160" y="32" xlink:href="#p" />
<use x="160" y="80" xlink:href="#p" />
<use x="160" y="88" xlink:href="#p" />
<use x="160" y="96" xlink:href="#p" />
<use x="160" y="104" xlink:href="#p" />
<use x="160" y="112" xlink:href="#p" />
<use x="160" y="128" xlink:href="#p" />
<use x="160" y="136" xlink:href="#p" />
<use x="160" y="160" xlink:href="#p" />
<use x="160" y="200" xlink:href="#p" />
<use x="160" y="208" xlink:href="#p" />
<use x="160" y="232" xlink:href="#p" />
<use x="160" y="240" xlink:href="#p" />
<use x="160" y="248" xlink:href="#p" />
<use x="160" y="256" xlink:href="#p" />
<use x="160" y="272" xlink:href="#p" />
<use x="160" y="288" xlink:href="#p" />
<use x="160" y="296" xlink:href="#p" />
<use x="168" y="40" xlink:href="#p" />
<use x="168" y="56" xlink:href="#p" />
<use x="168" y="88" xlink:href="#p" />
<use x="168" y="96" xlink:href="#p" />
<use x="168" y="104" xlink:href="#p" />
<use x="168" y="128" xlink:href="#p" />
<use x="168" y="136" xlink:href="#p" />
<use x="168" y="176" xlink:href="#p" />
<use x="168" y="184" xlink:href="#p" />
<use x="168" y="192" xlink:href="#p" />
<use x="168" y="208" xlink:href="#p" />
<use x="168" y="224" xlink:href="#p" />
<use x="168" y="232" xlink:href="#p" />
<use x="168" y="240" xlink:href="#p" />
<use x="168" y="280" xlink:href="#p" />
<use x="168" y="304" xlink:href="#p" />
<use x="168" y="320" xlink:href="#p" />
<use x="176" y="32" xlink:href="#p" />
<use x="176" y="48" xlink:href="#p" />
<use x="176" y="80" xlink:href="#p" />
<use x="176" y="88" xlink:href="#p" />
<use x="176" y="96" xlink:href="#p" />
<use x="176" y="104" xlink:href="#p" />
<use x="176" y="112" xlink:href="#p" />
<use x="176" y="144" xlink:href="#p" />
<use x="176" y="160" xlink:href="#p" />
<use x="176" y="168" xlink:href="#p" />
<use x="176" y="176" xlink:href="#p" />
<use x="176" y="200" xlink:href="#p" />
<use x="176" y="208" xlink:href="#p" />
<use x="176" y="216" xlink:href="#p" />
<use x="176" y="224" xlink:href="#p" />
<use x="176" y="232" xlink:href="#p" />
<use x="176" y="248" xlink:href="#p" />
<use x="176" y="264" xlink:href="#p" />
<use x="176" y="272" xlink:href="#p" />
<use x="176" y="288" xlink:href="#p" />
<use x="176" y="304" xlink:href="#p" />
<use x="176" y="312" xlink:href="#p" />
<use x="184" y="32" xlink:href="#p" />
<use x="184" y="48" xlink:href="#p" />
<use x="184" y="64" xlink:href="#p" />
<use x="184" y="72" xlink:href="#p" />
<use x="184" y="88" xlink:href="#p" />
<use x="184" y="104" xlink:href="#p" />
<use x="184" y="128" xlink:href="#p" />
<use x="184" y="136" xlink:href="#p" />
<use x="184" y="144" xlink:href="#p" />
<use x="184" y="152" xlink:href="#p" />
<use x="184" y="168" xlink:href="#p" />
<use x="184" y="192" xlink:href="#p" />
<use x="184" y="200" xlink:href="#p" />
<use x="184" y="232" xlink:href="#p" />
<use x="184" y="240" xlink:href="#p" />
<use x="184" y="296" xlink:href="#p" />
<use x="184" y="312" xlink:href="#p" />
<use x="192" y="32" xlink:href="#p" />
<use x="192" y="40" xlink:href="#p" />
<use x="192" y="48" xlink:href="#p" />
<use x="192" y="56" xlink:href="#p" />
<use x="192" y="80" xlink:href="#p" />
<use x="192" y="104" xlink:href="#p" />
<use x="192" y="120" xlink:href="#p" />
<use x="192" y="144" xlink:href="#p" />
<use x="192" y="160" xlink:href="#p" />
<use x="192" y="168" xlink:href="#p" />
<use x="192" y="184" xlink:href="#p" />
<use x="192" y="192" xlink:href="#p" />
<use x="192" y="208" xlink:href="#p" />
<use x="192" y="224" xlink:href="#p" />
<use x="192" y="232" xlink:href="#p" />
<use x="192" y="240" xlink:href="#p" />
<use x="192" y="248" xlink:href="#p" />
<use x="192" y="256" xlink:href="#p" />
<use x="192" y="272" xlink:href="#p" />
<use x="192" y="304" xlink:href="#p" />
<use x="192" y="320" xlink:href="#p" />
<use x="200" y="32" xlink:href="#p" />
<use x="200" y="72" xlink:href="#p" />
<use x="200" y="96" xlink:href="#p" />
<use x="200" y="104" xlink:href="#p" />
<use x="200" y="144" xlink:href="#p" />
<use x="200" y="152" xlink:href="#p" />
<use x="200" y="160" xlink:href="#p" />
<use x="200" y="176" xlink:href="#p" />
<use x="200" y="192" xlink:href="#p" />
<use x="200" y="200" xlink:href="#p" />
<use x="200" y="232" xlink:href="#p" />
<use x="200" y="248" xlink:href="#p" />
<use x="200" y="256" xlink:href="#p" />
<use x="200" y="272" xlink:href="#p" />
<use x="200" y="288" xlink:href="#p" />
<use x="200" y="296" xlink:href="#p" />
<use x="200" y="304" xlink:href="#p" />
<use x="208" y="40" xlink:href="#p" />
<use x="208" y="64" xlink:href="#p" />
<use x="208" y="72" xlink:href="#p" />
<use x="208" y="80" xlink:href="#p" />
<use x="208" y="96" xlink:href="#p" />
<use x="208" y="104" xlink:href="#p" />
<use x="208" y="120" xlink:href="#p" />
<use x="208" y="136" xlink:href="#p" />
<use x="208" y="144" xlink:href="#p" />
<use x="208" y="192" xlink:href="#p" />
<use x="208" y="200" xlink:href="#p" />
<use x="208" y="232" xlink:href="#p" />
<use x="208" y="240" xlink:href="#p" />
<use x="208" y="248" xlink:href="#p" />
<use x="208" y="264" xlink:href="#p" />
<use x="208" y="272" xlink:href="#p" />
<use x="208" y="280" xlink:href="#p" />
<use x="208" y="288" xlink:href="#p" />
<use x="208" y="296" xlink:href="#p" />
<use x="208" y="312" xlink:href="#p" />
<use x="216" y="32" xlink:href="#p" />
<use x="216" y="40" xlink:href="#p" />
<use x="216" y="48" xlink:href="#p" />
<use x="216" y="96" xlink:href="#p" />
<use x="216" y="104" xlink:href="#p" />
<use x="216" y="112" xlink:href="#p" />
<use x="216" y="120" xlink:href="#p" />
<use x="216" y="128" xlink:href="#p" />
<use x="216" y="152" xlink:href="#p" />
<use x="216" y="160" xlink:href="#p" />
<use x="216" y="200" xlink:href="#p" />
<use x="216" y="208" xlink:href="#p" />
<use x="216" y="248" xlink:href="#p" />
<use x="216" y="264" xlink:href="#p" />
<use x="216" y="280" xlink:href="#p" />
<use x="216" y="288" xlink:href="#p" />
<use x="216" y="296" xlink:href="#p" />
<use x="216" y="304" xlink:href="#p" />
<use x="224" y="32" xlink:href="#p" />
<use x="224" y="48" xlink:href="#p" />
<use x="224" y="56" xlink:href="#p" />
<use x="224" y="64" xlink:href="#p" />
<use x="224" y="80" xlink:href="#p" />
<use x="224" y="88" xlink:href="#p" />
<use x="224" y="112" xlink:href="#p" />
<use x="224" y="120" xlink:href="#p" />
<use x="224" y="128" xlink:href="#p" />
<use x="224" y="136" xlink:href="#p" />
<use x="224" y="144" xlink:href="#p" />
<use x="224" y="152" xlink:href="#p" />
<use x="224" y="168" xlink:href="#p" />
<use x="224" y="176" xlink:href="#p" />
<use x="224" y="192" xlink:href="#p" />
<use x="224" y="208" xlink:href="#p" />
<use x="224" y="216" xlink:href="#p" />
<use x="224" y="224" xlink:href="#p" />
<use x="224" y="232" xlink:href="#p" />
<use x="224" y="264" xlink:href="#p" />
<use x="224" y="304" xlink:href="#p" />
<use x="224" y="320" xlink:href="#p" />
<use x="232" y="48" xlink:href="#p" />
<use x="232" y="56" xlink:href="#p" />
<use x="232" y="64" xlink:href="#p" />
<use x="232" y="72" xlink:href="#p" />
<use x="232" y="120" xlink:href="#p" />
<use x="232" y="128" xlink:href="#p" />
<use x="232" y="160" xlink:href="#p" />
<use x="232" y="176" xlink:href="#p" />
<use x="232" y="192" xlink:href="#p" />
<use x="232" y="208" xlink:href="#p" />
<use x="232" y="216" xlink:href="#p" />
<use x="232" y="224" xlink:href="#p" />
<use x="232" y="232" xlink:href="#p" />
<use x="232" y="256" xlink:href="#p" />
<use x="232" y="272" xlink:href="#p" />
<use x="232" y="312" xlink:href="#p" />
<use x="232" y="320" xlink:href="#p" />
<use x="240" y="32" xlink:href="#p" />
<use x="240" y="40" xlink:href="#p" />
<use x="240" y="48" xlink:href="#p" />
<use x="240" y="64" xlink:href="#p" />
<use x="240" y="72" xlink:href="#p" />
<use x="240" y="80" xlink:href="#p" />
<use x="240" y="104" xlink:href="#p" />
<use x="240" y="112" xlink:href="#p" />
<use x="240" y="120" xlink:href="#p" />
<use x="240" y="152" xlink:href="#p" />
<use x="240" y="160" xlink:href="#p" />
<use x="240" y="176" xlink:href="#p" />
<use x="240" y="192" xlink:href="#p" />
<use x="240" y="208" xlink:href="#p" />
<use x="240" y="216" xlink:href="#p" />
<use x="240" y="224" xlink:href="#p" />
<use x="240" y="232" xlink:href="#p" />
<use x="240" y="240" xlink:href="#p" />
<use x="240" y="248" xlink:href="#p" />
<use x="240" y="272" xlink:href="#p" />
<use x="240" y="280" xlink:href="#p" />
<use x="240" y="288" xlink:href="#p" />
<use x="240" y="296" xlink:href="#p" />
<use x="240" y="320" xlink:href="#p" />
<use x="248" y="56" xlink:href="#p" />
<use x="248" y="64" xlink:href="#p" />
<use x="248" y="96" xlink:href="#p" />
<use x="248" y="136" xlink:href="#p" />
<use x="248" y="152" xlink:href="#p" />
<use x="248" y="168" xlink:href="#p" />
<use x="248" y="176" xlink:href="#p" />
<use x="248" y="216" xlink:href="#p" />
<use x="248" y="224" xlink:href="#p" />
<use x="248" y="232" xlink:href="#p" />
<use x="248" y="256" xlink:href="#p" />
<use x="248" y="312" xlink:href="#p" />
<use x="256" y="40" xlink:href="#p" />
<use x="256" y="48" xlink:href="#p" />
<use x="256" y="56" xlink:href="#p" />
<use x="256" y="80" xlink:href="#p" />
<use x="256" y="88" xlink:href="#p" />
<use x="256" y="96" xlink:href="#p" />
<use x="256" y="112" xlink:href="#p" />
<use x="256" y="120" xlink:href="#p" />
<use x="256" y="128" xlink:href="#p" />
<use x="256" y="160" xlink:href="#p" />
<use x="256" y="168" xlink:href="#p" />
<use x="256" y="216" xlink:href="#p" />
<use x="256" y="224" xlink:href="#p" />
<use x="256" y="248" xlink:href="#p" />
<use x="256" y="256" xlink:href="#p" />
<use x="256" y="264" xlink:href="#p" />
<use x="256" y="272" xlink:href="#p" />
<use x="256" y="280" xlink:href="#p" />
<use x="256" y="288" xlink:href="#p" />
<use x="256" y="296" xlink:href="#p" />
<use x="264" y="96" xlink:href="#p" />
<use x="264" y="120" xlink:href="#p" />
<use x="264" y="128" xlink:href="#p" />
<use x="264" y="152" xlink:href="#p" />
<use x="264" y="176" xlink:href="#p" />
<use x="264" y="184" xlink:href="#p" />
<use x="264" y="192" xlink:href="#p" />
<use x="264" y="208" xlink:href="#p" />
<use x="264" y="216" xlink:href="#p" />
<use x="264" y="224" xlink:href="#p" />
<use x="264" y="232" xlink:href="#p" />
<use x="264" y="240" xlink:href="#p" />
<use x="264" y="256" xlink:href="#p" />
<use x="264" y="288" xlink:href="#p" />
<use x="264" y="296" xlink:href="#p" />
<use x="264" y="304" xlink:href="#p" />
<use x="264" y="312" xlink:href="#p" />
<use x="264" y="320" xlink:href="#p" />
<use x="272" y="32" xlink:href="#p" />
<use x="272" y="40" xlink:href="#p" />
<use x="272" y="48" xlink:href="#p" />
<use x="272" y="56" xlink:href="#p" />
<use x="272" y="64" xlink:href="#p" />
<use x="272" y="72" xlink:href="#p" />
<use x="272" y="80" xlink:href="#p" />
<use x="272" y="112" xlink:href="#p" />
<use x="272" y="120" xlink:href="#p" />
<use x="272" y="128" xlink:href="#p" />
<use x="272" y="136" xlink:href="#p" />
<use x="272" y="168" xlink:href="#p" />
<use x="272" y="208" xlink:href="#p" />
<use x="272" y="224" xlink:href="#p" />
<use x="272" y="232" xlink:href="#p" />
<use x="272" y="248" xlink:href="#p" />
<use x="272" y="256" xlink:href="#p" />
<use x="272" y="272" xlink:href="#p" />
<use x="272" y="288" xlink:href="#p" />
<use x="272" y="296" xlink:href="#p" />
<use x="272" y="304" xlink:href="#p" />
<use x="272" y="320" xlink:href="#p" />
<use x="280" y="32" xlink:href="#p" />
<use x="280" y="80" xlink:href="#p" />
<use x="280" y="112" xlink:href="#p" />
<use x="280" y="136" xlink:href="#p" />
<use x="280" y="152" xlink:href="#p" />
<use x="280" y="176" xlink:href="#p" />
<use x="280" y="192" xlink:href="#p" />
<use x="280" y="200" xlink:href="#p" />
<use x="280" y="232" xlink:href="#p" />
<use x="280" y="240" xlink:href="#p" />
<use x="280" y="248" xlink:href="#p" />
<use x="280" y="256" xlink:href="#p" />
<use x="280" y="288" xlink:href="#p" />
<use x="280" y="320" xlink:href="#p" />
<use x="288" y="32" xlink:href="#p" />
<use x="288" y="48" xlink:href="#p" />
<use x="288" y="56" xlink:href="#p" />
<use x="288" y="64" xlink:href="#p" />
<use x="288" y="80" xlink:href="#p" />
<use x="288" y="96" xlink:href="#p" />
<use x="288" y="112" xlink:href="#p" />
<use x="288" y="128" xlink:href="#p" />
<use x="288" y="136" xlink:href="#p" />
<use x="288" y="152" xlink:href="#p" />
<use x="288" y="184" xlink:href="#p" />
<use x="288" y="192" xlink:href="#p" />
<use x="288" y="216" xlink:href="#p" />
<use x="288" y="224" xlink:href="#p" />
<use x="288" y="232" xlink:href="#p" />
<use x="288" y="240" xlink:href="#p" />
<use x="288" y="248" xlink:href="#p" />
<use x="288" y="256" xlink:href="#p" />
<use x="288" y="264" xlink:href="#p" />
<use x="288" y="272" xlink:href="#p" />
<use x="288" y="280" xlink:href="#p" />
<use x="288" y="288" xlink:href="#p" />
<use x="288" y="296" xlink:href="#p" />
<use x="288" y="304" xlink:href="#p" />
<use x="296" y="32" xlink:href="#p" />
<use x="296" y="48" xlink:href="#p" />
<use x="296" y="56" xlink:href="#p" />
<use x="296" y="64" xlink:href="#p" />
<use x="296" y="80" xlink:href="#p" />
<use x="296" y="96" xlink:href="#p" />
<use x="296" y="104" xlink:href="#p" />
<use x="296" y="128" xlink:href="#p" />
<use x="296" y="136" xlink:href="#p" />
<use x="296" y="144" xlink:href="#p" />
<use x="296" y="152" xlink:href="#p" />
<use x="296" y="168" xlink:href="#p" />
<use x="296" y="184" xlink:href="#p" />
<use x="296" y="216" xlink:href="#p" />
<use x="296" y="224" xlink:href="#p" />
<use x="296" y="240" xlink:href="#p" />
<use x="296" y="264" xlink:href="#p" />
<use x="296" y="272" xlink:href="#p" />
<use x="296" y="280" xlink:href="#p" />
<use x="296" y="312" xlink:href="#p" />
<use x="296" y="320" xlink:href="#p" />
<use x="304" y="32" xlink:href="#p" />
<use x="304" y="48" xlink:href="#p" />
<use x="304" y="56" xlink:href="#p" />
<use x="304" y="64" xlink:href="#p" />
<use x="304" y="80" xlink:href="#p" />
<use x="304" y="96" xlink:href="#p" />
<use x="304" y="104" xlink:href="#p" />
<use x="304" y="112" xlink:href="#p" />
<use x="304" y="120" xlink:href="#p" />
<use x="304" y="128" xlink:href="#p" />
<use x="304" y="136" xlink:href="#p" />
<use x="304" y="160" xlink:href="#p" />
<use x="304" y="176" xlink:href="#p" />
<use x="304" y="216" xlink:href="#p" />
<use x="304" y="224" xlink:href="#p" />
<use x="304" y="232" xlink:href="#p" />
<use x="304" y="240" xlink:href="#p" />
<use x="304" y="256" xlink:href="#p" />
<use x="304" y="296" xlink:href="#p" />
<use x="304" y="312" xlink:href="#p" />
<use x="304" y="320" xlink:href="#p" />
<use x="312" y="32" xlink:href="#p" />
<use x="312" y="80" xlink:href="#p" />
<use x="312" y="104" xlink:href="#p" />
<use x="312" y="112" xlink:href="#p" />
<use x="312" y="120" xlink:href="#p" />
<use x="312" y="144" xlink:href="#p" />
<use x="312" y="160" xlink:href="#p" />
<use x="312" y="168" xlink:href="#p" />
<use x="312" y="176" xlink:href="#p" />
<use x="312" y="184" xlink:href="#p" />
<use x="312" y="192" xlink:href="#p" />
<use x="312" y="200" xlink:href="#p" />
<use x="312" y="224" xlink:href="#p" />
<use x="312" y="240" xlink:href="#p" />
<use x="312" y="256" xlink:href="#p" />
<use x="312" y="272" xlink:href="#p" />
<use x="312" y="280" xlink:href="#p" />
<use x="312" y="296" xlink:href="#p" />
<use x="312" y="320" xlink:href="#p" />
<use x="320" y="32" xlink:href="#p" />
<use x="320" y="40" xlink:href="#p" />
<use x="320" y="48" xlink:href="#p" />
<use x="320" y="56" xlink:href="#p" />
<use x="320" y="64" xlink:href="#p" />
<use x="320" y="72" xlink:href="#p" />
<use x="320" y="80" xlink:href="#p" />
<use x="320" y="96" xlink:href="#p" />
<use x="320" y="120" xlink:href="#p" />
<use x="320" y="128" xlink:href="#p" />
<use x="320" y="136" xlink:href="#p" />
<use x="320" y="152" xlink:href="#p" />
<use x="320" y="168" xlink:href="#p" />
<use x="320" y="176" xlink:href="#p" />
<use x="320" y="224" xlink:href="#p" />
<use x="320" y="232" xlink:href="#p" />
<use x="320" y="248" xlink:href="#p" />
<use x="320" y="256" xlink:href="#p" />
<use x="320" y="264" xlink:href="#p" />
<use x="320" y="272" xlink:href="#p" />
<use x="320" y="280" xlink:href="#p" />
<use x="320" y="288" xlink:href="#p" />
<use x="320" y="296" xlink:href="#p" />
<use x="320" y="320" xlink:href="#p" />
</g>
</svg>