<svg xmlns="http://www.w3.org/2000/svg" xmlns:xlink="http://www.w3.org/1999/xlink" width="411" height="380" viewBox="0 0 411 380">
  <defs>
    <linearGradient id="ambassador-logo-a" x1="50%" x2="50%" y1="0%" y2="100%">
      <stop offset="0%" stop-color="#A4EDFF"/>
      <stop offset="9.95%" stop-color="#7BCFE4"/>
      <stop offset="25.985%" stop-color="#4DB4CE"/>
      <stop offset="81.015%" stop-color="#3BA1BB"/>
      <stop offset="100%" stop-color="#257D94"/>
    </linearGradient>
    <path id="ambassador-logo-b" d="M267.470559,143.917454 C252.423585,114.34083 223.53734,110 192.661359,110 C159.413188,112.601411 128.591843,120.324399 117.111716,154.323909 C106.111083,187.11858 116.494409,220.734622 115.163568,254.310041 C114.382352,273.562267 110.843231,297.005022 113.490233,318.201399 C137.713644,333.140418 166.216619,342 196.817788,342 C226.088117,342 253.424977,334.003222 276.907129,320.22842 C282.078813,296.827099 279.513358,271.056723 278.114834,247.956815 C276.180549,212.820711 280.967334,177.109405 267.470559,143.917454 Z"/>
    <filter id="ambassador-logo-c" width="102.4%" height="101.7%" x="-1.2%" y="-.9%" filterUnits="objectBoundingBox">
      <feGaussianBlur in="SourceAlpha" result="shadowBlurInner1" stdDeviation="1"/>
      <feOffset dy="2" in="shadowBlurInner1" result="shadowOffsetInner1"/>
      <feComposite in="shadowOffsetInner1" in2="SourceAlpha" k2="-1" k3="1" operator="arithmetic" result="shadowInnerInner1"/>
      <feColorMatrix in="shadowInnerInner1" values="0 0 0 0 1   0 0 0 0 1   0 0 0 0 1  0 0 0 0.280157343 0"/>
    </filter>
    <linearGradient id="ambassador-logo-f" x1="40.031%" x2="71.141%" y1="91.607%" y2="17.475%">
      <stop offset="0%" stop-color="#A65F00"/>
      <stop offset="31.019%" stop-color="#DD7E00"/>
      <stop offset="100%" stop-color="#FFC478"/>
    </linearGradient>
    <path id="ambassador-logo-d" d="M2.51613167,1.72895879e-13 C2.51613167,1.72895879e-13 4.45749595,21.0796188 4.37538632,30.1160586 C4.2249875,39.1792646 12.9082839,33.4926584 13.3733008,47.7095794 C13.8383177,62.0092323 8.06788069,59.2198672 5.07291168,66.2334292 C2.05111477,73.2048142 -4.04353266e-14,105.986951 -4.04353266e-14,105.986951 C-4.04353266e-14,105.986951 3.06244524,112.152105 12.7578851,117.57916 C22.4533249,123.115713 37.9866781,126.178418 51.4429015,125.562795 C64.8983119,124.947983 74.5108292,122.076697 76.876562,120.491001 C79.2837562,118.905304 83.2355869,113.861088 84.7810364,109.992152 C86.325673,106.082661 89.3889312,74.024834 89.1564227,55.665637 C88.9239143,37.2926513 85.9427657,20.3958634 85.9427657,20.3958634 L2.51613167,1.72895879e-13 Z"/>
    <filter id="ambassador-logo-e" width="129.2%" height="120.7%" x="-14.6%" y="-8.8%" filterUnits="objectBoundingBox">
      <feOffset dy="2" in="SourceAlpha" result="shadowOffsetOuter1"/>
      <feGaussianBlur in="shadowOffsetOuter1" result="shadowBlurOuter1" stdDeviation="4"/>
      <feColorMatrix in="shadowBlurOuter1" result="shadowMatrixOuter1" values="0 0 0 0 0   0 0 0 0 0   0 0 0 0 0  0 0 0 0.438100962 0"/>
      <feOffset dy="2" in="SourceAlpha" result="shadowOffsetOuter2"/>
      <feColorMatrix in="shadowOffsetOuter2" result="shadowMatrixOuter2" values="0 0 0 0 0   0 0 0 0 0   0 0 0 0 0  0 0 0 0.0702032343 0"/>
      <feMerge>
        <feMergeNode in="shadowMatrixOuter1"/>
        <feMergeNode in="shadowMatrixOuter2"/>
      </feMerge>
    </filter>
    <filter id="ambassador-logo-g" width="120.2%" height="114.3%" x="-10.1%" y="-5.6%" filterUnits="objectBoundingBox">
      <feGaussianBlur in="SourceAlpha" result="shadowBlurInner1" stdDeviation="1"/>
      <feOffset in="shadowBlurInner1" result="shadowOffsetInner1"/>
      <feComposite in="shadowOffsetInner1" in2="SourceAlpha" k2="-1" k3="1" operator="arithmetic" result="shadowInnerInner1"/>
      <feColorMatrix in="shadowInnerInner1" values="0 0 0 0 1   0 0 0 0 1   0 0 0 0 1  0 0 0 0.5 0"/>
    </filter>
    <linearGradient id="ambassador-logo-h" x1="2.826%" x2="100%" y1="46.923%" y2="50%">
      <stop offset="0%" stop-color="#DBD6D6"/>
      <stop offset="100%" stop-color="#FFF"/>
    </linearGradient>
    <linearGradient id="ambassador-logo-j" x1="2.826%" x2="100%" y1="46.705%" y2="50%">
      <stop offset="0%" stop-color="#DBD6D6"/>
      <stop offset="100%" stop-color="#FFF"/>
    </linearGradient>
    <linearGradient id="ambassador-logo-m" x1="50%" x2="28.793%" y1="93.236%" y2="17.873%">
      <stop offset="0%" stop-color="#A65F00"/>
      <stop offset="0%" stop-color="#AF6400"/>
      <stop offset="31.019%" stop-color="#DD7E00"/>
      <stop offset="100%" stop-color="#FFC478"/>
    </linearGradient>
    <path id="ambassador-logo-k" d="M82.2380764,1.72895879e-13 C82.2380764,1.72895879e-13 82.0067161,21.0796188 82.0884203,30.1160586 C82.2380764,39.1792646 76.8091997,33.4926584 76.3464792,47.7095794 C75.8837587,62.0092323 81.6256997,59.2198672 84.6738307,66.2334292 C87.7219617,73.2048142 89.8033952,105.986951 89.8033952,105.986951 C89.8033952,105.986951 86.674369,112.152105 76.9588559,117.57916 C67.2433427,123.115713 51.5820327,126.178418 38.0434126,125.562795 C24.5047925,124.947983 14.7892794,122.076697 12.3947816,120.491001 C9.93152288,118.863938 5.9854552,113.861088 4.44844646,109.992152 C2.91062878,106.082661 -0.219206377,74.024834 0.0121538853,55.665637 C0.243514147,37.3064399 3.29164515,20.3958634 3.29164515,20.3958634 L82.2380764,1.72895879e-13 Z"/>
    <filter id="ambassador-logo-l" width="129%" height="120.7%" x="-14.5%" y="-8.8%" filterUnits="objectBoundingBox">
      <feOffset dy="2" in="SourceAlpha" result="shadowOffsetOuter1"/>
      <feGaussianBlur in="shadowOffsetOuter1" result="shadowBlurOuter1" stdDeviation="4"/>
      <feColorMatrix in="shadowBlurOuter1" result="shadowMatrixOuter1" values="0 0 0 0 0   0 0 0 0 0   0 0 0 0 0  0 0 0 0.438100962 0"/>
      <feOffset dy="2" in="SourceAlpha" result="shadowOffsetOuter2"/>
      <feColorMatrix in="shadowOffsetOuter2" result="shadowMatrixOuter2" values="0 0 0 0 0   0 0 0 0 0   0 0 0 0 0  0 0 0 0.0702032343 0"/>
      <feMerge>
        <feMergeNode in="shadowMatrixOuter1"/>
        <feMergeNode in="shadowMatrixOuter2"/>
      </feMerge>
    </filter>
    <filter id="ambassador-logo-n" width="120%" height="114.3%" x="-10%" y="-5.6%" filterUnits="objectBoundingBox">
      <feGaussianBlur in="SourceAlpha" result="shadowBlurInner1" stdDeviation="1"/>
      <feOffset in="shadowBlurInner1" result="shadowOffsetInner1"/>
      <feComposite in="shadowOffsetInner1" in2="SourceAlpha" k2="-1" k3="1" operator="arithmetic" result="shadowInnerInner1"/>
      <feColorMatrix in="shadowInnerInner1" values="0 0 0 0 1   0 0 0 0 1   0 0 0 0 1  0 0 0 0.5 0"/>
    </filter>
    <linearGradient id="ambassador-logo-o" x1="97.084%" x2="2.826%" y1="48.894%" y2="50%">
      <stop offset="0%" stop-color="#DBD6D6"/>
      <stop offset="100%" stop-color="#FFF"/>
    </linearGradient>
    <linearGradient id="ambassador-logo-q" x1="97.084%" x2="2.826%" y1="48.813%" y2="50%">
      <stop offset="0%" stop-color="#DBD6D6"/>
      <stop offset="100%" stop-color="#FFF"/>
    </linearGradient>
    <linearGradient id="ambassador-logo-r" x1="42.747%" x2="62.355%" y1="13.879%" y2="80.836%">
      <stop offset="0%" stop-color="#EBF29E"/>
      <stop offset="100%" stop-color="#D2E065"/>
    </linearGradient>
    <linearGradient id="ambassador-logo-s" x1="43.711%" x2="60.712%" y1="13.879%" y2="80.836%">
      <stop offset="0%" stop-color="#EBF29E"/>
      <stop offset="100%" stop-color="#D2E065"/>
    </linearGradient>
    <linearGradient id="ambassador-logo-t" x1="50%" x2="50%" y1="1.175%" y2="100%">
      <stop offset="0%" stop-color="#C73867"/>
      <stop offset="100%" stop-color="#901550"/>
    </linearGradient>
    <linearGradient id="ambassador-logo-u" x1="50%" x2="50%" y1="0%" y2="100%">
      <stop offset="0%" stop-color="#929393"/>
      <stop offset="100%" stop-color="#505151"/>
    </linearGradient>
    <linearGradient id="ambassador-logo-v" x1="50%" x2="50%" y1="0%" y2="100%">
      <stop offset="1.175%" stop-color="#C73867"/>
      <stop offset="100%" stop-color="#901550"/>
    </linearGradient>
    <linearGradient id="ambassador-logo-w" x1="50%" x2="50%" y1="0%" y2="100%">
      <stop offset="0%" stop-color="#929393"/>
      <stop offset="100%" stop-color="#505151"/>
    </linearGradient>
    <linearGradient id="ambassador-logo-x" x1="50%" x2="50%" y1="0%" y2="100%">
      <stop offset="1.175%" stop-color="#C73867"/>
      <stop offset="100%" stop-color="#901550"/>
    </linearGradient>
    <filter id="ambassador-logo-y" width="105.1%" height="105.5%" x="-2.5%" y="-2.8%" filterUnits="objectBoundingBox">
      <feGaussianBlur in="SourceGraphic" stdDeviation="3.301"/>
    </filter>
    <linearGradient id="ambassador-logo-B" x1="51.149%" x2="50%" y1="7.614%" y2="92.386%">
      <stop offset="0%" stop-color="#FFE3C3"/>
      <stop offset="33.588%" stop-color="#FFC06E"/>
      <stop offset="100%" stop-color="#E39227"/>
    </linearGradient>
    <path id="ambassador-logo-A" d="M276.908226,353.843059 C258.93136,359.482831 242.03543,362.515623 224.673804,357.341558 C217.155201,355.078159 210.689088,350.92018 207.394264,342.013949 C231.412995,342.48047 255.637348,335.757035 276.908226,353.843059 Z M184.113495,340.916445 C182.869199,346.473985 179.575188,350.480527 175.049884,352.27822 C168.269243,355.036636 161.023719,357.300849 153.779007,358.384512 C142.759957,359.935511 126.410185,356.944242 115.788563,352.580278 C122.418848,344.992192 130.82577,341.492879 139.971467,341.067067 C154.544602,340.367693 169.144558,340.916445 184.113495,340.916445 Z M318.097591,330.034218 C297.208699,345.280409 263.306307,350.06937 253.230843,331.667447 C257.332224,330.913939 261.40987,329.910279 265.47805,328.869455 L268.046302,328.209139 C284.519552,323.96591 300.886694,319.848767 318.097591,330.034218 Z M97.9620529,323.21471 C111.523334,325.012403 124.93426,328.085903 139.506583,330.802796 C133.573624,339.324738 126.410185,342.316007 118.386061,343.016195 C102.104559,344.415758 87.7776816,338.542319 73.546951,330.103422 C81.10676,324.229983 89.473045,322.130233 97.9620529,323.21471 Z M245.835775,298.007121 C249.211872,306.912538 248.159382,314.542146 242.623037,321.348627 C234.680186,331.104854 223.525411,335.660963 211.809848,339.283215 C210.483466,339.639823 209.171713,339.915013 207.54462,340.25778 C206.847294,334.151487 209.171713,328.896005 212.780253,324.696504 C217.237287,319.441021 222.390834,314.583669 227.735373,310.301937 C233.272531,305.828874 239.437932,302.24733 245.835775,298.007121 Z M145.849973,297.622831 C170.005243,310.233546 185.49433,325.245256 184.059042,339.008839 C172.506839,336.127483 162.090026,331.969505 153.245853,324.381419 C144.523591,316.87475 141.857823,307.036292 145.849973,297.622831 Z M274.228641,283.790857 C280.544398,289.348398 282.021136,299.269088 277.673821,308.065406 C272.260199,318.672443 263.114502,325.245256 252.069446,331.283158 C249.212067,314.576342 256.919799,303.647213 265.78281,293.424235 L266.48475,292.618533 C266.719416,292.350393 266.95471,292.082649 267.190461,291.81521 L267.898915,291.013712 C268.135409,290.746788 268.372189,290.480077 268.609083,290.213484 L269.319935,289.413973 C269.43841,289.28075 269.556871,289.147534 269.675296,289.014312 L270.385246,288.214835 L270.385246,288.214835 L271.093309,287.414687 C272.153472,286.213686 273.203792,285.00855 274.228641,283.790857 Z M117.374207,283.076828 C118.536173,284.438124 119.726991,285.783902 120.925744,287.12469 L121.645781,287.928647 C122.126216,288.464332 122.607253,288.999555 123.08755,289.53499 L123.807276,290.338386 C133.631378,301.322607 142.863825,312.537524 139.971467,329.787523 C117.921177,324.888648 104.82478,297.937916 117.374207,283.076828 Z M350.454974,299.076943 C331.972588,319.02905 305.315721,327.166703 290.810856,313.622946 C305.466077,299.804813 336.279266,292.188231 350.454974,299.076943 Z M65.4403345,295.715225 C70.5121205,297.032556 75.5154743,298.940162 80.2454243,301.12133 C87.3404306,304.346266 94.2714272,308.010042 101.749394,311.660791 C93.4920152,319.248877 84.2780485,320.181918 74.695263,318.082168 C61.4622448,315.324566 50.9223837,307.653434 40.9566379,297.855684 C49.2135289,293.766911 57.3474533,293.656998 65.4403345,295.715225 Z M296.93562,262.273911 C312.397074,273.36131 308.911257,296.071833 289.074855,312.223384 C280.315394,294.535653 287.777535,280.170936 295.254043,265.575171 L295.736257,264.633153 C296.13785,263.847812 296.538477,263.061582 296.93562,262.273911 Z M94.4355995,261.094175 C107.449911,280.812615 110.361125,298.706495 102.459723,310.301937 C83.4718162,297.389164 79.3979052,273.539614 94.4355995,261.094175 Z M373.20259,261.656768 C364.330784,279.70127 339.833352,299.186856 320.270842,287.180257 C332.20503,270.095665 358.794439,257.251282 373.20259,261.656768 Z M71.8380962,285.766854 C51.797292,298.06167 27.395519,278.260185 18.5918204,260.407828 C33.6292709,255.070114 52.3577534,266.664742 71.8380962,285.766854 Z M312.943231,236.640509 C330.264221,242.938946 332.902356,268.229582 318.097591,286.04123 C306.441911,273.13116 307.779232,259.097981 310.984925,244.819959 L311.21693,243.799696 C311.334372,243.289368 311.453858,242.778754 311.574883,242.267895 L311.818835,241.245861 C312.105488,240.053133 312.398678,238.859214 312.691966,237.664611 L312.943231,236.640509 L312.943231,236.640509 Z M78.0034973,235.419251 C85.6312508,254.054027 85.0980972,274.788554 73.4649461,284.394159 C60.8334325,268.051278 59.3570197,244.489945 78.0034973,235.419251 Z M386.914227,220.654236 C382.813171,244.613699 358.862709,263.097039 341.460446,255.783329 C351.001944,235.200238 371.726664,219.130919 386.914227,220.654236 Z M4.53859096,218.732789 C26.1588083,219.77116 36.2143363,234.645987 46.9637199,248.876102 L47.6895877,249.834294 C48.7803835,251.269625 49.8810917,252.695035 51.0043886,254.09555 C33.8617129,262.109448 11.3875014,245.038697 4.53859096,218.732789 Z M322.403456,208.606113 C341.501083,211.007922 348.172004,234.184151 339.218112,255.316808 C323.296976,244.055861 322.341708,228.090739 322.386323,211.740578 L322.390395,210.69647 C322.391255,210.522378 322.392194,210.348254 322.393197,210.174101 L322.399828,209.128892 C322.401014,208.954648 322.402229,208.780387 322.403456,208.606113 Z M69.4047703,206.876811 C69.5552074,224.812214 69.4868564,242.005905 52.9319501,253.821174 C44.6749778,238.850173 46.9716019,211.858732 69.4047703,206.876811 Z M390.988463,177.676521 C391.452534,195.913167 377.892065,225.402489 354.679566,221.202988 C359.518585,199.220335 375.950444,179.501081 390.988463,177.676521 Z M352.546952,221.271378 C334.376688,213.777345 329.686477,198.438226 326.157442,182.286225 L325.933643,181.25421 C325.785337,180.565554 325.638658,179.875698 325.492659,179.185182 C342.745378,176.42758 355.376892,195.830935 352.546952,221.271378 Z M2.48689958e-14,176.495971 C15.6526488,177.813301 27.9424077,193.030997 37.3612647,220.173874 C26.8624467,221.573436 18.7285223,217.415458 12.3307606,209.703618 C4.60693378,200.153376 1.73614556,188.790787 2.48689958e-14,176.495971 Z M65.6044256,177.552766 C65.9461802,195.515036 53.984522,214.932232 39.2477832,219.638963 C36.3770437,195.062357 47.5047554,177.40133 65.6044256,177.552766 Z M385.683747,134.533529 C390.605665,158.725845 380.407478,184.249334 358.944795,185.100144 C363.551372,165.696789 364.563226,145.112884 385.683747,134.533529 Z M357.632229,185.017912 C343.373622,183.768972 329.963509,171.487182 322.485542,149.188631 C339.450554,144.646363 355.923049,161.332825 357.632229,185.017912 Z M69.5552074,147.706837 C63.0070899,168.441364 48.6668027,182.904321 34.4085204,183.535305 C34.4085204,161.634883 51.2641384,144.248233 69.5552074,147.706837 Z M5.42719381,132.886458 C23.3179953,141.877314 27.2369081,157.335739 30.5478815,173.095972 L30.7892568,174.249609 L30.7892568,174.249609 L31.1497961,175.98091 C31.6708301,178.481684 32.1970652,180.980595 32.7817518,183.453073 C22.816006,183.837363 13.7524764,177.346781 9.18653612,166.766611 C4.60696629,156.227965 4.41558366,145.222797 5.42719381,132.886458 Z M354.679566,149.202472 C334.547427,149.729274 323.751769,136.69891 313.280675,123.054228 L311.972827,121.346379 L311.972827,121.346379 C327.161202,112.550061 349.183858,126.986151 354.679566,149.202472 Z M370.878983,93.8330537 C381.186077,116.090897 376.880211,144.262074 355.923862,148.529965 C355.967555,146.959069 355.981417,145.383602 355.979426,143.806819 L355.975178,142.624036 C355.873432,124.880107 354.20753,107.072473 370.878983,93.8330537 Z M80.0950685,119.863772 C79.321869,120.881992 78.5496074,121.897184 77.7748607,122.904674 L77.1101036,123.766243 C67.0163028,136.801447 56.3372386,148.30939 37.5526636,148.021922 C42.7064545,125.312213 63.4718112,111.932919 80.0950685,119.863772 Z M20.109195,92.7900989 C33.3558672,100.611853 38.359221,118.848499 35.4884815,147.006649 C26.9307976,146.155839 18.7421762,137.55248 16.541211,127.054542 C14.1489281,115.390709 16.1584945,104.179556 20.109195,92.7900989 Z M343.469525,113.799002 C331.822232,119.521005 311.31695,111.699251 295.308526,95.204934 C311.507943,85.0920995 333.203067,93.6132271 343.469525,113.799002 Z M96.1439666,93.8737623 C84.1691421,108.968517 61.9953984,117.805544 48.051563,112.892828 C59.3706736,92.1591153 81.10676,83.6786963 96.1439666,93.8737623 Z M346.846435,56.5358191 C363.661091,79.1364289 362.895495,105.853494 344.904813,113.593016 C344.330738,110.701076 343.634528,107.814994 342.916446,104.934773 L342.628284,103.782996 C342.435716,103.015354 342.242543,102.248128 342.050666,101.481319 L341.621934,99.7567027 C338.033554,85.1992112 335.428041,70.7921785 346.846435,56.5358191 Z M44.8663767,55.1772911 C56.8963371,70.1730428 53.4754546,85.3441868 49.624117,100.754419 L49.3346943,101.910635 C48.4654129,105.380636 47.59335,108.862821 46.889597,112.357917 C36.2676497,107.610478 31.0455892,96.5637877 33.0141125,83.5003926 C34.599838,73.304431 38.5506198,64.165428 44.8663767,55.1772911 Z M325.274033,82.6764502 C306.371886,90.82866 290.681942,83.169838 274.833033,75.1779339 L273.821152,74.6675091 C273.652458,74.5824126 273.483738,74.4973156 273.314988,74.4122369 L272.302095,73.9021322 C272.133208,73.8172009 271.964283,73.732325 271.795315,73.6475233 C285.356597,60.2819888 308.910444,64.2065437 325.274033,82.6764502 Z M120.013155,72.3987457 L118.489972,73.1634473 L118.489972,73.1634473 L117.475701,73.6739838 C101.422584,81.7562339 85.6376511,89.6672595 66.5340308,81.428324 C82.9248462,62.9578476 106.520143,59.0195332 120.013155,72.3987457 Z M313.572287,25.2352894 C324.071187,35.0741549 332.669914,45.5854454 335.007337,59.8977809 C336.319903,68.0213482 333.29897,75.6920728 326.914943,81.0985842 C312.560433,65.6061874 305.848875,38.4497949 313.572287,25.2352894 Z M78.386295,23.904199 C82.7606739,31.0947248 82.9248462,38.2989287 81.3253854,45.612883 C79.3842513,54.7519675 71.2503269,71.8361526 65.3173679,79.8087724 C57.6072844,74.7178342 54.5450648,64.165428 58.0720057,53.2012949 C61.6946868,41.4413083 69.1314478,32.3846181 78.386295,23.904199 Z M298.60335,55.136094 C283.228566,65.8536282 267.637664,63.1474858 251.970986,59.4460985 L250.838325,59.1769686 C249.516737,58.8613669 248.194635,58.5408164 246.872102,58.2227725 L245.738399,57.9509513 C245.549432,57.905808 245.360456,57.8607594 245.171472,57.8158271 L244.037475,57.5478037 L244.037475,57.5478037 L242.903296,57.2836164 C242.714251,57.2399629 242.5252,57.1965126 242.336142,57.1532874 C250.75688,41.221726 277.87863,40.1650931 298.60335,55.136094 Z M149.77304,55.7948408 C148.626354,56.063249 147.480849,56.3393635 146.336512,56.6185129 L144.62088,57.0389293 L144.62088,57.0389293 L143.478092,57.320006 C142.716491,57.5073152 141.955403,57.6942431 141.194824,57.8794058 L140.054336,58.1556528 C139.294265,58.3387042 138.534701,58.5192982 137.775639,58.6960508 L136.637422,58.9581257 C122.03513,62.2800054 107.618204,63.9219587 93.3554759,54.0109078 C109.472806,41.9490261 137.798216,37.0090355 149.77304,55.7948408 Z M269.389622,0.768458185 C282.568106,7.72561777 292.984919,15.3964238 299.998002,26.9093905 C305.616433,36.1307878 305.301905,45.9284562 299.068234,53.9834702 C297.278772,51.7665018 295.372212,49.6243019 293.421517,47.5098035 L292.583016,46.6051487 C292.162627,46.1535321 291.74069,45.7028787 291.317922,45.2527255 L290.471494,44.3529487 C289.4832,43.3036669 288.492992,42.2554271 287.509991,41.2023459 L286.669397,40.298382 C276.888021,29.7351024 268.087947,18.5195881 269.389622,0.768458185 Z M121.448443,6.39488462e-14 C124.127215,6.18874536 123.074724,12.0618996 120.36832,17.0018902 C116.294084,24.3570417 111.304709,31.2319129 106.191799,37.8872018 C102.063109,43.0742123 97.264727,47.5888793 92.3436219,52.9131593 C86.492749,43.8838253 86.492749,35.4858005 91.0310563,27.1564104 C97.811697,14.6279266 108.939653,6.73764406 121.448443,6.39488462e-14 Z M282.718462,42.2646807 C265.78027,47.6711921 235.870029,33.1255963 224.78271,13.790876 C246.0544,10.7582469 272.642997,23.9865933 282.718462,42.2646807 Z M167.585734,11.609057 C160.163033,26.6623706 134.038508,44.638563 109.814967,40.70033 C119.384099,22.2575355 145.344452,9.23509327 167.585734,11.609057 Z"/>
    <filter id="ambassador-logo-z" width="104.3%" height="104.7%" x="-2.2%" y="-1.8%" filterUnits="objectBoundingBox">
      <feOffset dy="2" in="SourceAlpha" result="shadowOffsetOuter1"/>
      <feGaussianBlur in="shadowOffsetOuter1" result="shadowBlurOuter1" stdDeviation="2.5"/>
      <feColorMatrix in="shadowBlurOuter1" values="0 0 0 0 0   0 0 0 0 0   0 0 0 0 0  0 0 0 0.357599432 0"/>
    </filter>
    <filter id="ambassador-logo-C" width="103.1%" height="103.3%" x="-1.5%" y="-1.1%" filterUnits="objectBoundingBox">
      <feGaussianBlur in="SourceAlpha" result="shadowBlurInner1" stdDeviation="1"/>
      <feOffset in="shadowBlurInner1" result="shadowOffsetInner1"/>
      <feComposite in="shadowOffsetInner1" in2="SourceAlpha" k2="-1" k3="1" operator="arithmetic" result="shadowInnerInner1"/>
      <feColorMatrix in="shadowInnerInner1" values="0 0 0 0 1   0 0 0 0 1   0 0 0 0 1  0 0 0 0.505709135 0"/>
    </filter>
    <linearGradient id="ambassador-logo-D" x1="50%" x2="50%" y1="0%" y2="100%">
      <stop offset="0%" stop-color="#FBEBCF"/>
      <stop offset="100%" stop-color="#F6D2A2"/>
    </linearGradient>
  </defs>
  <g fill="none" fill-rule="evenodd" transform="translate(10 8)">
    <path fill="#8C5406" fill-rule="nonzero" d="M108,200.679512 C108,200.679512 129.161406,182 191.882327,182 C249.390767,182 265.600073,195.165138 282,200.679512 L196.329888,243 L108,200.679512 Z"/>
    <path fill="#F6D2A2" fill-rule="nonzero" d="M98.871319,257.022376 C99.2512733,265.200445 107.175459,261.433365 110.839478,258.814522 C114.299402,256.350218 115.262598,258.422361 115.57479,253.61921 C115.805506,250.482747 116.117697,247.30391 115.954745,244.096824 C110.758002,243.620746 105.181304,244.895272 100.947757,248.031735 C98.6406036,249.754921 94.6111513,254.949403 98.871319,257.022376 Z"/>
    <path fill="#C6B199" fill-rule="nonzero" d="M99,257 C100.085252,256.468707 101.247154,256.108948 102,255 L99,257 Z"/>
    <path fill="#F6D2A2" fill-rule="nonzero" d="M293.138307,256.022376 C292.758139,264.200445 284.8295,260.433365 281.163422,257.814522 C277.701554,255.350218 276.737816,257.422361 276.425449,252.61921 C276.194604,249.482747 275.882236,246.30391 276.045281,243.096824 C281.244944,242.620746 286.824776,243.895272 291.060702,247.031735 C293.28763,248.670174 297.41459,253.949403 293.138307,256.022376 Z"/>
    <path fill="#E3E0E4" fill-rule="nonzero" d="M293,256 C291.914748,255.468953 290.752846,255.109361 290,254 L293,256 Z"/>
    <use fill="url(#ambassador-logo-a)" xlink:href="#ambassador-logo-b"/>
    <use fill="#000" filter="url(#ambassador-logo-c)" xlink:href="#ambassador-logo-b"/>
    <path fill="#FFF" fill-rule="nonzero" d="M204.541343 190.190593C204.541343 194.448609 205.465063 199.269524 204.690721 203.851937 203.617623 205.918401 201.566705 206.128549 199.801624 207 197.342945 206.606388 195.224202 204.93437 194.219737 202.502648 193.608499 197.288121 194.450667 192.22787 194.600045 187L204.541343 190.190593zM182.988336 189.90789C179.736822 197.768217 184.82388 213.490469 193.622141 201.84693 193.014839 196.852963 193.851584 192.007544 194 187L182.988336 189.90789z"/>
    <g transform="translate(105 201)">
      <mask id="ambassador-logo-i" fill="#fff">
        <use xlink:href="#ambassador-logo-d"/>
      </mask>
      <use fill="#000" filter="url(#ambassador-logo-e)" xlink:href="#ambassador-logo-d"/>
      <use fill="url(#ambassador-logo-f)" xlink:href="#ambassador-logo-d"/>
      <use fill="#000" filter="url(#ambassador-logo-g)" xlink:href="#ambassador-logo-d"/>
      <path fill="url(#ambassador-logo-h)" fill-rule="nonzero" d="M87.7207237,89.4730013 C48.1471348,93.9291722 2.17387273,81.7213403 2.17387273,81.7213403 C2.17387273,81.7213403 2.87139808,69.3634554 5.78425747,64.9754167 C46.9845925,77.7299284 88.5003587,73.6152296 88.5003587,73.6152296 C89.1157744,79.3975453 88.7190467,84.0183691 87.7207237,89.4730013 Z" mask="url(#ambassador-logo-i)"/>
      <path fill="url(#ambassador-logo-j)" fill-rule="nonzero" d="M82.7161012,113.819722 C43.1425123,118.276704 -3.00377778e-13,105.522192 -3.00377778e-13,105.522192 C-3.00377778e-13,105.522192 -0.150398824,93.629066 1.47634737,88.3926191 C42.6774954,101.147131 86.6402911,98.0033161 86.6402911,98.0033161 C86.2435634,104.319334 85.3549908,110.443122 82.7161012,113.819722 Z" mask="url(#ambassador-logo-i)"/>
    </g>
    <g transform="translate(200 201)">
      <mask id="ambassador-logo-p" fill="#fff">
        <use xlink:href="#ambassador-logo-k"/>
      </mask>
      <use fill="#000" filter="url(#ambassador-logo-l)" xlink:href="#ambassador-logo-k"/>
      <use fill="url(#ambassador-logo-m)" xlink:href="#ambassador-logo-k"/>
      <use fill="#000" filter="url(#ambassador-logo-n)" xlink:href="#ambassador-logo-k"/>
      <path fill="url(#ambassador-logo-o)" fill-rule="nonzero" d="M1.50952397,89.4730013 C41.4313034,93.9291722 87.7082096,81.7213403 87.7082096,81.7213403 C87.7082096,81.7213403 87.0141288,69.3634554 84.0477019,64.9754167 C42.5064006,77.7299284 0.65203489,73.6557845 0.65203489,73.6557845 C0.0396582521,79.3975453 0.434426811,84.0183691 1.50952397,89.4730013 Z" mask="url(#ambassador-logo-p)"/>
      <path fill="url(#ambassador-logo-q)" fill-rule="nonzero" d="M6.44817572,113.819722 C46.3707641,118.276704 89.8446517,105.522192 89.8446517,105.522192 C89.8446517,105.522192 89.9943078,93.629066 88.374786,88.3926191 C46.8334847,101.147131 2.55711677,98.0033161 2.55711677,98.0033161 C2.93813314,104.319334 3.86276524,110.443122 6.44817572,113.819722 Z" mask="url(#ambassador-logo-p)"/>
    </g>
    <path fill="url(#ambassador-logo-r)" fill-rule="nonzero" d="M298.597862,239.110665 C297.408395,241.518221 294.961147,242.598253 293.123098,241.668338 L291.662786,240.88854 C289.932433,239.958625 289.47272,237.278424 290.662991,234.884663 L318.402491,181.889227 C319.591958,179.482483 322.038402,178.401639 323.877254,179.331554 L325.337566,180.111353 C327.06792,181.041268 327.526829,183.72228 326.337362,186.11523 L298.597862,239.110665 Z"/>
    <path fill="#191919" fill-rule="nonzero" d="M284.362249,264.694427 C283.652133,266.104324 281.563994,266.380727 279.7407,265.482624 L278.236876,264.694427 C276.454964,263.754496 275.508142,261.832803 276.259641,260.422906 L289.638463,235.305573 C290.348579,233.895676 292.436718,233.619273 294.260012,234.517376 L295.763836,235.305573 C297.545748,236.245504 298.491742,238.167197 297.740244,239.577094 L284.362249,264.694427 Z"/>
    <path fill="#F6D2A2" fill-rule="nonzero" d="M290.764141,251.167037 C291.681113,248.678682 289.843116,245.691839 286.660065,244.495467 C283.476204,243.298278 280.152891,244.345103 279.23592,246.833458 C278.318948,249.321813 280.156134,252.308656 283.339996,253.505028 C286.523046,254.7014 289.84717,253.654574 290.764141,251.167037 Z"/>
    <path fill="url(#ambassador-logo-s)" fill-rule="nonzero" d="M94.2335078,239.954483 C95.4000016,242.354821 97.77296,243.622542 99.6393502,242.695415 L101.121531,241.999664 C102.987106,241.154247 103.536092,238.482081 102.43812,236.082553 L76.7666901,182.045423 C75.600441,179.645894 73.2267484,178.377364 71.3606846,179.304492 L69.8789111,180.000242 C68.0128473,180.845659 67.4640242,183.517825 68.5616704,185.918162 L94.2335078,239.954483 Z"/>
    <path fill="#191919" fill-rule="nonzero" d="M106.459322,266.566704 C107.173316,267.958443 109.202956,268.422356 111.10694,267.576302 L112.618143,266.880027 C114.522127,266.033973 115.431679,264.205849 114.801733,262.81411 L102.540678,237.433296 C101.826684,236.041557 99.7970439,235.577644 97.8930603,236.423698 L96.3818565,237.119163 C94.4778729,237.965217 93.5683213,239.794151 94.1982669,241.18589 L106.459322,266.566704 Z"/>
    <path fill="#F6D2A2" fill-rule="nonzero" d="M110.660026,254.505028 C113.843872,253.308656 115.681049,250.321813 114.764082,247.833458 C113.847115,245.345103 110.523008,244.298278 107.339974,245.495467 C104.156128,246.691839 102.318951,249.678682 103.235918,252.167037 C104.152885,254.654574 107.476992,255.7014 110.660026,254.505028 Z"/>
    <path fill="url(#ambassador-logo-t)" fill-rule="nonzero" d="M117.666043,173.651372 C116.462137,175.88468 113.589031,176.697833 111.22189,175.333307 L108.539945,173.844435 C106.254963,172.520812 105.324376,169.666595 106.528282,167.515912 L134.454843,116.348628 C135.65875,114.11532 138.531856,113.302167 140.898996,114.666693 L143.580942,116.155565 C145.865924,117.479188 146.522378,119.864655 145.591791,122.484906 C135.823067,150.860183 117.666043,173.651372 117.666043,173.651372 Z"/>
    <path fill="url(#ambassador-logo-u)" fill-rule="nonzero" d="M125.150915,144.068375 C133.537142,128.630049 139.114246,115.361448 137.811335,113.928733 L137.811335,113.846123 C137.811335,113.846123 137.729853,113.846123 137.729853,113.764323 C124.770933,106.680123 107.37405,113.682524 98.7304675,129.393786 C90.1135082,145.105858 93.6140219,163.670399 106.424498,170.9182 L106.505981,171 L106.505981,170.9182 C108.500281,171.232441 116.655776,159.397364 125.150915,144.068375 Z"/>
    <path fill="url(#ambassador-logo-v)" fill-rule="nonzero" d="M271.116925,172.600926 C272.292407,174.808004 275.156667,175.652838 277.550406,174.453902 L280.262488,173.06417 C282.697356,171.865233 283.680352,169.085769 282.504047,166.809972 L255.74435,115.399592 C254.568868,113.191705 251.704607,112.346871 249.310869,113.546617 L246.598787,114.936349 C244.163919,116.135285 243.499266,118.533159 244.357228,121.190546 C253.461661,149.627905 271.116925,172.600926 271.116925,172.600926 Z"/>
    <path fill="url(#ambassador-logo-w)" fill-rule="nonzero" d="M263.978711,143.356109 C255.975064,127.624583 250.861086,114.10548 252.217609,112.62102 L252.217609,112.538686 C252.217609,112.538686 252.298258,112.538686 252.298258,112.456352 C265.416689,105.724517 282.645014,113.308225 290.784152,129.356045 C298.937,145.444625 294.894045,163.938013 281.857876,170.917666 L281.77642,171 L281.77642,170.917666 C279.781961,171.247818 272.008971,159.129211 263.978711,143.356109 Z"/>
    <path fill="#353635" fill-rule="nonzero" d="M290,137 C290,137 279.903053,112.414297 268.286311,99.3782057 C256.668754,86.3421147 142.619758,81.8957467 123.824304,99.3782057 C105.028035,116.860665 98,137 98,137 L98,131.575986 C98,131.575986 106.617061,107.582424 123.824304,93.9541921 C141.030733,80.32645 253.531427,81.0422466 267.971112,93.9541921 C282.533781,106.866954 289.917739,131.575986 289.917739,131.575986 L289.917739,137 L290,137 Z"/>
    <path fill="url(#ambassador-logo-x)" fill-rule="nonzero" d="M294.797222 138.816895C296.693153 137.85167 296.305479 133.34648 293.932097 128.753175 291.558714 124.159869 288.098212 121.218117 286.203097 122.183341 284.307166 123.147758 284.694024 127.653756 287.067407 132.247062 289.440789 136.840367 292.901291 139.781311 294.797222 138.816895zM102.785911 132.36728C105.221327 127.78832 105.725069 123.240454 103.91001 122.209452 102.095745 121.178449 98.6496713 124.0538 96.2142556 128.63276 93.7788399 133.21172 93.2750976 137.758767 95.0893633 138.790588 96.9044223 139.82159 100.349702 136.945421 102.785911 132.36728z"/>
    <path fill="#FFF" fill-rule="nonzero" d="M196.051476 153.656153C201.201515 184.34061 250.335999 176.257671 243.31483 145.296474 236.971362 117.560899 194.316531 125.255417 196.051476 153.656153zM137.558947 158.069663C144.298133 184.789573 186.580586 177.922518 184.954307 151.161537 183.04032 119.028482 131.079024 125.217046 137.558947 158.069663z"/>
    <path fill="#000" fill-rule="nonzero" d="M149,146 C152.835649,146 156,149.391016 156,153.5 C156,157.649222 152.849203,161 149,161 C145.165148,161 142,157.608984 142,153.5 C142,149.391016 145.165148,146 149,146 Z"/>
    <path fill="#FFF" fill-rule="nonzero" d="M151.5,154 C152.336257,154 153,154.873198 153,156.000418 C153,157.126802 152.299708,158 151.5,158 C150.701023,158 150,157.126802 150,156.000418 C150,154.930019 150.664474,154 151.5,154 Z"/>
    <path fill="#000" fill-rule="nonzero" d="M209.000609,144 C212.862118,144 216,147.390406 216,151.499605 C216,155.649045 212.862118,159 209.000609,159 C205.138288,159 202.000406,155.608805 202.000406,151.499605 C201.959033,147.350955 205.083935,144 209.000609,144 Z"/>
    <path fill="#FFF" fill-rule="nonzero" d="M211.5 152C212.336257 152 213 152.873198 213 153.999582 213 155.126802 212.336257 156 211.5 156 210.663743 156 210 155.126802 210 153.999582 210 152.957593 210.663743 152 211.5 152zM151.499289 154C150.664159 154 150 154.873198 150 156.000418 150 157.126802 150.700691 158 151.499289 158 152.298618 158 152.998579 157.126802 152.998579 156.000418 153.035842 154.930019 152.335151 154 151.499289 154z"/>
    <path fill="#FFF" fill-rule="nonzero" d="M211.5,152 C210.663743,152 210,152.873198 210,153.999582 C210,155.126802 210.663743,156 211.5,156 C212.336257,156 213,155.126802 213,153.999582 C213,152.957593 212.298977,152 211.5,152 Z"/>
    <path fill="#E99C36" fill-opacity=".387" d="M276.908226,355.843059 C258.93136,361.482831 242.03543,364.515623 224.673804,359.341558 C217.155201,357.078159 210.689088,352.92018 207.394264,344.013949 C231.412995,344.48047 255.637348,337.757035 276.908226,355.843059 Z M184.113495,342.916445 C182.869199,348.473985 179.575188,352.480527 175.049884,354.27822 C168.269243,357.036636 161.023719,359.300849 153.779007,360.384512 C142.759957,361.935511 126.410185,358.944242 115.788563,354.580278 C122.418848,346.992192 130.82577,343.492879 139.971467,343.067067 C154.544602,342.367693 169.144558,342.916445 184.113495,342.916445 Z M318.097591,332.034218 C297.208699,347.280409 263.306307,352.06937 253.230843,333.667447 C257.332224,332.913939 261.40987,331.910279 265.47805,330.869455 L268.046302,330.209139 C284.519552,325.96591 300.886694,321.848767 318.097591,332.034218 Z M97.9620529,325.21471 C111.523334,327.012403 124.93426,330.085903 139.506583,332.802796 C133.573624,341.324738 126.410185,344.316007 118.386061,345.016195 C102.104559,346.415758 87.7776816,340.542319 73.546951,332.103422 C81.10676,326.229983 89.473045,324.130233 97.9620529,325.21471 Z M245.835775,300.007121 C249.211872,308.912538 248.159382,316.542146 242.623037,323.348627 C234.680186,333.104854 223.525411,337.660963 211.809848,341.283215 C210.483466,341.639823 209.171713,341.915013 207.54462,342.25778 C206.847294,336.151487 209.171713,330.896005 212.780253,326.696504 C217.237287,321.441021 222.390834,316.583669 227.735373,312.301937 C233.272531,307.828874 239.437932,304.24733 245.835775,300.007121 Z M145.849973,299.622831 C170.005243,312.233546 185.49433,327.245256 184.059042,341.008839 C172.506839,338.127483 162.090026,333.969505 153.245853,326.381419 C144.523591,318.87475 141.857823,309.036292 145.849973,299.622831 Z M274.228641,285.790857 C280.544398,291.348398 282.021136,301.269088 277.673821,310.065406 C272.260199,320.672443 263.114502,327.245256 252.069446,333.283158 C249.212067,316.576342 256.919799,305.647213 265.78281,295.424235 L266.48475,294.618533 C266.719416,294.350393 266.95471,294.082649 267.190461,293.81521 L267.898915,293.013712 C268.135409,292.746788 268.372189,292.480077 268.609083,292.213484 L269.319935,291.413973 C269.43841,291.28075 269.556871,291.147534 269.675296,291.014312 L270.385246,290.214835 L270.385246,290.214835 L271.093309,289.414687 C272.153472,288.213686 273.203792,287.00855 274.228641,285.790857 Z M117.374207,285.076828 C118.536173,286.438124 119.726991,287.783902 120.925744,289.12469 L121.645781,289.928647 C122.126216,290.464332 122.607253,290.999555 123.08755,291.53499 L123.807276,292.338386 C133.631378,303.322607 142.863825,314.537524 139.971467,331.787523 C117.921177,326.888648 104.82478,299.937916 117.374207,285.076828 Z M350.454974,301.076943 C331.972588,321.02905 305.315721,329.166703 290.810856,315.622946 C305.466077,301.804813 336.279266,294.188231 350.454974,301.076943 Z M65.4403345,297.715225 C70.5121205,299.032556 75.5154743,300.940162 80.2454243,303.12133 C87.3404306,306.346266 94.2714272,310.010042 101.749394,313.660791 C93.4920152,321.248877 84.2780485,322.181918 74.695263,320.082168 C61.4622448,317.324566 50.9223837,309.653434 40.9566379,299.855684 C49.2135289,295.766911 57.3474533,295.656998 65.4403345,297.715225 Z M296.93562,264.273911 C312.397074,275.36131 308.911257,298.071833 289.074855,314.223384 C280.315394,296.535653 287.777535,282.170936 295.254043,267.575171 L295.736257,266.633153 C296.13785,265.847812 296.538477,265.061582 296.93562,264.273911 Z M94.4355995,263.094175 C107.449911,282.812615 110.361125,300.706495 102.459723,312.301937 C83.4718162,299.389164 79.3979052,275.539614 94.4355995,263.094175 Z M373.20259,263.656768 C364.330784,281.70127 339.833352,301.186856 320.270842,289.180257 C332.20503,272.095665 358.794439,259.251282 373.20259,263.656768 Z M71.8380962,287.766854 C51.797292,300.06167 27.395519,280.260185 18.5918204,262.407828 C33.6292709,257.070114 52.3577534,268.664742 71.8380962,287.766854 Z M312.943231,238.640509 C330.264221,244.938946 332.902356,270.229582 318.097591,288.04123 C306.441911,275.13116 307.779232,261.097981 310.984925,246.819959 L311.21693,245.799696 C311.334372,245.289368 311.453858,244.778754 311.574883,244.267895 L311.818835,243.245861 C312.105488,242.053133 312.398678,240.859214 312.691966,239.664611 L312.943231,238.640509 L312.943231,238.640509 Z M78.0034973,237.419251 C85.6312508,256.054027 85.0980972,276.788554 73.4649461,286.394159 C60.8334325,270.051278 59.3570197,246.489945 78.0034973,237.419251 Z M386.914227,222.654236 C382.813171,246.613699 358.862709,265.097039 341.460446,257.783329 C351.001944,237.200238 371.726664,221.130919 386.914227,222.654236 Z M4.53859096,220.732789 C26.1588083,221.77116 36.2143363,236.645987 46.9637199,250.876102 L47.6895877,251.834294 C48.7803835,253.269625 49.8810917,254.695035 51.0043886,256.09555 C33.8617129,264.109448 11.3875014,247.038697 4.53859096,220.732789 Z M322.403456,210.606113 C341.501083,213.007922 348.172004,236.184151 339.218112,257.316808 C323.296976,246.055861 322.341708,230.090739 322.386323,213.740578 L322.390395,212.69647 C322.391255,212.522378 322.392194,212.348254 322.393197,212.174101 L322.399828,211.128892 C322.401014,210.954648 322.402229,210.780387 322.403456,210.606113 Z M69.4047703,208.876811 C69.5552074,226.812214 69.4868564,244.005905 52.9319501,255.821174 C44.6749778,240.850173 46.9716019,213.858732 69.4047703,208.876811 Z M390.988463,179.676521 C391.452534,197.913167 377.892065,227.402489 354.679566,223.202988 C359.518585,201.220335 375.950444,181.501081 390.988463,179.676521 Z M352.546952,223.271378 C334.376688,215.777345 329.686477,200.438226 326.157442,184.286225 L325.933643,183.25421 C325.785337,182.565554 325.638658,181.875698 325.492659,181.185182 C342.745378,178.42758 355.376892,197.830935 352.546952,223.271378 Z M2.48689958e-14,178.495971 C15.6526488,179.813301 27.9424077,195.030997 37.3612647,222.173874 C26.8624467,223.573436 18.7285223,219.415458 12.3307606,211.703618 C4.60693378,202.153376 1.73614556,190.790787 2.48689958e-14,178.495971 Z M65.6044256,179.552766 C65.9461802,197.515036 53.984522,216.932232 39.2477832,221.638963 C36.3770437,197.062357 47.5047554,179.40133 65.6044256,179.552766 Z M385.683747,136.533529 C390.605665,160.725845 380.407478,186.249334 358.944795,187.100144 C363.551372,167.696789 364.563226,147.112884 385.683747,136.533529 Z M357.632229,187.017912 C343.373622,185.768972 329.963509,173.487182 322.485542,151.188631 C339.450554,146.646363 355.923049,163.332825 357.632229,187.017912 Z M69.5552074,149.706837 C63.0070899,170.441364 48.6668027,184.904321 34.4085204,185.535305 C34.4085204,163.634883 51.2641384,146.248233 69.5552074,149.706837 Z M5.42719381,134.886458 C23.3179953,143.877314 27.2369081,159.335739 30.5478815,175.095972 L30.7892568,176.249609 L30.7892568,176.249609 L31.1497961,177.98091 C31.6708301,180.481684 32.1970652,182.980595 32.7817518,185.453073 C22.816006,185.837363 13.7524764,179.346781 9.18653612,168.766611 C4.60696629,158.227965 4.41558366,147.222797 5.42719381,134.886458 Z M354.679566,151.202472 C334.547427,151.729274 323.751769,138.69891 313.280675,125.054228 L311.972827,123.346379 L311.972827,123.346379 C327.161202,114.550061 349.183858,128.986151 354.679566,151.202472 Z M370.878983,95.8330537 C381.186077,118.090897 376.880211,146.262074 355.923862,150.529965 C355.967555,148.959069 355.981417,147.383602 355.979426,145.806819 L355.975178,144.624036 C355.873432,126.880107 354.20753,109.072473 370.878983,95.8330537 Z M80.0950685,121.863772 C79.321869,122.881992 78.5496074,123.897184 77.7748607,124.904674 L77.1101036,125.766243 C67.0163028,138.801447 56.3372386,150.30939 37.5526636,150.021922 C42.7064545,127.312213 63.4718112,113.932919 80.0950685,121.863772 Z M20.109195,94.7900989 C33.3558672,102.611853 38.359221,120.848499 35.4884815,149.006649 C26.9307976,148.155839 18.7421762,139.55248 16.541211,129.054542 C14.1489281,117.390709 16.1584945,106.179556 20.109195,94.7900989 Z M343.469525,115.799002 C331.822232,121.521005 311.31695,113.699251 295.308526,97.204934 C311.507943,87.0920995 333.203067,95.6132271 343.469525,115.799002 Z M96.1439666,95.8737623 C84.1691421,110.968517 61.9953984,119.805544 48.051563,114.892828 C59.3706736,94.1591153 81.10676,85.6786963 96.1439666,95.8737623 Z M346.846435,58.5358191 C363.661091,81.1364289 362.895495,107.853494 344.904813,115.593016 C344.330738,112.701076 343.634528,109.814994 342.916446,106.934773 L342.628284,105.782996 C342.435716,105.015354 342.242543,104.248128 342.050666,103.481319 L341.621934,101.756703 C338.033554,87.1992112 335.428041,72.7921785 346.846435,58.5358191 Z M44.8663767,57.1772911 C56.8963371,72.1730428 53.4754546,87.3441868 49.624117,102.754419 L49.3346943,103.910635 C48.4654129,107.380636 47.59335,110.862821 46.889597,114.357917 C36.2676497,109.610478 31.0455892,98.5637877 33.0141125,85.5003926 C34.599838,75.304431 38.5506198,66.165428 44.8663767,57.1772911 Z M325.274033,84.6764502 C306.371886,92.82866 290.681942,85.169838 274.833033,77.1779339 L273.821152,76.6675091 C273.652458,76.5824126 273.483738,76.4973156 273.314988,76.4122369 L272.302095,75.9021322 C272.133208,75.8172009 271.964283,75.732325 271.795315,75.6475233 C285.356597,62.2819888 308.910444,66.2065437 325.274033,84.6764502 Z M120.013155,74.3987457 L118.489972,75.1634473 L118.489972,75.1634473 L117.475701,75.6739838 C101.422584,83.7562339 85.6376511,91.6672595 66.5340308,83.428324 C82.9248462,64.9578476 106.520143,61.0195332 120.013155,74.3987457 Z M313.572287,27.2352894 C324.071187,37.0741549 332.669914,47.5854454 335.007337,61.8977809 C336.319903,70.0213482 333.29897,77.6920728 326.914943,83.0985842 C312.560433,67.6061874 305.848875,40.4497949 313.572287,27.2352894 Z M78.386295,25.904199 C82.7606739,33.0947248 82.9248462,40.2989287 81.3253854,47.612883 C79.3842513,56.7519675 71.2503269,73.8361526 65.3173679,81.8087724 C57.6072844,76.7178342 54.5450648,66.165428 58.0720057,55.2012949 C61.6946868,43.4413083 69.1314478,34.3846181 78.386295,25.904199 Z M298.60335,57.136094 C283.228566,67.8536282 267.637664,65.1474858 251.970986,61.4460985 L250.838325,61.1769686 C249.516737,60.8613669 248.194635,60.5408164 246.872102,60.2227725 L245.738399,59.9509513 C245.549432,59.905808 245.360456,59.8607594 245.171472,59.8158271 L244.037475,59.5478037 L244.037475,59.5478037 L242.903296,59.2836164 C242.714251,59.2399629 242.5252,59.1965126 242.336142,59.1532874 C250.75688,43.221726 277.87863,42.1650931 298.60335,57.136094 Z M149.77304,57.7948408 C148.626354,58.063249 147.480849,58.3393635 146.336512,58.6185129 L144.62088,59.0389293 L144.62088,59.0389293 L143.478092,59.320006 C142.716491,59.5073152 141.955403,59.6942431 141.194824,59.8794058 L140.054336,60.1556528 C139.294265,60.3387042 138.534701,60.5192982 137.775639,60.6960508 L136.637422,60.9581257 C122.03513,64.2800054 107.618204,65.9219587 93.3554759,56.0109078 C109.472806,43.9490261 137.798216,39.0090355 149.77304,57.7948408 Z M269.389622,2.76845819 C282.568106,9.72561777 292.984919,17.3964238 299.998002,28.9093905 C305.616433,38.1307878 305.301905,47.9284562 299.068234,55.9834702 C297.278772,53.7665018 295.372212,51.6243019 293.421517,49.5098035 L292.583016,48.6051487 C292.162627,48.1535321 291.74069,47.7028787 291.317922,47.2527255 L290.471494,46.3529487 C289.4832,45.3036669 288.492992,44.2554271 287.509991,43.2023459 L286.669397,42.298382 C276.888021,31.7351024 268.087947,20.5195881 269.389622,2.76845819 Z M121.448443,2 C124.127215,8.18874536 123.074724,14.0618996 120.36832,19.0018902 C116.294084,26.3570417 111.304709,33.2319129 106.191799,39.8872018 C102.063109,45.0742123 97.264727,49.5888793 92.3436219,54.9131593 C86.492749,45.8838253 86.492749,37.4858005 91.0310563,29.1564104 C97.811697,16.6279266 108.939653,8.73764406 121.448443,2 Z M282.718462,44.2646807 C265.78027,49.6711921 235.870029,35.1255963 224.78271,15.790876 C246.0544,12.7582469 272.642997,25.9865933 282.718462,44.2646807 Z M167.585734,13.609057 C160.163033,28.6623706 134.038508,46.638563 109.814967,42.70033 C119.384099,24.2575355 145.344452,11.2350933 167.585734,13.609057 Z" filter="url(#ambassador-logo-y)"/>
    <use fill="#000" filter="url(#ambassador-logo-z)" xlink:href="#ambassador-logo-A"/>
    <use fill="url(#ambassador-logo-B)" xlink:href="#ambassador-logo-A"/>
    <use fill="#000" filter="url(#ambassador-logo-C)" xlink:href="#ambassador-logo-A"/>
    <path fill="url(#ambassador-logo-D)" fill-rule="nonzero" d="M183.868472,173.74584 C177.805049,174.243337 172.85558,181.579592 175.948998,187.29959 C180.15637,195.008766 189.560845,186.55375 195.376633,187.424167 C202.058739,187.547934 207.626892,194.511269 212.948216,188.667504 C219.010832,182.077089 210.349261,175.735018 203.667155,173 L183.868472,173.74584 Z"/>
    <path fill="#010101" fill-rule="nonzero" d="M183.392261,174.047835 C182.887691,163.33321 203.436211,161.946419 205.831689,170.897006 C208.227168,179.973068 184.274849,181.989697 183.392261,174.047835 C183.392261,174.047835 182.509673,167.61906 183.392261,174.047835 Z"/>
  </g>
</svg>