<?xml version="1.0" encoding="UTF-8"?>
<svg width="126px" height="144px" viewBox="0 0 126 144" version="1.1" xmlns="http://www.w3.org/2000/svg" xmlns:xlink="http://www.w3.org/1999/xlink">
    <title>TraefikLabs-icon-white</title>
    <g id="TraefikLabs-icon-white" stroke="none" stroke-width="1" fill="none" fill-rule="evenodd">
        <path d="M42.2053796,0.888843413 L8.87023676,19.5372266 C8.10643526,19.9645133 7.4750312,20.5911097 7.04445972,21.3491175 C5.74155384,23.6428432 6.55912408,26.5504177 8.87041688,27.8432736 L33.401363,41.5650224 C33.6611801,41.710355 33.8759391,41.9234722 34.0223691,42.1812654 C34.4653476,42.9611382 34.1873671,43.9496894 33.4013451,44.3893496 L17.5632307,53.2483738 C16.7157817,53.722393 15.7167491,53.853955 14.7739807,53.6156888 C13.3606238,53.258419 12.1934011,53.0784306 11.2654439,53.0784306 C5.06984536,53.0784306 2.84217094e-14,57.0943072 2.84217094e-14,62.1047731 C2.84217094e-14,64.662126 1.32084617,66.9604372 3.43803087,68.5978903 L3.70122235,68.7950646 C5.70447368,70.2486896 8.36129993,71.1311155 11.2654439,71.1311155 C17.4609509,71.1311155 22.5308877,67.1150971 22.5308877,62.1047731 L22.5449475,61.9137384 C22.5908891,61.5842156 22.8093189,61.263272 23.1329407,61.0822099 L48.0710941,47.1299606 C48.8347673,46.7027053 49.4660755,46.0762023 49.8966131,45.3183207 C51.199606,43.0246437 50.382146,40.1170386 48.0709022,38.8240964 L23.5386415,25.1004054 C23.2788679,24.9550843 23.0641411,24.7419998 22.9177218,24.4842503 C22.4747111,23.7043955 22.7526507,22.715833 23.5386545,22.2761408 L43.7609203,10.9637627 C44.9131868,10.3191824 46.3211991,10.3191836 47.4734646,10.9637658 L102.026797,41.4811341 C102.572065,41.7861434 102.909327,42.3589963 102.909327,42.9800057 L102.893744,43.193382 C102.840744,43.5745369 102.591095,43.9409925 102.221328,44.1474784 L17.3760652,91.527132 C16.5406458,91.9936504 15.5578086,92.1277685 14.6265186,91.902321 C13.2714025,91.5743296 12.1532644,91.409099 11.2654439,91.409099 C5.06984536,91.409099 2.84217094e-14,95.4249756 2.84217094e-14,100.435441 C2.84217094e-14,105.445766 5.0699368,109.461784 11.2654439,109.461784 C12.126799,109.461784 13.2121995,109.305964 14.5281077,108.996655 C15.4533989,108.779162 16.4273283,108.915715 17.2557055,109.379072 L76.4102127,142.471165 C78.5287246,143.656298 81.1173655,143.656277 83.2358575,142.471109 L116.577379,123.818541 C117.34117,123.391245 117.972563,122.764644 118.403124,122.006634 C119.706003,119.712894 118.888398,116.805329 116.57709,115.5125 L92.0478598,101.792085 C91.7880168,101.646742 91.5732401,101.433601 91.4268064,101.175779 C90.9838579,100.395889 91.2618764,99.4073485 92.0479154,98.9677181 L107.842823,90.1336495 C108.6924,89.6584825 109.694213,89.5275301 110.638867,89.7681634 C112.063023,90.1310079 113.239352,90.313805 114.174771,90.313805 C116.433569,90.313805 118.542712,89.7800145 120.311082,88.8588432 L120.610858,88.6971607 C123.525122,87.0705048 125.44,84.366829 125.44,81.2874626 C125.44,76.2771099 120.370239,72.2611202 114.174771,72.2611202 C107.979264,72.2611202 102.909327,76.2771385 102.909327,81.2874626 L102.895646,81.4728794 C102.851469,81.7893868 102.640839,82.098845 102.328779,82.2734147 L77.382194,96.2277114 C76.6183744,96.6549668 75.9869441,97.2815375 75.556341,98.039528 C74.2533398,100.3332 75.0707893,103.240808 77.3820284,104.533759 L101.910155,118.255252 C102.169932,118.400576 102.38466,118.613666 102.531079,118.871421 C102.97408,119.651281 102.696129,120.639841 101.910119,121.079523 L81.6792745,132.396383 C80.5270311,133.040933 79.1190607,133.040933 77.9668168,132.396384 L23.3657017,101.853306 C22.8499205,101.564768 22.5308877,101.022873 22.5308877,100.435441 L22.5474395,100.207742 C22.6049513,99.7934289 22.8745431,99.3977009 23.2738464,99.1747069 L107.995228,51.8686666 C108.834915,51.3998087 109.823354,51.26683 110.758549,51.4969137 C112.135516,51.8356842 113.272011,52.0063481 114.174771,52.0063481 C120.370239,52.0063481 125.44,47.9903584 125.44,42.9800057 C125.44,37.9695112 120.370331,33.9536633 114.174771,33.9536633 C113.328468,33.9536633 112.261683,34.1042394 110.968054,34.4031395 C110.046778,34.6160053 109.078573,34.4783771 108.254617,34.0174324 L49.0307676,0.888739354 C46.9123134,-0.296283525 44.323797,-0.296244062 42.2053796,0.888843413 Z" id="Path-Copy-3" fill="#FFFFFF" fill-rule="nonzero"></path>
    </g>
</svg>